<?xml version="1.0" encoding="UTF-8" standalone="no"?>
<svg
   xmlns:dc="http://purl.org/dc/elements/1.1/"
   xmlns:cc="http://creativecommons.org/ns#"
   xmlns:rdf="http://www.w3.org/1999/02/22-rdf-syntax-ns#"
   xmlns:svg="http://www.w3.org/2000/svg"
   xmlns="http://www.w3.org/2000/svg"
   xmlns:sodipodi="http://sodipodi.sourceforge.net/DTD/sodipodi-0.dtd"
   xmlns:inkscape="http://www.inkscape.org/namespaces/inkscape"
   aria-hidden="true"
   focusable="false"
   data-prefix="fas"
   data-icon="laptop-code"
   class="svg-inline--fa fa-laptop-code fa-w-20"
   role="img"
   viewBox="0 0 640 512"
   version="1.1"
   id="svg5770"
   sodipodi:docname="laptop-code-solid.svg"
   inkscape:version="0.92.4 (5da689c313, 2019-01-14)">
  <metadata
     id="metadata5776">
    <rdf:RDF>
      <cc:Work
         rdf:about="">
        <dc:format>image/svg+xml</dc:format>
        <dc:type
           rdf:resource="http://purl.org/dc/dcmitype/StillImage" />
      </cc:Work>
    </rdf:RDF>
  </metadata>
  <defs
     id="defs5774" />
  <sodipodi:namedview
     pagecolor="#ffffff"
     bordercolor="#666666"
     borderopacity="1"
     objecttolerance="10"
     gridtolerance="10"
     guidetolerance="10"
     inkscape:pageopacity="0"
     inkscape:pageshadow="2"
     inkscape:window-width="1920"
     inkscape:window-height="1013"
     id="namedview5772"
     showgrid="false"
     inkscape:zoom="0.4609375"
     inkscape:cx="320"
     inkscape:cy="256"
     inkscape:window-x="-9"
     inkscape:window-y="-9"
     inkscape:window-maximized="1"
     inkscape:current-layer="svg5770" />
  <path
     fill="currentColor"
     d="M255.03 261.65c6.25 6.25 16.38 6.25 22.63 0l11.31-11.31c6.25-6.25 6.25-16.38 0-22.63L253.25 192l35.71-35.72c6.25-6.25 6.25-16.38 0-22.63l-11.31-11.31c-6.25-6.25-16.38-6.25-22.63 0l-58.34 58.34c-6.25 6.25-6.25 16.38 0 22.63l58.35 58.34zm96.01-11.3l11.31 11.31c6.25 6.25 16.38 6.25 22.63 0l58.34-58.34c6.25-6.25 6.25-16.38 0-22.63l-58.34-58.34c-6.25-6.25-16.38-6.25-22.63 0l-11.31 11.31c-6.25 6.25-6.25 16.38 0 22.63L386.75 192l-35.71 35.72c-6.25 6.25-6.25 16.38 0 22.63zM624 416H381.54c-.74 19.81-14.71 32-32.74 32H288c-18.69 0-33.02-17.47-32.77-32H16c-8.8 0-16 7.2-16 16v16c0 35.2 28.8 64 64 64h512c35.2 0 64-28.8 64-64v-16c0-8.8-7.2-16-16-16zM576 48c0-26.4-21.6-48-48-48H112C85.6 0 64 21.6 64 48v336h512V48zm-64 272H128V64h384v256z"
     id="path5768" />
  <path
     style="opacity:1;fill:#ffffff;fill-opacity:1;fill-rule:evenodd;stroke:none;stroke-width:0.54237288;stroke-miterlimit:4;stroke-dasharray:none;stroke-opacity:1;paint-order:markers stroke fill"
     d="M 191.37119,-0.18050846 C 160.88841,0.78323721 129.99603,-1.5346856 99.752543,2.3915255 77.926383,8.5226455 60.954941,31.415036 64.735593,54.175423 c 0,109.362997 0,218.725977 0,328.088987 43.617657,2.33394 89.030907,0.33288 133.338987,1 125.86441,0 251.72881,0 377.59323,0 2.19238,-43.62131 0.0288,-89.03281 0.54623,-133.34244 -1.0217,-71.02434 1.18661,-142.18288 -2.47422,-213.123664 C 569.94649,16.131598 549.19615,-0.4710549 527.93899,1.5483051 415.78238,-0.75606736 303.55007,0.03622927 191.37119,-0.18050846 Z M 319.5661,64.349154 c 64.02825,0 128.0565,-3e-6 192.08474,0 0,85.389826 0,170.779666 0,256.169486 -128.05649,0 -256.11299,0 -384.16948,0 0,-85.38982 -10e-6,-170.77966 0,-256.169486 64.02824,-3e-6 128.05649,0 192.08474,0 z"
     id="path6321"
     inkscape:connector-curvature="0" />
  <path
     style="opacity:1;fill:#ffffff;fill-opacity:1;fill-rule:evenodd;stroke:none;stroke-width:0.54237288;stroke-miterlimit:4;stroke-dasharray:none;stroke-opacity:1;paint-order:markers stroke fill"
     d="m 371.72712,118.45085 c -10.99678,3.10168 -20.38163,13.3318 -24.72034,23.69067 0.82285,16.15397 18.2728,25.18285 27.13559,37.05933 2.5291,5.38693 16.42651,11.2792 8.56356,17.26271 -10.9948,14.71969 -29.38754,24.74344 -35.70339,42.49576 1.5978,12.57863 14.70284,20.69155 24.8517,26.66526 9.47056,1.15368 15.51909,-10.53347 22.70762,-15.08475 18.05022,-18.09675 37.98989,-35.15036 53.18221,-55.63983 -0.29989,-14.65579 -15.77085,-23.61377 -24.02789,-34.18022 -16.19333,-14.07409 -29.19486,-33.81287 -49.46788,-42.13334 -0.83298,-0.13199 -1.67869,-0.18426 -2.52118,-0.13559 z"
     id="path6323"
     inkscape:connector-curvature="0" />
  <path
     style="opacity:1;fill:#ffffff;fill-opacity:1;fill-rule:evenodd;stroke:none;stroke-width:0.54237288;stroke-miterlimit:4;stroke-dasharray:none;stroke-opacity:1;paint-order:markers stroke fill"
     d="m 267.07881,118.65 c -19.04128,6.48536 -30.63405,25.4859 -45.53356,38.06909 -9.40479,11.61358 -24.93371,20.57742 -28.80966,35.64701 4.30251,15.56621 20.33019,24.86237 30.13394,36.94782 14.30146,12.20181 25.53706,30.36461 43.84064,36.68777 11.46305,-1.16011 19.52794,-12.77754 25.21186,-21.86017 3.17484,-15.67083 -14.64257,-25.53622 -22.85996,-36.32259 -11.76692,-9.66048 -21.44015,-19.31297 -3.99581,-28.86201 9.03429,-11.71103 26.58391,-20.64345 27.53798,-36.76455 -4.31182,-10.17778 -13.38511,-20.63709 -24.30085,-23.57203 -0.40819,0.004 -0.81768,-0.025 -1.22458,0.0297 z"
     id="path6325"
     inkscape:connector-curvature="0" />
  <path
     style="opacity:1;fill:#ffffff;fill-opacity:1;fill-rule:evenodd;stroke:none;stroke-width:0.54237288;stroke-miterlimit:4;stroke-dasharray:none;stroke-opacity:1;paint-order:markers stroke fill"
     d="m 505.03643,415.97627 c -40.89823,0.54436 -82.57514,-1.0837 -122.99151,0.80509 -0.44798,17.57381 -15.94418,31.7425 -33.38559,30.67796 -24.60633,0.96561 -50.38687,3.79916 -74.40256,-2.56779 -10.98856,-5.8007 -17.96643,-17.3227 -20.31779,-28.91526 -81.09644,0.19511 -162.347701,-0.38994 -243.347455,0.29237 -10.03100866,6.22996 -12.7795566,17.48771 -10.49572741,28.47161 -0.76535474,28.0371 18.72975941,55.53256 45.47877841,63.68094 77.140394,4.20662 154.545654,1.7108 231.788124,2.63131 104.37584,0.0277 208.78473,0.27981 313.13985,0.10597 21.848,-8.55797 43.87801,-24.51928 46.82203,-49.6144 0.64911,-12.24948 5.43744,-25.90818 0.40678,-37.55085 -12.8133,-10.55838 -31.83594,-6.06199 -47.21551,-7.89333 -28.49128,-0.34025 -56.98681,-0.0931 -85.47942,-0.12362 z"
     id="path6327"
     inkscape:connector-curvature="0" />
</svg>
