<?xml version="1.0" encoding="UTF-8" standalone="no"?>
<svg
   xmlns:dc="http://purl.org/dc/elements/1.1/"
   xmlns:cc="http://creativecommons.org/ns#"
   xmlns:rdf="http://www.w3.org/1999/02/22-rdf-syntax-ns#"
   xmlns:svg="http://www.w3.org/2000/svg"
   xmlns="http://www.w3.org/2000/svg"
   xmlns:sodipodi="http://sodipodi.sourceforge.net/DTD/sodipodi-0.dtd"
   xmlns:inkscape="http://www.inkscape.org/namespaces/inkscape"
   aria-hidden="true"
   focusable="false"
   data-prefix="fas"
   data-icon="graduation-cap"
   class="svg-inline--fa fa-graduation-cap fa-w-20"
   role="img"
   viewBox="0 0 640 512"
   version="1.1"
   id="svg5746"
   sodipodi:docname="graduation-cap-solid.svg"
   inkscape:version="0.92.4 (5da689c313, 2019-01-14)">
  <metadata
     id="metadata5752">
    <rdf:RDF>
      <cc:Work
         rdf:about="">
        <dc:format>image/svg+xml</dc:format>
        <dc:type
           rdf:resource="http://purl.org/dc/dcmitype/StillImage" />
      </cc:Work>
    </rdf:RDF>
  </metadata>
  <defs
     id="defs5750" />
  <sodipodi:namedview
     pagecolor="#ffffff"
     bordercolor="#666666"
     borderopacity="1"
     objecttolerance="10"
     gridtolerance="10"
     guidetolerance="10"
     inkscape:pageopacity="0"
     inkscape:pageshadow="2"
     inkscape:window-width="1920"
     inkscape:window-height="1013"
     id="namedview5748"
     showgrid="false"
     inkscape:zoom="1.59375"
     inkscape:cx="320"
     inkscape:cy="256"
     inkscape:window-x="-9"
     inkscape:window-y="-9"
     inkscape:window-maximized="1"
     inkscape:current-layer="svg5746" />
  <path
     fill="currentColor"
     d="M622.34 153.2L343.4 67.5c-15.2-4.67-31.6-4.67-46.79 0L17.66 153.2c-23.54 7.23-23.54 38.36 0 45.59l48.63 14.94c-10.67 13.19-17.23 29.28-17.88 46.9C38.78 266.15 32 276.11 32 288c0 10.78 5.68 19.85 13.86 25.65L20.33 428.53C18.11 438.52 25.71 448 35.94 448h56.11c10.24 0 17.84-9.48 15.62-19.47L82.14 313.65C90.32 307.85 96 298.78 96 288c0-11.57-6.47-21.25-15.66-26.87.76-15.02 8.44-28.3 20.69-36.72L296.6 284.5c9.06 2.78 26.44 6.25 46.79 0l278.95-85.7c23.55-7.24 23.55-38.36 0-45.6zM352.79 315.09c-28.53 8.76-52.84 3.92-65.59 0l-145.02-44.55L128 384c0 35.35 85.96 64 192 64s192-28.65 192-64l-14.18-113.47-145.03 44.56z"
     id="path5744" />
  <path
     style="opacity:1;fill:#ffffff;fill-opacity:1;fill-rule:evenodd;stroke:none;stroke-width:0.15686275;stroke-miterlimit:4;stroke-dasharray:none;stroke-opacity:1;paint-order:markers stroke fill"
     d="m 319.06078,63.369363 c -16.53593,-0.08198 -31.81836,7.062868 -47.5204,11.237272 -86.0822,26.400175 -172.210153,52.668335 -258.125429,79.600965 -7.716876,4.17861 -14.561442,12.35089 -13.59803924,21.62255 -0.89728456,10.9334 7.77633624,21.00204 18.19852924,23.39583 15.418338,5.35558 31.525541,9.6141 46.741422,14.96446 -7.093167,10.48994 -13.167119,21.93098 -15.536765,34.50122 -1.12086,3.8777 -0.564707,8.52004 -2.09009,11.99589 -13.829395,7.94133 -19.998922,27.0798 -12.228537,41.24799 2.446843,4.78032 6.396167,8.51237 10.174019,12.22917 -8.541242,39.2199 -17.909483,78.27464 -25.544117,117.68259 -0.498571,7.15161 4.998686,13.62265 11.452205,15.92647 21.553194,1.13439 43.167763,0.46585 64.7451,0.72427 7.537112,-2.4485 14.232312,-10.0514 12.475492,-18.375 -6.46013,-33.19549 -14.44801,-66.08153 -21.574887,-99.14058 -1.241788,-5.59081 -2.483576,-11.18161 -3.725365,-16.77241 7.797892,-7.0248 14.539163,-16.695 13.688728,-27.67647 -0.453408,-10.39466 -6.826679,-19.72824 -15.148285,-25.55147 -0.801406,-6.87052 2.468505,-13.58195 5.289217,-19.65441 3.220072,-6.53678 8.512935,-12.11499 14.436272,-16.1152 66.95957,20.22797 133.67739,41.30158 200.70466,61.31495 10.57555,2.32391 21.71405,2.50163 32.38236,0.70588 29.56389,-7.64137 58.49107,-17.53355 87.75754,-26.21646 66.62631,-20.66708 133.50178,-40.5437 199.92604,-61.85319 12.74586,-2.68928 21.60239,-16.91512 17.7147,-29.47692 -2.52881,-8.42622 -9.62353,-15.49406 -18.42433,-17.06131 -93.73899,-29.28252 -187.57,-58.283533 -281.56219,-86.742607 -6.69537,-1.74874 -13.69186,-2.529086 -20.60785,-2.51348 z"
     id="path5754"
     inkscape:connector-curvature="0" />
  <path
     style="opacity:1;fill:#ffffff;fill-opacity:1;fill-rule:evenodd;stroke:none;stroke-width:0.15686275;stroke-miterlimit:4;stroke-dasharray:none;stroke-opacity:1;paint-order:markers stroke fill"
     d="m 141.96642,270.53848 c -2.0418,8.44863 -2.41165,17.42263 -3.76057,26.06968 -3.62774,30.08706 -7.59899,60.15092 -10.53722,90.309 2.31595,13.10247 13.63583,22.15642 24.36804,28.70146 26.33916,15.23321 56.57276,21.89612 86.29858,26.8431 28.4822,4.45646 57.32723,6.54312 86.15564,5.88409 38.5075,0.14907 77.13556,-4.1061 114.49024,-13.55733 21.64524,-5.98644 43.96586,-13.19816 61.33455,-28.01838 7.19889,-6.38747 13.74394,-15.69134 11.66177,-25.82598 -4.0463,-36.62792 -8.68366,-73.20273 -13.66299,-109.71201 -1.82541,-1.93867 -4.89511,0.79347 -7.10784,0.82475 -49.43523,14.637 -98.43321,30.75182 -148.04779,44.77696 -15.65459,2.96076 -32.0397,3.2992 -47.50981,-0.34313 -37.82129,-10.57396 -75.23112,-22.82976 -112.87586,-34.12239 -13.32217,-4.0319 -26.60785,-8.20139 -39.98321,-12.05286 l -0.60563,0.16403 z"
     id="path5756"
     inkscape:connector-curvature="0" />
</svg>
