<svg id="ehyDi7szU8v1" xmlns="http://www.w3.org/2000/svg" xmlns:xlink="http://www.w3.org/1999/xlink" viewBox="0 0 338.66666 190.5" shape-rendering="geometricPrecision" text-rendering="geometricPrecision">
<style><![CDATA[
#ehyDi7szU8v114_tr {animation: ehyDi7szU8v114_tr__tr 10000ms linear infinite normal forwards}@keyframes ehyDi7szU8v114_tr__tr { 0% {transform: translate(169.356403px,95.183636px) rotate(0deg)} 50% {transform: translate(169.356403px,95.183636px) rotate(45deg)} 100% {transform: translate(169.356403px,95.183636px) rotate(0deg)}}
]]></style>
<g id="ehyDi7szU8v114_tr" transform="translate(169.356403,95.183636) rotate(0)"><g transform="translate(-169.356403,-95.183636)"><g transform="translate(1.543723-1.324658)"><path d="M114.57289,124.78283q.11593.21928.32416.26819.18782.0457.37787-.0548.18274-.0966.25076-.27753.0768-.19962-.0391-.41891-.114-.21563-.32416-.26819-.18782-.0457-.37056.0509-.19005.10047-.25806.2814-.0749.20327.0391.41891Zm.13888-.0734q-.0792-.14985-.0269-.28973.0452-.12678.17677-.19634.12792-.0676.2618-.0355.14505.0356.22427.18539.0812.1535.0288.29339-.0508.12506-.17871.19268-.13157.0696-.25986.0392-.14506-.0356-.22621-.18905Z" fill="#ccc" stroke-width="0.264583"/><path d="M115.2867,121.70705l-.39712-.88664-.0981.0439q.0811.18111.0566.27814-.0262.0933-.16201.1541l-1.0451.46809-.67596-1.50918l1.04511-.46809q.13206-.0592.2296-.003.0904.0501.16306.21234l.0981-.0439-.39543-.88287-.0981.0439q.0794.17733.0549.27437-.0266.10249-.15862.16164l-2.11663.94802q-.11696.0524-.20358.00059-.0904-.0501-.16813-.22367l-.0943.0422.39543.88287.0943-.0422q-.071-.15846-.0499-.26304.0156-.10667.1326-.15905l.9772-.43768.67595,1.50918-.97719.43768q-.11697.0524-.20189.004-.0904-.0501-.16813-.22367l-.0943.0422.39713.88664.0943-.0422q-.0811-.1811-.0583-.28191.0203-.0861.14106-.14019l2.11663-.94802q.13582-.0608.22453-.0145.087.0426.16812.22367Z" fill="#ccc" stroke-width="0.264583"/><path d="M112.82335,117.12466q.24735.0765.40895.21753.16696.14339.2572.37444.12333.31576-.007.58417-.15068.30739-.62818.49389l-.58356-1.49412q-.43514.16995-.59135.49726-.15002.32044.002.70938.15792.40433.54215.54719.37201.13431.79175-.0296.44669-.17447.62619-.53306.17415-.36094.0117-.77683-.12032-.30807-.34468-.47342-.18086-.13352-.45751-.19412Zm-.56355.47753l.48279,1.23611q-.31023.10342-.59188-.004-.27243-.10663-.3717-.36078-.10528-.26956.005-.48592.11698-.22322.47529-.38535Z" fill="#ccc" stroke-width="0.264583"/><path d="M113.09706,116.44085l-.27901-.7871-.10131.0359q.0539.15196.0189.23892-.0363.0831-.16493.12865l-2.56004.90746.36822.45722.049-.0349q-.0525-.14806-.0278-.22698.0221-.0737.11956-.10818l2.13531-.7569q.12859-.0456.20914-.004t.13165.1858Z" fill="#ccc" stroke-width="0.264583"/><path d="M112.68683,115.27058l-.26209-.79289-.10205.0337q.0506.15309.0138.23928-.0381.0823-.16766.12508l-2.57887.85244.35834.465.0498-.0339q-.0493-.14916-.023-.22754.0237-.0731.12184-.10558l2.15103-.71102q.12953-.0428.20917.00052t.12765.18858Z" fill="#ccc" stroke-width="0.264583"/><path d="M110.03695,113.70451q.13347.45199.52046.60928.34707.1389.77527.0125.42028-.12411.63621-.42928.23946-.34228.10599-.79427-.13231-.44803-.52047-.60928-.34824-.14287-.76852-.0188-.4282.12646-.64296.43558-.23829.34625-.10598.79428Zm.0991-.0293q-.0948-.32115.13397-.5827.20692-.23353.59547-.34828.38063-.1124.67725-.0276.33815.0941.43299.41527.096.32512-.13677.58784-.20412.22839-.58474.34079-.38856.11475-.68797.035-.33419-.0953-.4302-.4204Z" fill="#ccc" stroke-width="0.264583"/><path d="M109.27058,110.81879l.10509-.0226q-.0295-.13743-.0102-.205.0161-.0627.0964-.12219l1.20418-.79152.44278-.28119-.0148-.0687-1.49174-.21227.83878-.54387.42977-.28262-.0148-.0687-1.92746-.23282q-.078-.009-.12998-.0736-.0578-.0721-.0899-.2217l-.10508.0226.15024.69924.10508-.0226q-.0356-.16571-.01-.24311.0242-.0644.10132-.0598l1.47497.17358-1.26134.82072q-.0828.0474-.12646.002-.0405-.0505-.0804-.23644l-.10509.0226.17629.8205.10509-.0226q-.0295-.13742-.0143-.20413.0309-.0531.11601-.10949l.22428-.13699l1.20961.15872-1.26624.81754q-.0771.0546-.12243.00093-.0445-.0496-.0792-.21131l-.10509.0226Z" fill="#ccc" stroke-width="0.264583"/><path d="M108.35516,106.33039q.0754.46523.43942.67009.32677.18159.7675.11019.43258-.0701.6853-.34556.28074-.30933.20537-.77455-.0747-.46114-.43942-.67009-.32743-.18567-.76-.11559-.44074.0714-.6928.35096-.28008.31341-.20537.77455Zm.10202-.0165q-.0535-.33055.20644-.56113.23474-.20555.63466-.27034.39177-.0635.67531.0581.32358.13604.37713.46659.0542.33463-.20985.56588-.23132.20081-.62308.26428-.39993.0648-.68689-.052-.3195-.1367-.37372-.47134Z" fill="#ccc" stroke-width="0.264583"/><path d="M110.17129,104.62489l-.10055-.81236-.10667.0132q.0203.16411-.0218.22764t-.16521.0788l-1.07904.13356q-.1972-.17971-.27863-.26545-.0963-.10472-.1582-.20119-.0404-.0575-.0301-.10875.00055-.0292.036-.0794.0237-.0446.0329-.0707.019-.0482.0124-.10151-.0107-.0862-.0803-.14419-.0697-.058-.13942-.0494-.078.01-.13137.0829-.0534.0733-.0427.15942.0213.17232.20208.38739.10752.12832.36517.35887l.0605.0508-.51696.064.26706.50848.0626-.0327q-.0193-.15591.0151-.21432.0308-.0538.14571-.068l1.28829-.15946q.11898-.0147.18196.0566.0579.0637.0746.19905Z" fill="#ccc" stroke-width="0.264583"/><path d="M109.94417,102.7119l-.0803-.83122-.10699.0103q.0155.16048-.0394.2364-.0554.0718-.19115.0849l-2.70351.26133.2467.5327.056-.022q-.0151-.15637.0279-.22698.0393-.0661.14217-.076l2.25498-.21797q.1358-.0131.20388.0468t.0828.21213Z" fill="#ccc" stroke-width="0.264583"/><path d="M109.74203,99.92512q-.0274-.168078-.0421-.266555-.0155-.110855-.0341-.271215l-.0908.0059q.01.148517-.0563.219063-.0617.07028-.19788.07909l-2.68982.174038.24552.593099.0605-.0246q-.0125-.1939.02-.26643.0367-.0728.14398-.0798l.80447-.052q-.10445.11447-.15061.23346-.06.1613-.045.39233.0283.4373.37382.65523.30239.19171.74795.16288.42905-.0278.71194-.26563.31429-.26476.28679-.68968-.0141-.21865-.0991-.37887-.0704-.12801-.17092-.208505Zm-1.6796.10039l1.34491-.08702.0222.02342q.10435.0761.15067.151822.0872.13107.10027.33322.0224.34654-.25022.5506-.23299.17664-.61666.20147t-.64574-.11979q-.29667-.16723-.31909-.51377-.0125-.1939.0413-.32166.0506-.11513.1723-.21829Z" fill="#ccc" stroke-width="0.264583"/><path d="M108.73383,98.564488q-.43838.0017-.7908-.02417-.20313-.01414-.48557-.05054-.17021-.01934-.24485-.0252-.12449-.01254-.23192-.0091-.219.0071-.32883.06436t-.10651.160607q.003.1033.11662.153423.11316.04599.33216.03894.10743-.0035.22686-.01971.0741-.01066.23859-.04077.27964-.05037.48557-.07768.35002-.0485.79161-.07926Zm.53449.02829q-.003-.09503.0611-.159143.0602-.05571.14702-.05851t.14635.04906q.0721.05559.0753.154753.003.09504-.0655.151013-.0604.05158-.14302.05424-.0868.0028-.15035-.04479-.068-.05572-.0709-.146623Z" fill="#ccc" stroke-width="0.264583"/><path d="M107.60579,95.680637q-.004.248011.15454.391318.14247.130623.35741.134314.20668.0035.35355-.122105.16362-.137771.16788-.385781.004-.243877-.15454-.391318-.14247-.130623-.34914-.134172-.21495-.0037-.36182.121963-.16369.141905-.16788.385781Zm.15707.0027q.003-.169474.11622-.266762.10077-.08923.24957-.08668.14468.0025.24645.0952.1099.101121.10699.270595-.003.173607-.11629.270894-.10482.08503-.2495.08255-.1488-.0026-.24652-.09106-.1099-.101121-.10692-.274728Z" fill="#ccc" stroke-width="0.264583"/><path d="M109.37209,92.782509l-1.27376-.09689q-.12058-.104531-.16919-.228465-.0445-.12362-.0307-.304997.026-.342143.3122-.506947.25163-.146702.62263-.118482t.59342.210981q.25795.206194.23193.548337-.016.210232-.10878.339994-.056.0828-.17775.156468Zm.94445.610827l.0621-.816197-.10718-.0082q-.0107.140155-.0696.206156-.063.06569-.19083.05597l-.46993-.03575q.10646-.09141.16977-.21512.082-.151313.0989-.373912.0329-.432832-.26661-.691941-.25988-.235363-.68859-.267973-.43283-.03292-.72945.160109-.33116.211135-.36408.643967-.0169.222599.033.383946.0442.127743.14765.239264l-.22672-.01725.13649.54937.0634-.01591q.011-.144277.0569-.202974.0456-.05458.14867-.04674l1.87148.142355q.13191.01003.18048.08007.0489.06591.037.222553Z" fill="#ccc" stroke-width="0.264583"/><path d="M109.91566,90.949934l.092-.813364-.10681-.01209q-.0186.164316-.0744.216249t-.17904.03799l-1.08038-.122249q-.14975-.22081-.2089-.323194-.0691-.124318-.10681-.232593-.0259-.06534-.004-.112772.007-.02829.0536-.06883.0334-.03782.0485-.06108.0298-.0424.0358-.0958.01-.08627-.0444-.158965-.0542-.0727-.12402-.0806-.0781-.0088-.1471.04992t-.0788.14502q-.0195.172532.10597.423881.0746.149895.27122.434258l.0469.06355-.5176-.05857.14086.556804.0685-.01721q.0177-.1561.0648-.204854.0426-.04511.15758-.0321l1.28988.145956q.11912.01348.1637.09757.0414.07541.026.210973Z" fill="#ccc" stroke-width="0.264583"/><path d="M107.10906,88.186606q-.0155.110543.042.177031.0499.06125.13994.07385.0819.01146.14665-.03374.0735-.04815.089-.158693.0143-.102356-.0426-.172937-.0493-.06534-.13118-.0768-.0901-.01261-.15542.03669-.0741.05224-.0884.1546Zm3.03383.842071l-.10645-.0149q.0212-.151485-.0112-.218629-.0318-.07124-.1546-.08843l-1.28148-.179364q-.0942-.01318-.14666.03374-.0583.05863-.0812.222398l-.0631.0037-.11621-.571462l1.72366.241252q.12282.01719.17179-.0344t.0725-.21945l.10645.0149Z" fill="#ccc" stroke-width="0.264583"/><path d="M110.29865,87.881549l.13861-.806733-.10593-.0182q-.0259.150753-.0941.206142-.0642.05609-.19862.03299l-1.1775-.202322q-.12473-.201802-.16949-.356308-.0555-.189901-.0219-.385472t.15832-.262232q.10701-.06131.30258-.02771l1.08787.18692q.13445.0231.17622.09739.0458.07499.0199.225744l.10593.0182.13862-.806732-.10594-.0182q-.0259.150753-.0934.202068-.0642.05609-.19863.03299l-1.07564-.18482q-.28113-.0483-.45976.06362t-.22204.364541q-.0378.220018.0406.447415.0442.133433.17356.357007l.0169.02387-.37077-.06371.0727.553602.0673-.001q.0273-.158902.0812-.204169t.18837-.02216l1.22233.210022q.13445.0231.17692.09332.0465.07092.0199.225745Z" fill="#ccc" stroke-width="0.264583"/><path d="M108.87673,85.127725l.0661-.319838l1.43724.297007q.23482.04852.38375-.0389.13595-.08589.17123-.277005.0318-.153846-.0265-.300969-.0647-.156895-.22594-.295758l-.0424.04189q.0788.109148.11299.209093.0439.114601.0254.203669-.0276.133603-.10256.189879t-.18831.03285l-1.49392-.308719.11545-.558703-.12145-.0251-.11546.558703-.68421-.141392-.0176.08502q.34888.08898.50108.2513.14494.156596.12001.379402Z" fill="#ccc" stroke-width="0.264583"/><path d="M108.07283,82.034732l-.0724-.01699q.17819.598065.59579.972028.39414.34723.98982.486955.60373.141613,1.11116.0059.53938-.145245.95782-.60761l-.0684-.01605q-.40174.300675-.87866.396876-.51289.104749-1.0643-.02459-.54739-.128396-.96423-.451228-.39862-.310062-.60652-.745244Z" fill="#ccc" stroke-width="0.264583"/><path d="M109.84188,80.895023l-.88333-.362464q-.13269-.048-.21415-.03111-.0865.01983-.11088.111744-.0265.0999.0399.155995.0624.05503.20356.07107l.94688.122698Zm-.17479.659356l-.88332-.362464q-.12764-.05094-.21416-.03111t-.11088.111744q-.0265.0999.0399.155994.0624.05503.20356.07107l.94689.122698Z" fill="#ccc" stroke-width="0.264583"/><path d="M111.85216,80.71755l.28887-.927579-.10263-.03196q-.059.189462-.14156.24602-.0813.05261-.22343.0084l-1.09336-.340493.49169-1.578857l1.09335.340494q.13815.04302.17426.149527.0346.09738-.0182.267108l.10263.03196.28763-.923631-.10262-.03196q-.0578.185516-.14034.242073-.0877.05928-.22589.01625l-2.21434-.689592q-.12236-.03811-.15304-.134257-.0346-.09738.0219-.27895l-.0987-.03073-.28763.923631.0987.03073q.0516-.16578.13664-.230231.0823-.06963.20467-.03152l1.02231.318368-.49169,1.578856-1.02231-.318367q-.12236-.03811-.15427-.130311-.0346-.09738.0219-.278949l-.0987-.03073-.28887.927578.0987.03073q.059-.189463.14279-.249968.0722-.05112.19852-.01179l2.21435.689591q.14209.04425.17795.137686.0371.08949-.0219.27895Z" fill="#ccc" stroke-width="0.264583"/><path d="M113.03652,75.651634q.13491.220973.16282.433646.0304.217975-.0548.450948-.11638.318397-.39171.433441-.31633.130871-.79781-.04511l.55065-1.506559q-.43877-.160369-.77242-.01823-.32447.141101-.46781.533272-.14902.407703.0446.768993.19016.346804.61339.501496.45042.164627.82223.01442.36935-.155508.52263-.574859.11353-.310631.0546-.583046-.0473-.21977-.21471-.448213Zm-.73852-.01464l-.45556,1.246406q-.30107-.127648-.44121-.394545-.13379-.260177-.0401-.516447.0993-.271802.32554-.36079.23538-.09003.61135.02538Z" fill="#ccc" stroke-width="0.264583"/><path d="M113.69395,75.319938l.3112-.77494-.0998-.04006q-.0601.149617-.14381.191726-.0822.03827-.2088-.01257l-2.52047-1.012167-.0261.586477.0599.0062q.0585-.145781.12923-.188675.0653-.0406.16121-.0021l2.10232.844243q.12659.05084.15949.135329t-.0241.226435Z" fill="#ccc" stroke-width="0.264583"/><path d="M114.16008,74.170716l.32757-.768163-.0989-.04216q-.0632.148309-.14785.188632-.083.03652-.20848-.01699l-2.49843-1.065416-.0386.58579.0597.0075q.0616-.144506.13321-.185891.0662-.0392.16122.0013l2.08393.888658q.12549.05351.15659.138683t-.0289.225872Z" fill="#ccc" stroke-width="0.264583"/><path d="M113.20681,71.244305q-.19855.427424-.0121.801224.16867.333621.57359.521722.39743.184618.76117.09831.40592-.09861.60447-.526039.19681-.423674.0121-.801223-.16693-.337371-.56435-.521989-.40493-.188101-.77041-.09805-.40766.102364-.60447.526038Zm.0937.04354q.14108-.303695.48565-.348756.30963-.03851.67706.132179.35994.167201.52648.426899.19157.294121.0505.597817-.14282.307444-.49115.350763-.30413.0365-.66406-.130703-.36744-.170684-.53947-.428375-.18783-.292379-.045-.599824Z" fill="#ccc" stroke-width="0.264583"/><path d="M114.53777,68.573076l.0938.05245q.0686-.122692.12771-.160684.0535-.0364.15306-.02811l1.42696.200895.51818.08126.0343-.06135-.97998-1.144552.98902.145539.50937.0716.0343-.06135-1.29359-1.447735q-.0528-.05796-.049-.14107.004-.09234.0789-.225861l-.0938-.05245-.34897.624287.0938.05245q.0827-.147953.15308-.189127.0607-.03237.11559.02199l.99293,1.104432-1.48915-.216718q-.0935-.01912-.0962-.08217.003-.06464.0958-.230636l-.0938-.05245-.40948.732545.0938.05245q.0686-.122693.1241-.162701.0583-.01952.15943-.0056l.25887.04525.80349.918022-1.49074-.222343q-.0939-.0099-.0926-.08015-.00063-.06666.0801-.211002l-.0938-.05245Z" fill="#ccc" stroke-width="0.264583"/><path d="M116.81381,64.598372q-.25051.399193-.11232.793403.12556.352118.50374.589449.37118.232936.74286.192864.41508-.047.66559-.446196.24832-.395692.11233-.793403-.12336-.35562-.49454-.588556-.37818-.237331-.75206-.193757-.41728.05051-.6656.446196Zm.0875.05494q.17799-.283637.5255-.28519.31201.000573.65518.215928.33616.210961.46887.489472.15323.315797-.0248.599434-.18019.287139-.5312.286494-.30631-.0019-.64248-.212837-.34316-.215356-.48157-.492563-.14973-.313599.0305-.600738Z" fill="#ccc" stroke-width="0.264583"/><path d="M119.30382,64.51626l.46069-.676605-.0889-.0605q-.0931.136688-.16665.156608t-.1761-.04988l-.89872-.611929q-.0295-.265165-.0341-.383315-.003-.142216.014-.255567.008-.06987.0492-.101571.0197-.02159.0795-.03592.0472-.01788.0714-.03141.0461-.02363.0763-.06805.0489-.07176.0348-.161337-.014-.08958-.0721-.129131-.0649-.04421-.15341-.02443t-.13735.09154q-.0977.143522-.10391.424391-.004.167373.0374.510626l.0118.07809-.43056-.293168-.13503.558246.0686.01672q.0884-.129853.15284-.15101.0587-.02007.15435.04508l1.073.730591q.0991.06748.0993.162649.001.08601-.0753.198781Z" fill="#ccc" stroke-width="0.264583"/><path d="M120.39588,62.929375l.4883-.67745-.0872-.06285q-.0943.130795-.18568.151548-.089.0174-.19966-.06237l-2.20338-1.588189-.1663.563012.0566.02043q.0919-.127441.17078-.152093.0731-.02371.15699.03672l1.83784,1.3247q.11067.07977.1223.169691t-.0778.214007Z" fill="#ccc" stroke-width="0.264583"/><path d="M122.08353,60.70255q.0903-.144373.14432-.228022.0616-.09347.1534-.226252l-.072-.0555q-.0908.117906-.18686.127422-.0928.01204-.20085-.07121l-2.13541-1.64482-.20708.607587.0617.02146q.11857-.153933.19093-.186906.0756-.03045.16079.03514l.63866.491932q-.15402.01704-.26723.07595-.15155.08157-.29282.26498-.26741.347168-.15171.738946.1006.343625.45432.616079.34062.262364.71013.270417.41086.0086.6707-.328759.1337-.173584.17566-.35.0316-.142647.009-.269448Zm-1.32795-1.033301l1.0677.82241.001.03226q.0281.126049.013.213505-.021.156012-.14463.316496-.21191.275114-.55142.248428-.29162-.02111-.59622-.255723t-.40599-.516232q-.11246-.321451.0995-.596565.11857-.153933.24338-.214347.11396-.05311.27352-.05024Z" fill="#ccc" stroke-width="0.264583"/><path d="M122.22445,59.014976q-.3304-.288136-.57801-.540234-.14324-.144726-.33135-.358531-.11507-.126894-.16726-.180579-.0852-.0916-.16821-.159931-.16914-.139281-.28947-.168747t-.18603.05032-.0137.192226q.0546.109251.22377.248532.083.06833.18341.134963.0627.04092.20612.12689.24329.146786.416.262226.29492.194653.64691.463078Zm.38278.374109q.0604-.0734.15092-.07923.082-.0021.14906.05312t.0775.133465q.0175.08935-.0456.165947-.0604.0734-.14886.07021-.0794-.0011-.14323-.05368-.067-.05519-.0834-.132903-.0143-.08673.0435-.156936Z" fill="#ccc" stroke-width="0.264583"/><path d="M122.71816,56.930039l-.63308-.714738q-.0979-.101582-.17851-.122326-.0864-.02034-.14879.05142-.0678.078-.0329.157613.0317.0769.15138.153524l.79583.527545Zm-.44755.514782l-.63308-.714738q-.0921-.101989-.17851-.122326t-.14879.05142q-.0678.078-.0329.157612.0317.0769.15138.153525l.79583.527545Z" fill="#ccc" stroke-width="0.264583"/><path d="M122.18689,55.380901q.47408-.069.95438.08702.50391.160913.91729.542005.41642.383894.61465.870277.18793.448767.16721.946974l.0517.04764q.14519-.602738-.0372-1.130725-.1695-.499253-.62543-.919575-.44986-.414717-.96122-.543145-.54384-.135884-1.13609.0491Z" fill="#ccc" stroke-width="0.264583"/><path d="M125.70083,53.597724q-.17739.173381-.16521.386932.009.193056.15975.346792.14449.147822.33727.161717.21322.01705.39061-.156329.17443-.170492.16521-.386933-.009-.193056-.15398-.340878-.15026-.153736-.34305-.167631-.21617-.01416-.3906.15633Zm.1098.112345q.12122-.118478.27019-.108006.1344.0074.23843.113813.10114.103476.10834.24096.007.149177-.11415.267655-.12417.121367-.27315.110895-.13432-.01323-.23546-.116703-.10403-.106432-.1113-.23807-.007-.149177.1171-.270544Z" fill="#ccc" stroke-width="0.264583"/><path d="M128.40998,52.758395l-.0386.08806.74973.411986q.018-.08662.0589-.165719.0413-.08493.0945-.130897.0156-.01352.0555-.03701.0273-.01267.094-.04301.13336-.06066.20942-.09911.13421-.07233.23116-.156151.32835-.28392.38974-.6048.0729-.358148-.20563-.680248-.24336-.281446-.61808-.247091-.28015.02363-.7482.253451-.38801.177008-.62109.198195-.31869.02963-.51608-.198655-.2001-.231412-.15004-.476909.0448-.213638.26059-.400215.26268-.227136.61366-.257353.3039-.02777.68156.09929l.023-.07454-.71247-.400488-.10228.197744q-.02.03372-.0661.06261-.0304.01538-.11232.0534-.1119.04757-.17588.08103-.11004.06236-.20385.143477-.3565.308256-.37606.65855-.0118.283448.19102.517986.24066.27832.62933.253769.27702-.02093.70399-.209764.49137-.228126.71237-.244328.26224-.01907.45963.209213.22713.262683.17226.53421-.0465.236963-.30919.464099-.30647.264992-.70992.2914-.29452.01966-.6645-.09219Z" fill="#ccc" stroke-width="0.264583"/><path d="M129.59962,50.110285l.0666.08434q.11677-.09227.18918-.107329.0511-.0087.12126.0201l1.30537.665142.29859.164504.0607.210203q.0493.18237.0551.283127.01.118858-.0358.154741-.0487.03845-.0977.02976-.0323-.00084-.0876-.03087-.0644-.02815-.096-.0348-.0555-.0036-.1074.03745-.0778.06151-.0816.143489-.006.07873.0501.150093.0538.06812.1416.07252.0722.01141.21497-.101363.15057-.129514.20227-.244129.0448-.156623-.0342-.436666l-.50014-1.85991q-.0537-.194665-.0208-.299708.0309-.08762.16387-.192708l-.0666-.08434-.57414.453661.0666.08434q.13624-.107648.20336-.102724t.102.109084l.35681,1.325092-1.27446-.652688q-.0856-.04829-.0711-.09663.0119-.05158.14817-.159229l-.0666-.08434Z" fill="#ccc" stroke-width="0.264583"/><path d="M132.59309,49.578821l-.0289.05166.58224.379206.0991-.158933q.0271-.04011.0787-.06745.035-.01519.11734-.04951.0906-.03006.14226-.0574.0857-.03675.16264-.09265.23075-.167706.30772-.392297.0882-.258327-.0673-.472354-.14826-.203995-.38867-.218357-.22887-.01253-.6669.137173-.32496.108405-.46234.116264-.17964.01301-.26228-.100689-.10208-.140455-.061-.287856.0435-.144057.20738-.263152.21737-.157983.54471-.150584.24711.0095.43188.09497l.0374-.06807-.55125-.350625-.0833.152555q-.0161.02705-.0544.04466-.0258.01367-.0891.03918-.0848.03098-.13557.05254-.0866.04253-.16356.09843-.24078.174996-.31349.391383-.0627.209095.0564.37296.12881.177241.3361.19524.23616.02257.70824-.136552.32586-.11418.48878-.11504t.25041.11953q.1191.163865.0759.343483-.0399.177188-.21377.303575-.25416.184718-.5733.181578-.21337.0018-.51212-.09287Z" fill="#ccc" stroke-width="0.264583"/><path d="M133.52198,47.337922l.27016-.183516.82466,1.214009q.13473.198346.3025.239314.15737.03303.31578-.07957.12995-.08827.1906-.234423.0628-.157636.0438-.369599l-.0596.000518q-.0195.13318-.0645.228742-.0483.11279-.12356.163896-.11285.07666-.20583.06485t-.15803-.107558l-.85718-1.261886.47193-.320571-.0697-.102593-.47193.320572-.39258-.577937-.0718.04878q.18842.306809.18461.529291-.005.213318-.17807.355858Z" fill="#ccc" stroke-width="0.264583"/><path d="M137.23611,46.575859q-.0282.25736-.13608.442767-.10915.191109-.3189.323505-.28667.180942-.57493.103779-.33037-.08968-.60399-.523185l1.35643-.856161q-.24934-.395045-.60032-.486391-.34307-.08656-.69617.136306-.36707.231693-.43452.63603-.0614.390726.17915.771787.25597.405533.64208.513813.3874.102579.76497-.135734.27967-.176528.39951-.42816.0968-.202886.10389-.486008Zm-.57569-.462836l-1.1222.708319q-.16034-.285008-.10819-.581914.0531-.287708.28379-.433343.24472-.154462.47815-.0867.24135.07255.46845.393635Z" fill="#ccc" stroke-width="0.264583"/><path d="M137.917,46.715892l.73872-.415366-.0506-.09009q-.13694.07699-.22656.06099-.086-.01803-.14681-.126138l-.58354-1.03782q.0575-.226766.13113-.348812.0924-.156272.25812-.249476.13333-.07497.27205-.03914.13511.03786.204.160378l.57949,1.030613q.0608.108106.0315.190975t-.15902.15581l.0507.09009.7135-.401182-.0507-.09009q-.12612.07092-.21575.05491-.0916-.01961-.15041-.124111l-.59569-1.059442q.064-.206722.14486-.33282.0996-.160325.2401-.239346.15495-.08713.29772-.04409.13512.03786.20603.163981l.57544,1.023406q.0608.108106.0279.193001-.0293.08287-.15542.153784l.0507.09009.72791-.409287-.0506-.09009q-.12973.07294-.22656.06099-.0953-.01758-.15402-.122084l-.60785-1.081064q-.0912-.162159-.27335-.216238-.19547-.06084-.38285.04452-.18378.103335-.31083.307569-.10317.162351-.16987.389566-.12676-.132665-.30354-.151838-.15989-.01444-.29682.06256-.1982.111439-.32638.330536-.0748.136908-.15027.373805l-.18641-.331526-.3998.419253.0509.05676q.13693-.077.20764-.06933.0836.0052.15244.127715l.60785,1.081063q.0608.108106.0279.193001-.0365.08692-.17343.163915Z" fill="#ccc" stroke-width="0.264583"/><path d="M141.2566,44.405878q-.0994.0507-.12645.143351-.0178.08334.0291.175417t.12486.1266q.0946.03994.19405-.01076.10313-.05257.1227-.150717.0215-.08522-.0254-.177295t-.12854-.124722q-.0872-.03445-.1903.01812Z" fill="#ccc" stroke-width="0.264583"/><path d="M142.23059,42.114384q-.42643.200665-.52304.60707-.0845.364159.10561.768151.18658.39651.52103.563525.37472.184618.80115-.01605.4227-.198905.52304-.607071.0883-.365919-.0983-.762429-.1901-.403991-.52829-.569246-.37846-.182858-.80116.01605Zm.044.09352q.30299-.142577.5963.0438.26228.168994.43478.535579.16898.359103.13025.665173-.0416.348537-.34459.491115-.30674.144338-.6018-.04578-.25678-.167013-.42576-.526117-.1725-.366584-.13927-.674635.0434-.344797.35009-.489135Z" fill="#ccc" stroke-width="0.264583"/><path d="M143.66347,41.624154l.0409.05456q.13719-.0577.20657-.04203.071.01948.11425.12237l.4584,1.089882q.0962.228647.28624.296703t.43397-.03452q.20197-.08495.36348-.287423.11878-.144137.19264-.309749l.11059.262943q.14221-.07775.23046-.123839.0997-.0509.24891-.122629l-.0353-.08384q-.13719.0577-.22922.02016-.0866-.03533-.13951-.161083l-.64752-1.539554-.43068.351568.0409.05456q.13718-.0577.21037-.04363.0656.01727.10564.112541l.49205,1.169909q-.0869.166609-.18099.273457-.1302.148945-.32074.229084-.20578.08655-.31626.0478t-.18261-.210231l-.62187-1.478581Z" fill="#ccc" stroke-width="0.264583"/><path d="M145.91695,40.708582l.30514-.116407.5231,1.371224q.0855.224031.23929.302514.14555.06837.32562-.0047.14678-.05599.23944-.18426.0974-.138939.12769-.349593l-.0581-.01322q-.0496.125119-.11543.20775-.073.09864-.15797.131056-.12746.04863-.21523.01574t-.12902-.141042l-.54373-1.4253.53304-.203343-.0442-.115878-.53304.203343-.24902-.65278-.0811.03094q.11275.341941.0578.557574-.054.206434-.2552.305316Z" fill="#ccc" stroke-width="0.264583"/><path d="M148.31248,41.36973q-.10521.03729-.14407.125632-.0286.0803.006.177714t.10728.141805q.0886.05194.1938.01465.1091-.03867.14131-.133424.0325-.08168-.002-.179096t-.11118-.140424q-.0819-.04552-.19103-.0069Z" fill="#ccc" stroke-width="0.264583"/><path d="M149.59007,40.965656l-.3884-1.216965q.0516-.151.14823-.242589.0979-.08765.27117-.142957.32688-.104327.58707.09904.23044.178149.34357.532605t.0272.629222q-.0943.316498-.42115.420825-.20086.0641-.35597.02682-.0978-.02087-.21175-.106001Zm-.21158,1.104681l.7798-.248877-.0327-.102398q-.1339.04274-.2172.0129-.0846-.03377-.12351-.15586l-.1433-.448977q.12469.06435.26312.07659.17103.01919.3837-.04869.41354-.13198.54124-.506883.12058-.329234-.0101-.738828-.13198-.413531-.42225-.615981-.32002-.227672-.73355-.09569-.21268.06788-.34348.174716-.10181.08891-.16633.226668l-.0691-.216612-.45794.332755.0385.05279q.13784-.04399.20949-.02346.0677.02179.0991.120246l.57065,1.788033q.0402.126028-.006.197339-.0427.07005-.19239.117817Z" fill="#ccc" stroke-width="0.264583"/><path d="M151.49268,40.781536l.7885-.219774-.0289-.10354q-.15929.0444-.22836.01215t-.10238-.151718l-.29192-1.04735q.14852-.221646.22124-.314874.0893-.110726.17555-.186263.0508-.04851.10308-.0459.029-.0038.0839.02383.0476.01678.0748.02206.0505.01168.10223-.0027.0836-.02331.1307-.100803t.0282-.145194q-.0211-.07566-.10146-.117639t-.16399-.01867q-.16726.04662-.35319.257232-.11098.12535-.30081.414306l-.0413.06731-.13985-.501772-.46332.339429.0417.05706q.15133-.04218.2142-.01678.0578.02252.0889.134026l.34853,1.250448q.0322.115488-.029.188347-.0544.06666-.1858.103286Z" fill="#ccc" stroke-width="0.264583"/><path d="M153.00256,37.143327q-.10829.02709-.14838.105303-.0381.06919-.016.157422.0201.08021.0863.123315.0722.05012.18048.02303.10026-.02508.14437-.1043.0421-.07019.022-.150404-.0221-.08823-.0923-.130333-.0762-.04912-.17647-.02404Zm.35642,3.128276l-.0261-.104274q.14839-.03712.19851-.09228.0541-.05616.024-.176473l-.31403-1.255295q-.0231-.09224-.0863-.123315-.0762-.03207-.23663.0081l-.0271-.05715.48625-.321931.42238,1.688431q.0301.120316.0963.146376t.23061-.01508l.0261.104274Z" fill="#ccc" stroke-width="0.264583"/><path d="M154.4809,39.985975l.79995-.173543-.0228-.105044q-.14948.03243-.2264-.01011-.076-.0385-.10496-.171823l-.2533-1.167599q.14042-.191213.26693-.290572.15532-.122532.34924-.164603t.30244.04861q.0969.07627.13899.270196l.23402,1.078716q.0289.133324-.0243.19987-.0524.07058-.20185.103015l.0228.105044.79994-.173543-.0228-.105044q-.14948.03243-.22235-.01098-.076-.0385-.10496-.171822l-.23139-1.066596q-.0605-.278769-.23115-.402494t-.42116-.06938q-.21817.04733-.39967.205154-.10718.09094-.26605.294613l-.0158.02458-.0798-.367652-.48612.274671.0262.06201q.15756-.03418.21973-.0011t.0911.166371l.26295,1.212041q.0289.133324-.0203.198993-.0483.06971-.20185.103015Z" fill="#ccc" stroke-width="0.264583"/><path d="M156.50285,37.636355l.32134-.05833.26211,1.444015q.0428.235923.17961.341347.1305.09396.32094.05519.15457-.02806.26923-.137104.12132-.118659.18978-.320162l-.0547-.02368q-.0718.113867-.15165.18299-.0899.08354-.17937.09978-.13423.02437-.21446-.0241t-.1009-.162357l-.27244-1.500962.56133-.10189-.0221-.12203-.56133.101891-.12478-.687433-.0854.0155q.048.356839-.0456.558704-.091.192991-.30698.2532Z" fill="#ccc" stroke-width="0.264583"/><path d="M158.39774,39.210788l.82499-.129468-.0167-.106187q-.15928.025-.23833-.02537-.075-.05101-.0961-.185783l-.42109-2.683273-.51715.277839.0253.05461q.1552-.02436.22824.0144.0683.03531.0843.137415l.35123,2.238102q.0212.134777-.0346.206293-.0557.07152-.20685.09523Z" fill="#ccc" stroke-width="0.264583"/><path d="M159.56511,39.022837l.81227-.101291-.0133-.106661q-.15179.01893-.22459-.03032-.0723-.04514-.0892-.180523l-.14784-1.185576q.15696-.177886.29184-.265531.16566-.108147.36257-.132702t.29688.07546q.0897.08463.11426.281547l.13659,1.095325q.0169.135377-.0421.196892-.0585.06562-.21026.08455l.0133.106661.81226-.101291-.0133-.106661q-.15179.01893-.22049-.03083-.0723-.04515-.0892-.180522l-.13505-1.083018q-.0353-.283062-.19422-.421557t-.41326-.106778q-.22153.02763-.41642.16858-.11489.08099-.29134.269634l-.018.02307-.0466-.373313-.50873.230086.0205.0641q.15999-.01995.21895.01852t.0758.173852l.15347,1.230702q.0169.135378-.038.196382-.0544.06511-.21027.08455Z" fill="#ccc" stroke-width="0.264583"/><path d="M162.91235,35.305461l-.007-.07412q-.51171.357182-.73542.871174-.20571.483321-.15107,1.092726.0554.617639.34378,1.056659.30746.466366.87793.718219l-.006-.07q-.41174-.286838-.653-.709331-.26069-.453957-.31127-1.018067-.0502-.559994.1252-1.057202.16902-.475881.51677-.810062Z" fill="#ccc" stroke-width="0.264583"/><path d="M164.55103,36.626827l.0667-.952472q.004-.141052-.0377-.213085-.046-.07591-.14092-.07017-.10316.0062-.13556.08689-.0327.07652-.004.21558l.18093.937501Zm-.68088.04117l.0667-.952471q.008-.137175-.0377-.213085-.046-.07591-.14091-.07017-.10317.0062-.13557.08689-.0326.07652-.004.21558l.18093.937502Z" fill="#ccc" stroke-width="0.264583"/><path d="M165.35098,38.479579l.97138-.01674-.002-.107471q-.1984.0034-.27801-.05723-.0755-.06072-.078-.209526l-.0197-1.14498l1.65341-.02849.0197,1.14498q.002.144672-.0873.212375-.0816.06343-.25934.06649l.002.107471.96724-.01667-.002-.107471q-.19428.0033-.27388-.0573-.0838-.06471-.0863-.209384l-.04-2.318894q-.002-.128138.0795-.187432.0816-.06343.27174-.0667l-.002-.103338-.96724.01667.002.103337q.17361-.003.26148.05751.0919.0563.0942.184441l.0184,1.070577-1.6534.02849-.0184-1.070577q-.002-.128138.0753-.187361.0816-.06343.27174-.0667l-.002-.103337-.97137.01674.002.103338q.1984-.0034.28214.05716.0712.05253.0735.184797l.04,2.318894q.003.148806-.0749.212162-.0733.06329-.27174.0667Z" fill="#ccc" stroke-width="0.264583"/><path d="M170.53283,38.015533q-.16755.197376-.36076.290536-.19747.09716-.44539.08933-.33883-.01071-.53438-.236111-.22342-.25937-.20723-.771744l1.60324.05068q.0148-.466922-.2248-.73921-.2357-.263894-.65303-.277087-.43387-.01371-.71625.283435-.26972.289278-.28396.739672-.0152.479318.24402.785316.26345.301997.70971.316104.33056.01045.57079-.130858.19386-.113821.35833-.344384Zm-.21758-.705893l-1.32639-.04193q.0269-.32591.23637-.54264.20513-.208597.47785-.199975.28924.0091.44465.196048.15927.195299.16752.588497Z" fill="#ccc" stroke-width="0.264583"/><path d="M171.05387,38.535951l.83342.05272.007-.107273q-.16091-.01018-.22714-.0765-.0621-.06606-.0535-.202218l.17148-2.710694-.56513.15894.0129.05881q.15678.0099.21966.0636.059.0493.0525.152446l-.14303,2.260975q-.009.136154-.0785.193866-.0699.05771-.22259.04805Z" fill="#ccc" stroke-width="0.264583"/><path d="M172.29127,38.618548l.83211.07043.009-.107104q-.16066-.0136-.22546-.08132-.0607-.06737-.0492-.203309l.22908-2.706436-.56839.14689.0116.05907q.15653.01325.21826.06826.058.05054.0492.153527l-.19107,2.257423q-.0115.13594-.0827.192152-.0711.05621-.22356.04331Z" fill="#ccc" stroke-width="0.264583"/><path d="M174.77174,36.796493q-.46811-.05465-.76467.239535-.26399.264694-.31577.708166-.0508.435259.14509.753649.22082.354594.68893.409248.464.05417.76468-.239534.26809-.264215.31891-.699475.0518-.443472-.14824-.76234-.22493-.355075-.68893-.409249Zm-.012.102656q.3326.03883.48334.351948.13357.281975.0866.684385-.046.394197-.24047.633712-.2193.274074-.5519.235242-.33671-.03931-.48698-.356535-.12994-.277389-.0839-.671586.047-.40241.23781-.646511.21882-.269968.55553-.230655Z" fill="#ccc" stroke-width="0.264583"/><path d="M177.7249,37.223508l-.0204.105536q.13801.02666.19262.07089.0513.03939.0747.13653l.25664,1.417991.0853.517528.069.01333.77958-1.289423.17189.984781.0917.506135.069.01333.96914-1.682281q.0385-.06836.11859-.09078.089-.02491.23921.0041l.0204-.105537-.70222-.135635-.0204.105536q.16642.03214.22758.08606.0498.04751.0154.116652l-.73742,1.289144-.26112-1.482013q-.0112-.09479.0479-.117069.0623-.01744.24903.01863l.0204-.105536-.82399-.159157-.0204.105537q.13801.02666.19341.06683.0368.04922.0553.149631l.0382.26001-.61981,1.050809-.25627-1.485289q-.0201-.0923.0471-.113009.0631-.0215.22547.0099l.0204-.105536Z" fill="#ccc" stroke-width="0.264583"/><path d="M182.21216,38.137902q-.45766-.11255-.78856.142397-.29491.229742-.40154.663307-.10465.425537.0501.765854.17491.379344.63257.491893.45364.111562.78856-.142397.29892-.228755.40357-.654291.10663-.433566-.0521-.77487-.17893-.380331-.63257-.491893Zm-.0247.100362q.32517.07997.43573.409426.0974.296419.00064.68984-.0948.385392-.31756.598814-.25174.244616-.57691.164647-.32919-.08096-.43876-.414428-.0944-.291417.00041-.676809.0968-.393421.31651-.611845.25075-.240602.57994-.159645Z" fill="#ccc" stroke-width="0.264583"/><path d="M183.07171,40.476189l.7871.224738.0295-.103356q-.15901-.0454-.20104-.108995t-.008-.182851l.29852-1.04549q.24245-.111343.35318-.152816.13401-.04772.24701-.06705.0687-.01478.11187.01474.0267.01192.0591.06416.0318.03918.0522.05791.0369.03634.0886.05109.0835.02383.16411-.01763t.0999-.109047q.0216-.07553-.025-.153319t-.13006-.101625q-.16696-.04767-.43554.03471-.16013.04886-.473.195995l-.0704.03579.14302-.500881-.5724.04723.006.07041q.15106.04313.19139.09764.0375.0494.006.160705l-.3564,1.248227q-.0329.115282-.1232.145395-.0812.02841-.21239-.009Z" fill="#ccc" stroke-width="0.264583"/><path d="M184.92144,41.014179l.79665.250452.0322-.102539q-.1538-.04836-.20225-.12859-.0445-.07899-.004-.20914l.81459-2.591085-.58674.01922-.002.06017q.14987.04711.19809.114278.0455.06198.0145.160575l-.67944,2.161209q-.0409.130146-.12262.169465t-.22762-.0066Z" fill="#ccc" stroke-width="0.264583"/><path d="M187.56625,41.915308q.16548.04028.26187.06519.10811.029.26305.07436l.03-.08586q-.14051-.04907-.17978-.137234-.0406-.08426.004-.213053l.88877-2.544697-.64188-.0052-.00094.06536q.18344.06407.23752.122368.0527.0622.0173.163678l-.26582.761068q-.0647-.140821-.15623-.229727-.12513-.118149-.3437-.194486-.41371-.144494-.74913.08868-.29447.203682-.44169.625197-.14177.405902-.0331.759159.12122.392659.52322.533064.20685.07225.38751.05652.14534-.01492.25865-.07606Zm.56261-1.585758l-.44439,1.272348-.0302.01134q-.11077.06641-.19856.07954-.1547.02917-.34594-.03762-.32784-.114505-.40942-.445148-.0718-.283435.055-.646406t.36214-.547885q.26969-.207959.59753-.09345.18344.06407.28008.163507.0863.09145.1338.243789Z" fill="#ccc" stroke-width="0.264583"/><path d="M189.21221,41.517221q.16928-.404386.33047-.718847.0922-.181558.2358-.427472.0841-.149213.11864-.215665.0601-.109761.0987-.210045.0789-.204425.0689-.327909t-.1064-.160681-.18674.0476q-.0865.08629-.16532.290712-.0387.100284-.0703.216603-.0191.0724-.0554.235614-.0626.27716-.11772.477454-.0917.341243-.23553.759902Zm-.23437.481197q.0887.03422.12276.118253.0278.0772-.003.158198-.0312.081-.10222.115655-.0793.04474-.17186.009-.0887-.03422-.11356-.119135-.024-.07571.006-.152853.0312-.081.0999-.121.0778-.04088.16266-.0081Z" fill="#ccc" stroke-width="0.264583"/><path d="M191.34605,41.327916l.47845-.826273q.0655-.124989.0598-.207988-.008-.08841-.0957-.124961-.0954-.03973-.15996.01847-.063.05439-.0979.192095l-.24947.921634Zm-.62971-.262244l.47846-.826273q.0677-.119583.0598-.207988-.008-.08841-.0957-.124961-.0954-.03973-.15995.01847-.063.05439-.0979.192095l-.24948.921635Z" fill="#ccc" stroke-width="0.264583"/><path d="M192.64734,40.334388q.21521.428014.21889.933006.006.528933-.22452,1.041522-.23271.516358-.63158.858073-.36643.320056-.84568.457769l-.0289.06407q.61774-.05262,1.06109-.392428.42016-.318517.67495-.883873.25139-.557818.21172-1.083565-.0428-.558924-.40543-1.062421Z" fill="#ccc" stroke-width="0.264583"/><path d="M195.4486,43.103996q-.2206-.113428-.41933-.03432-.18014.07007-.27844.261256-.0945.183828-.0467.371112.0513.207661.27187.321089.21692.111537.41933.03432.18014-.07007.27466-.253902.0983-.191181.0505-.378465-.055-.209552-.27187-.321089Zm-.0718.139709q.15074.07751.18793.222147.0355.129827-.0325.262183-.0662.12868-.19431.179004-.13928.0539-.29002-.02361-.15442-.0794-.19161-.224038-.03-.131613.0362-.260293.0681-.132356.19063-.180893.13928-.0539.2937.0255Z" fill="#ccc" stroke-width="0.264583"/><path d="M197.05639,45.601354l-.0589-.0059-.11531.685203.18529.02747q.0476.0088.0933.04528.0279.02599.0922.08783.0637.07106.10941.107533.0679.06393.14986.112147.24586.14464.48251.125577.27207-.02221.40623-.250254.12787-.217358.0451-.443529-.0798-.214851-.39194-.556736-.22909-.254683-.29113-.377516-.0836-.159516-.0124-.280666.0881-.149656.23959-.17082.14945-.0176.32405.08512.23161.136256.35548.439354.0899.230363.0853.433892l.0773.0071.10147-.645379-.17313-.01552q-.0312-.004-.0627-.03207-.0229-.01824-.0715-.06603-.0623-.0654-.10228-.103341-.0736-.06247-.15552-.11068-.25656-.150929-.48398-.131236-.21674.02598-.31945.200581-.11111.188852-.0449.386096.0736.225541.40787.594885.23475.253217.30056.402251t-.01.277311q-.10272.174598-.28466.20666-.17838.03416-.36366-.07485-.27081-.159314-.39531-.453189-.0868-.19494-.11924-.506628Z" fill="#ccc" stroke-width="0.264583"/><path d="M199.48218,45.558949l.27605.174532-.78429,1.240472q-.12814.202668-.0988.372851.0325.15749.19893.257831.13278.08395.291.08127.16961-.0053.35639-.107265l-.0243-.05447q-.1299.03526-.23549.03208-.12271.000677-.19958-.04793-.11531-.0729-.14158-.162877t.0356-.187812l.81522-1.289392.48221.304879.0663-.104829-.48221-.304879.37336-.590534-.0734-.04639q-.20618.295166-.41171.380427-.19762.08048-.39736-.02135Z" fill="#ccc" stroke-width="0.264583"/><path d="M201.08896,48.886418q.1494.08175.23606.130771.0969.056.23482.139933l.0512-.07517q-.12301-.08378-.13811-.179104-.0174-.09191.0594-.204661l1.51738-2.227772-.61863-.171268-.0178.06289q.16059.109382.19773.179697.0348.07373-.0257.162569l-.45382.666282q-.026-.152764-.0914-.262346-.0903-.146522-.28162-.276849-.36218-.246691-.74654-.108326-.33717.120487-.58851.489504-.24204.35535-.22851.724707.0154.410656.36735.650364.18109.123346.35965.154934.14425.02322.26953-.0065Zm.95403-1.385995l-.75869,1.113886-.0321.0031q-.1242.03546-.21239.02541-.15697-.01188-.3244-.125916-.28701-.195491-.28019-.535979.004-.292356.22049-.610121t.49166-.435428q.31434-.131034.60135.06446.16059.109382.22819.230452.0597.110672.0661.270121Z" fill="#ccc" stroke-width="0.264583"/><path d="M203.75981,47.584816q-.0868-.06343-.18075-.03995-.0824.02169-.13853.09845-.0537.07343-.0493.158541.006.09667.0929.1601.0834.06099.17741.03751.0858-.01925.13943-.09267.0561-.07676.0484-.164318-.006-.09667-.0896-.157661Zm-.98804,1.351706q-.0868-.06343-.17831-.04328-.0824.02168-.13854.09845-.0537.07343-.0517.161879.006.09667.0929.1601.0834.06099.17742.03751.0882-.02258.14187-.09601.0561-.07676.0484-.164319-.009-.09333-.092-.154323Z" fill="#ccc" stroke-width="0.264583"/><path d="M204.94154,48.470963q-.0852-.06553-.17972-.04435-.0829.01967-.1409.09504-.0555.07209-.0532.157289.004.09679.089.162323.0819.06301.17644.04183.0862-.01714.14166-.08924.058-.07537.0524-.163087-.004-.09679-.0857-.159802Zm-1.02078,1.32716q-.0852-.06553-.1772-.04763-.0829.01967-.1409.09504-.0554.07209-.0557.160566.004.09679.089.162323.0819.06301.17645.04183.0887-.02042.14417-.09251.058-.07537.0524-.163087-.006-.09351-.0882-.156525Z" fill="#ccc" stroke-width="0.264583"/><path d="M205.80057,51.886515l-.0269-.06492q-.28865.05177-.47735.01445-.16749-.03059-.32081-.156559-.26833-.220445-.25575-.541837.0111-.306561.2709-.622799.27293-.33221.58521-.412733.29276-.0698.49719.09816.13097.107598.16565.221691.0266.09139-.003.238221l-.0196.06948q-.0269.08488-.0261.122987.001.07039.0649.122881.0831.06823.17273.0242.0871-.04084.11582-.16702.0314-.129376-.0541-.311928-.0898-.196814-.26227-.338528-.32262-.265059-.74682-.217632-.44427.05233-.75919.435651-.25981.316238-.23531.716242.0219.403198.31894.647262.2236.183704.50107.197646.20651.0091.49493-.07492Z" fill="#ccc" stroke-width="0.264583"/><path d="M207.97858,51.686213q-.35149-.313954-.7633-.243877-.36819.06469-.66562.397682-.29192.326826-.31479.69996-.0233.417078.32817.731032.34841.311199.7633.243876.37128-.06193.6632-.388761.29743-.332992.31722-.708881.0202-.419832-.32818-.731031Zm-.0688.07708q.24975.223072.19296.565913-.0529.307488-.32281.609648-.26438.295993-.56121.380079-.33704.09807-.58678-.125006-.25283-.225826-.19329-.57175.0532-.30165.31764-.597644.26988-.30216.56639-.392083.33428-.09498.5871.130843Z" fill="#ccc" stroke-width="0.264583"/><path d="M208.99098,52.814032l-.0343.05896q.10672.103734.11941.173719.01.07295-.068.15299l-.82411.847829q-.17289.177867-.16126.379427t.20135.385976q.15712.152719.40661.222268.17909.05301.36039.05628l-.19882.204546q.12714.100521.20405.163748.0858.07187.21014.181202l.0634-.06522q-.10672-.103733-.10813-.203114-.001-.09353.0938-.191362l1.16412-1.197633-.49191-.259064-.0342.05896q.10672.103734.12237.176601.01.0671-.0623.141214l-.88462.910083q-.18731-.01488-.32243-.05974-.18799-.06165-.33621-.205726-.16008-.1556-.16758-.272436-.008-.116836.12216-.250235l1.11802-1.150203Z" fill="#ccc" stroke-width="0.264583"/><path d="M210.7144,54.530818l.22633.235449-1.05803,1.01708q-.17286.166171-.18503.338437-.006.16069.13154.297902.10887.113254.26314.148461.16596.03544.3717-.01898l-.0105-.05868q-.13455.0032-.23633-.02513-.11931-.02867-.18234-.09424-.0945-.09835-.0985-.191993t.0794-.173862l1.09976-1.057191.39537.411291.0894-.08595-.39537-.411291.50368-.484187-.0602-.06259q-.27075.237335-.49071.271004-.21112.03092-.38073-.115695Z" fill="#ccc" stroke-width="0.264583"/><path d="M215.00013,57.585486l-2.35304-.461774.0771,2.399256.21388.0025-.0873-2.16253l2.12087.431391Z" fill="#ccc" stroke-width="0.264583"/><path d="M216.7243,59.770345l-2.32956-.568467-.0323,2.400276.21354.01226.0113-2.164261l2.09901.527541Z" fill="#ccc" stroke-width="0.264583"/><path d="M217.71867,63.094478l.85239-.4302q.12318-.06884.16375-.141472.0417-.07838-.0118-.156977-.0582-.08544-.14403-.072-.0824.01112-.18701.107298l-.71282.635249Zm-.38384-.563885l.85239-.4302q.12208-.0631.16375-.141472t-.0118-.156977q-.0582-.08544-.14403-.072-.0824.01112-.18701.107298l-.71282.635249Z" fill="#ccc" stroke-width="0.264583"/><path d="M216.53612,64.729912l.51203.825633.0913-.05665q-.10458-.168639-.0933-.268076.0135-.09592.13996-.174361l.97319-.603544.87155,1.405332-.9732.603544q-.12296.07626-.22711.03383-.0963-.03758-.18997-.188657l-.0913.05665.50986.822119.0913-.05665q-.1024-.165126-.0911-.264562.0126-.105129.1356-.181389l1.97098-1.222338q.10891-.06755.20168-.02778.0963.03758.1965.199197l.0878-.05447-.50985-.822119-.0878.05447q.0915.14756.0846.254023-.001.107797-.11017.175342l-.90995.564324-.87154-1.405332.90995-.564324q.10891-.06754.1995-.0313.0963.03758.1965.199197l.0878-.05447-.51203-.825632-.0878.05447q.10458.16864.0955.271589-.009.08805-.12106.157776l-1.97098,1.222338q-.12648.07844-.22057.04437-.0919-.03056-.19651-.199197Z" fill="#ccc" stroke-width="0.264583"/><path d="M219.59124,68.941343q-.25538-.04254-.43448-.160576-.18472-.119641-.3052-.336462-.16466-.296322-.0715-.579818.10798-.324857.55608-.573854l.77912,1.402107q.40834-.226908.51914-.572244.10557-.337705-.0972-.702687-.21085-.379436-.61079-.469344-.38669-.08308-.78058.135794-.41919.232933-.54885.612401-.12404.381074.0928.771351.16064.289094.40519.422784.19717.107996.47945.130858Zm.49425-.548952L219.4409,67.2324q.29352-.144181.58705-.07555.2843.06904.41683.307542.14056.252957.0599.482244-.0859.236917-.41916.44575Z" fill="#ccc" stroke-width="0.264583"/><path d="M219.41211,69.655429l.38271.742234.0955-.04926q-.0739-.143303-.051-.234187.0248-.08721.14605-.149732l2.4141-1.244751-.42657-.403327-.0439.04122q.072.139628.0582.221154-.012.07596-.10386.123322l-2.01359,1.03824q-.12125.06252-.20668.03215t-.15553-.166325Z" fill="#ccc" stroke-width="0.264583"/><path d="M219.97669,70.759686l.36697.75014.0966-.04723q-.0709-.144829-.046-.23521.0266-.08667.14919-.146618l2.43981-1.193561-.41797-.412233-.0447.04029q.069.141116.0535.222333-.0136.07569-.10644.121104l-2.03503.995542q-.12255.05995-.20732.02778t-.15199-.169569Z" fill="#ccc" stroke-width="0.264583"/><path d="M222.81406,71.951733q-.19358-.429699-.59833-.533017-.36271-.09052-.76979.09287-.39955.179994-.57207.511636-.1908.371611.003.801309.19188.42593.59833.533017.36441.09429.76395-.08571.40708-.18339.57791-.518802.1891-.37538-.003-.801309Zm-.0942.04245q.13754.305312-.0537.595492-.17331.259447-.5427.425856-.36185.163014-.66724.11922-.3478-.04736-.48534-.35267-.13924-.309081.0557-.600959.17124-.25398.53309-.416993.36939-.16641.67685-.128083.34403.04906.48327.358137Z" fill="#ccc" stroke-width="0.264583"/><path d="M223.9651,74.705553l-.10103.03669q.048.13212.038.201696-.007.06428-.0788.13418l-1.08512.948202-.40033.33889.024.06606l1.50675.007-.75685.653076-.38727.338542.024.06606l1.94121-.03196q.0784-.0021.13878.05516.0671.06361.11929.207384l.10103-.03669-.24411-.672254-.10103.03669q.0579.15932.043.23949-.0152.0671-.0922.07307l-1.48487.02899l1.13776-.984911q.0756-.05824.12504-.01902.047.04452.11187.223274l.10103-.03669-.28644-.788829-.10103.03669q.048.13212.0419.200285-.0233.05685-.10002.124281l-.20352.166264-1.21996.0076l1.14306-.982435q.0689-.06461.12115-.01761.0508.04311.10729.198548l.10103-.03669Z" fill="#ccc" stroke-width="0.264583"/><path d="M225.48367,79.02706q-.13811-.450598-.52669-.603906-.34848-.13533-.77536-.0045-.41898.128418-.63177.435781-.23594.344722-.0978.795321.1369.446646.52669.603906.34969.139283.76867.01087.42688-.13084.63847-.442155.23472-.348676.0978-.795322Zm-.0988.03029q.0981.320162-.12798.584045-.20451.23564-.59187.354366-.37945.116303-.67693.03452-.3391-.09064-.43723-.410802-.0993-.324115.13073-.58921.20176-.230476.58122-.346779.38735-.118726.68757-.04211.33515.09185.43449.415967Z" fill="#ccc" stroke-width="0.264583"/><path d="M223.9171,80.964281l.21038.791057.10388-.02763q-.0425-.15981-.009-.228494.0331-.06868.15293-.100559l1.05075-.279443q.21986.151141.31222.224968.10965.09062.18416.177747.0479.05143.0447.103622.003.02903-.0248.0836-.0173.04739-.023.07455-.0123.05032.002.102261.0223.0839.0992.131886t.14485.02992q.0759-.02019.11884-.10005t.0206-.163761q-.0446-.1678-.25301-.356216-.12402-.112462-.4107-.305724l-.0668-.04212.5034-.133878-.33389-.467318-.0575.04097q.0404.151819.0142.214382-.0232.05751-.13507.08726l-1.25451.333631q-.11586.03081-.18798-.03128-.066-.05517-.10107-.187012Z" fill="#ccc" stroke-width="0.264583"/><path d="M224.40294,82.82842l.19289.812508.10458-.02483q-.0372-.15687.007-.239574.0451-.07868.17779-.110193l2.64266-.627379-.317-.494109-.0525.02946q.0363.152848.003.228664-.0299.07084-.13048.09471l-2.20423.523294q-.13273.03151-.20835-.01852t-.11094-.198859Z" fill="#ccc" stroke-width="0.264583"/><path d="M224.98289,85.56173q.0501.162773.078.258337.0304.107716.0707.264041l.0891-.01818q-.0297-.145825.0259-.224684.0516-.07803.18526-.1053l2.64105-.538757-.324-.554136-.0566.03265q.0388.190383.0164.266681-.0265.07713-.13178.09861l-.78988.161132q.0879-.127629.1174-.25179.0375-.167974-.009-.394813-.0876-.429373-.45957-.598208-.32569-.148743-.76317-.0595-.42127.08594-.66912.360117-.27531.305096-.1902.722318.0438.214686.14976.36184.0872.117228.19773.183287Zm1.65028-.328208l-1.32053.269378-.0252-.02017q-.11374-.06118-.16995-.129882-.10423-.117973-.14472-.316457-.0694-.340258.17291-.579555.20676-.206729.58347-.283576t.65604.03072q.31668.125266.38609.465524.0388.190382.003.324298-.0344.120937-.14096.239719Z" fill="#ccc" stroke-width="0.264583"/><path d="M226.16689,86.772483q.43408-.06134.78674-.08365.20317-.01363.48793-.01599.17126-.004.24601-.0083.12504-.0045.231-.02256.216-.03678.31701-.1085t.0837-.173604-.13641-.13613q-.11836-.03017-.33436.0066-.10597.01804-.22207.0504-.072.02064-.23083.07285-.27019.08795-.47049.143023-.34017.09567-.77346.186226Zm-.53336.0447q.016.09373-.0388.16597-.0521.06339-.13769.07797t-.15166-.02869q-.079-.04526-.0957-.14307-.016-.09374.0443-.158514.0528-.05932.13431-.0732.0856-.01457.15505.02392.0749.04595.0902.135613Z" fill="#ccc" stroke-width="0.264583"/><path d="M227.42058,88.510007l.95474-.01113q.1409-.0076.2093-.05496.0719-.05204.0585-.146164-.0146-.102314-.0976-.128037-.0789-.02631-.21516.01403l-.91965.25668Zm-.0965-.675272l.95474-.01113q.13739-.0029.2093-.05496t.0585-.146164q-.0146-.102313-.0976-.128037-.0789-.02631-.21516.01404l-.91965.25668Z" fill="#ccc" stroke-width="0.264583"/><path d="M228.26336,89.689197q-.0123-.106784-.0892-.160368-.0719-.04584-.16631-.03499-.0904.01038-.15405.0718-.0668.0701-.0546.176885.0118.102678.0928.15579.0764.04948.16678.03909.0945-.01085.15357-.0759.0627-.06963.051-.172306Zm-2.67093.07802l-.0477.05542q.16593.176517.3744.252436.22173.08272.4928.05157.0986-.01132.1572-.08048.0627-.06963.0519-.164092t-.0887-.156261q-.0728-.05406-.16314-.04367-.0986.01132-.15815.07227-.0518.05589-.0452.113391.008.06982-.022.09824t-.11042.01685q-.1183-.01554-.22852-.06945-.11892-.05708-.21239-.146212Z" fill="#ccc" stroke-width="0.264583"/><path d="M227.9777,92.757461q-.0159-.247537-.18578-.377484-.15261-.118629-.36714-.104863-.20628.01324-.34247.150397-.1519.150596-.13601.398133.0156.243413.18578.377485.1526.118629.35888.105392.21454-.01377.35073-.150926.15163-.154722.13601-.398134Zm-.15677.01006q.0109.169151-.0942.275314-.0932.09712-.24171.106648-.1444.0093-.25336-.07488-.11775-.09187-.1286-.261018-.0111-.173277.0939-.27944.0976-.09326.24198-.102522.14852-.0095.25309.07075.11775.09187.12887.265144Z" fill="#ccc" stroke-width="0.264583"/><path d="M226.45221,95.789509l1.27742-.0065q.12864.09443.18713.214019.0544.119613.0553.301511.002.343127-.27014.530557-.23893.16659-.61099.168495t-.60855-.162252q-.27381-.184636-.27556-.527763-.001-.210837.0809-.347684.0492-.08707.1645-.170343Zm-.9908-.53237l.004.818544.10748-.00055q-.00072-.140558.0527-.211112.0575-.07058.18568-.07123l.47128-.0024q-.0987.09972-.1518.228156-.0695.157454-.0683.380693.002.434077.32175.668088.27809.213554.70803.211353.43407-.0022.71409-.218633.31298-.23725.31076-.671326-.001-.223239-.064-.380016-.0544-.123747-.16652-.226527l.22737-.0012-.18052-.536518-.0619.02099q.00074.144692-.0403.206915-.0411.05809-.1444.05862l-1.87686.0096q-.13229.000677-.18638-.06519-.0541-.06174-.0549-.21883Z" fill="#ccc" stroke-width="0.264583"/><path d="M226.05872,97.660052l-.026.818142.10743.0034q.005-.165281.0567-.221554.0514-.05627.17539-.05233l1.08672.03453q.16711.207983.23434.305252.079.118322.12526.223198.0311.06303.013.11209-.005.02879-.0478.07293-.0302.0404-.0434.0648-.0262.04467-.0279.09838-.003.08677.0571.154854.0599.06808.13013.07031.0785.0025.14259-.06165t.0668-.150916q.006-.173545-.13989-.413928-.0864-.143377-.30543-.410916l-.0519-.05956.52064.01654-.1854-.543597-.0669.02269q-.005.157017-.048.20942-.0388.0484-.15446.04473l-1.29746-.04122q-.11982-.0038-.17105-.08402-.0473-.07182-.043-.208176Z" fill="#ccc" stroke-width="0.264583"/><path d="M229.0794,100.18772q.007-.11144-.0562-.17306-.0547-.05703-.14545-.06232-.0825-.0048-.14345.04547-.0694.05393-.0759.165366-.006.10317.0564.16893.0544.0611.13695.066.0908.005.15194-.0491.0696-.0581.0757-.16123Zm-3.09191-.59436l.10731.0063q-.009.152703.0288.217015.0374.06844.16123.07566l1.29179.07531q.0949.0055.14345-.04547.0534-.06315.063-.228231l.0626-.0088.16198.560213-1.73751-.10129q-.12382-.007-.16845.0482-.0446.0554-.0545.22458l-.1073-.006Z" fill="#ccc" stroke-width="0.264583"/><path d="M225.92487,100.74938l-.0731.81528.10706.01q.0137-.15235.0772-.21307.0594-.0611.19532-.0489l1.18998.10669q.1406.19108.19768.34147.0706.18481.0529.38246t-.13664.27414q-.10172.0697-.29937.052l-1.0994-.0986q-.13588-.0122-.1835-.0829-.0517-.071-.0381-.2234l-.10706-.01-.0731.81528.10706.01q.0137-.15235.0768-.20895.0594-.0611.19532-.0489l1.08704.0974q.28412.0255.45314-.10049t.1919-.38127q.0199-.22235-.0765-.44268-.0548-.12944-.20179-.34185l-.0187-.0224.3747.0336-.11708-.54593-.067.006q-.0144.16059-.0645.21006t-.18598.0373l-1.23528-.11074q-.13588-.0122-.18387-.0787-.0521-.0669-.0381-.2234Z" fill="#ccc" stroke-width="0.264583"/><path d="M227.56423,103.37967l-.0401.32412-1.4565-.18022q-.23797-.0294-.37937.0697-.12859.0966-.14834.2899-.0193.15591.0506.29786.0771.15118.24904.27659l.0389-.0452q-.0873-.10245-.12946-.19931-.053-.11069-.0418-.20096.0167-.13539.0869-.19752t.18505-.0479l1.51394.18733-.0701.56619.12309.0152.0701-.56619.69337.0858.0107-.0862q-.35491-.0606-.5197-.2101-.15709-.14441-.15019-.3685Z" fill="#ccc" stroke-width="0.264583"/><path d="M225.49664,104.71916l-.12209.82612.10633.0157q.0236-.15949.0952-.21995.071-.0564.20597-.0364l2.68693.39711-.11122-.57643-.0597.008q-.023.15541-.0817.21359-.0541.0547-.1563.0396l-2.24115-.33123q-.13496-.0199-.18663-.0944t-.0293-.22582Z" fill="#ccc" stroke-width="0.264583"/><path d="M225.32835,105.88957l-.14491.80563.10579.019q.0271-.15055.0958-.20541.0646-.0556.19888-.0314l1.17589.2115q.12314.20277.1667.35762.054.19033.0189.38563t-.16036.26099q-.10749.0605-.30279.0254l-1.08637-.19541q-.13428-.0242-.17546-.0988-.0452-.0754-.0182-.22589l-.10579-.019-.1449.80562.10579.019q.0271-.15054.095-.20133.0646-.0556.19887-.0314l1.07417.19321q.28075.0505.46025-.06t.22487-.3628q.0395-.21972-.0371-.44772-.0431-.13377-.17077-.35835l-.0167-.024.37026.0666-.0683-.55416-.0673.0005q-.0285.15869-.0828.20353t-.18854.0207l-1.22065-.21955q-.13427-.0242-.17619-.0947-.046-.0713-.0182-.22589Z" fill="#ccc" stroke-width="0.264583"/><path d="M227.88271,110.18988l.0727.0157q-.18904-.59472-.61336-.96103-.40039-.34001-.99851-.46888-.60621-.13061-1.11109.0144-.53665.15502-.94661.62492l.0687.0148q.39621-.30793.8713-.41278.51091-.11406,1.06458.005.54963.11843.97228.43363.40418.30276.61996.73409Z" fill="#ccc" stroke-width="0.264583"/><path d="M226.13467,111.36157l.88977.34635q.13354.0456.21468.0272.0861-.0214.10883-.11375.0247-.10036-.0427-.15524-.0634-.0539-.20482-.0673l-.94896-.10547Zm.16277-.66242l.88977.34634q.12854.0486.21468.0272t.10884-.11374q.0247-.10037-.0427-.15524-.0634-.0539-.20482-.0674l-.94896-.10546Z" fill="#ccc" stroke-width="0.264583"/><path d="M224.12794,111.57556l-.27195.93268.10318.0301q.0556-.19051.13707-.24856.0804-.0541.22324-.0124l1.09937.32056-.4629,1.58754-1.09937-.32056q-.13891-.0405-.17695-.14634-.0364-.0967.0134-.26739l-.10319-.0301-.2708.92871.10319.0301q.0544-.18654.13591-.24459.0866-.0609.22556-.0203l2.22651.64922q.12304.0359.15545.13145.0364.0967-.0168.2793l.0992.0289.2708-.9287-.0992-.0289q-.0486.1667-.13244.23268-.081.0711-.20406.0352l-1.02793-.29973.4629-1.58753l1.02793.29973q.12304.0359.15661.12748.0364.0967-.0168.2793l.0992.0289.27195-.93267-.0992-.0289q-.0555.1905-.13823.25252-.0713.0524-.19827.0154l-2.22651-.64922q-.14288-.0417-.18043-.13443-.0387-.0888.0169-.2793Z" fill="#ccc" stroke-width="0.264583"/><path d="M223.0359,116.66218q-.13891-.21848-.17068-.43061-.0343-.21739.0466-.45187.11056-.32046.38376-.44049.31389-.13661.79849.0306l-.52315,1.51633q.44162.15236.77263.004.32185-.14698.45803-.54169.14158-.41035-.0586-.76806-.19644-.34328-.62242-.49025-.45333-.15641-.82235.00054-.36646.1622-.51208.58427-.10787.31265-.044.58394.0513.21888.22283.44424Zm.73867.001l.43281-1.25448q.30334.12215.44831.38645.1385.2577.0495.51563-.0944.27357-.31892.36665-.23371.0943-.61171-.0142Z" fill="#ccc" stroke-width="0.264583"/><path d="M222.38462,117.00575l-.29704.78048.10046.0382q.0573-.15068.14031-.19431.0815-.0398.20898.009l2.53849.96611.0155-.58686-.06-.005q-.0559.14682-.12577.191-.0646.0418-.16115.005l-2.11734-.80583q-.1275-.0485-.16193-.13241t.02-.22683Z" fill="#ccc" stroke-width="0.264583"/><path d="M221.93949,118.16327l-.31352.77401.0996.0404q.0605-.14943.14439-.19129.0823-.038.20875.0132l2.51743,1.01973.0279-.5864-.0598-.006q-.059.1456-.1298.18829-.0654.0404-.16122.002l-2.09977-.85055q-.12645-.0512-.15909-.13581t.0248-.22636Z" fill="#ccc" stroke-width="0.264583"/><path d="M222.94593,121.07185q.19072-.43097-.003-.80131-.17472-.33049-.58301-.51118-.40073-.17734-.76283-.0844-.40406.106-.59478.53697-.18905.42719.003.80131.17305.33427.57378.51161.40829.18069.77207.084.40573-.10978.59478-.53697Zm-.0945-.0418q-.13552.30622-.47922.35756-.30887.0441-.67935-.11981-.36293-.16061-.53418-.41723-.1969-.29058-.0614-.59679.13719-.31.48467-.35967.30341-.042.66634.11857.37048.16396.54719.41847.19312.28891.0559.5989Z" fill="#ccc" stroke-width="0.264583"/><path d="M221.66399,123.76681l-.0948-.0507q-.0663.12392-.12475.16299-.0528.0374-.15252.0309l-1.43039-.17476-.51958-.0718-.0332.062l1.00075,1.12643-.99152-.12742-.51059-.0623-.0332.062l1.31986,1.42382q.0539.057.0516.14015-.003.0924-.0747.22727l.0948.0507.33749-.63056-.0948-.0507q-.08.14944-.1496.19189-.0601.0335-.11597-.0199l-1.01297-1.08608l1.49287.18944q.0938.0174.0976.0804-.002.0647-.0915.23235l.0948.0507.39602-.73991-.0948-.0507q-.0663.12393-.1211.16494-.0579.0206-.1593.009l-.25966-.0405-.82015-.90317l1.49456.19503q.0941.008.094.0784.002.0666-.0762.21243l.0948.0507Z" fill="#ccc" stroke-width="0.264583"/><path d="M219.46116,127.78238q.24315-.40372.0978-.79533-.132-.34975-.51447-.58011-.37538-.22609-.74627-.17921-.41414.0546-.6573.45832-.24102.40018-.0978.79533.12986.3533.50525.57939.38247.23036.75549.17994.41628-.0582.6573-.45833Zm-.0885-.0533q-.17276.28685-.52019.29477-.31196.005-.65902-.20388-.33997-.20476-.47776-.48079-.159-.31293.0138-.59979.1749-.29039.52586-.29618.30629-.004.64627.20102.34705.20903.49052.48365.15545.3108-.0194.6012Z" fill="#ccc" stroke-width="0.264583"/><path d="M216.9731,127.91012l-.44819.68495.0899.0589q.0905-.13837.16375-.15964t.17698.0466l.90981.59532q.0344.26458.0411.38263.006.14213-.009.25578-.006.07-.0473.10246-.0193.022-.0788.0374-.0469.0188-.0708.0327-.0457.0245-.0751.0694-.0475.0727-.0319.16195.0157.0893.0745.12778.0657.043.15384.0216t.13564-.0941q.0951-.14529.0961-.42622.00086-.16742-.0468-.50986l-.0133-.0779.43588.28521.12476-.56063-.0689-.0155q-.086.13145-.15004.15379-.0583.0211-.15516-.0422l-1.08623-.71077q-.10032-.0656-.10229-.1608-.003-.086.0717-.20013Z" fill="#ccc" stroke-width="0.264583"/><path d="M215.91034,129.51683l-.47577.68632.0883.0612q.0919-.1325.18286-.15493.0887-.019.20077.0587l2.23221,1.54741.15592-.56597-.057-.0194q-.0895.12911-.16796.15521-.0727.0251-.15764-.0338l-1.86188-1.29068q-.11212-.0777-.1254-.16742t.0739-.2154Z" fill="#ccc" stroke-width="0.264583"/><path d="M214.26394,131.77433q-.0876.14601-.1401.23064-.0598.0946-.14921.22903l.0731.0542q.0886-.11956.18449-.13084.0925-.0138.20212.0675l2.16532,1.60524.19587-.61129-.0621-.0203q-.11572.15609-.18746.19039-.0751.0318-.16141-.0322l-.6476-.48009q.15368-.0199.26579-.0809.15001-.0843.28788-.27032.26098-.35203.13809-.74161-.10691-.34172-.46558-.60762-.34539-.25605-.71499-.2573-.41094-.001-.66453.34105-.13049.17602-.16919.35317-.029.14321-.004.26958Zm1.34675,1.00868l-1.08267-.80262-.002-.0322q-.0305-.12551-.0169-.21323.0181-.15638.13878-.31911.20681-.27896.54675-.25853.29197.0157.60082.2447t.41542.50868q.11837.31932-.0884.59829-.11572.15609-.2394.21879-.11297.0552-.27254.0553Z" fill="#ccc" stroke-width="0.264583"/><path d="M214.15407,133.46427q.33565.282.58787.52949.14588.14206.33789.35237.1174.12475.17057.17746.0869.09.17112.15681.17168.13614.29253.16339t.18507-.0537.0101-.19245q-.0566-.10822-.22831-.24436-.0842-.0668-.18587-.13157-.0634-.0397-.20842-.12307-.24596-.14228-.42076-.25452-.29845-.18918-.65533-.45108Zm-.3896-.367q-.0591.0745-.14944.082-.082.004-.15001-.0504-.068-.0539-.08-.13202-.0191-.089.0425-.16676.0591-.0745.14755-.0729.0794-.00034.14419.051.068.0539.0858.13135.0159.0865-.0406.15771Z" fill="#ccc" stroke-width="0.264583"/><path d="M213.69887,135.55795l.64615.70295q.0998.0998.18073.11902.0868.0187.14781-.0542.0664-.0792.03-.15819-.0332-.0763-.15419-.15071l-.80542-.51279Zm.43798-.52294l.64615.70295q.094.10027.18073.11901t.14782-.0541q.0664-.0792.03-.1582-.0332-.0763-.15419-.1507l-.80541-.51279Z" fill="#ccc" stroke-width="0.264583"/><path d="M214.25873,137.0969q-.47273.0777-.95583-.0694-.50678-.15159-.92712-.525-.42342-.37615-.63059-.85879-.19617-.44523-.18465-.94373l-.0525-.0467q-.13406.60531.058,1.12985.17867.49604.64228.90788.45742.40636.97106.52533.54626.12584,1.135-.07Z" fill="#ccc" stroke-width="0.264583"/><path d="M210.77825,138.94457q.17416-.17662.15805-.38991-.013-.19285-.16612-.34379-.14719-.14513-.3402-.15547-.21349-.0131-.38765.1635-.17126.17368-.15805.38991.013.19285.16023.33799.15307.15094.34608.16128.2164.0102.38766-.16351Zm-.11186-.1103q-.11901.12069-.26816.11297-.1345-.005-.24048-.1094-.10303-.1016-.11276-.23892-.01-.14902.1092-.26972.12191-.12363.27105-.11591.13455.0108.23758.11235.10597.10449.11567.23598.01.14902-.1121.27265Z" fill="#ccc" stroke-width="0.264583"/><path d="M205.46846,141.70467l.0686-.0153q-.001-.29326.068-.47271.059-.15971.20948-.28905.26337-.22633.5778-.15858.30006.0637.56682.37413.28023.32608.30576.64755.0183.30041-.18234.47286-.12855.11048-.24691.12498-.0946.0104-.23413-.0441l-.0651-.0313q-.079-.0412-.11664-.0469-.0695-.0111-.13223.0428-.0815.0701-.0536.16599.0252.0928.14457.14285.12204.0532.31658.00049.20933-.0545.37864-.20004.31667-.27214.34303-.69817.025-.44664-.29837-.82289-.26675-.3104-.665-.35517-.40094-.0479-.69252.20268-.21948.18862-.28101.45954-.0446.20184-.0115.50044Z" fill="#ccc" stroke-width="0.264583"/><path d="M205.29106,143.88446q.36975-.29223.37158-.70995-.00037-.37384-.27722-.72413-.27172-.3438-.63536-.43053-.40684-.0947-.77659.19749-.36651.28967-.37158.70996-.003.37639.26885.7202.27685.35029.64372.43446.41009.0922.7766-.1975Zm-.0641-.0811q-.26272.20763-.59068.0927-.29379-.10504-.54501-.42289-.24609-.31137-.27784-.61825-.0386-.34888.2241-.55651.26596-.2102.59648-.092.28799.10436.53408.41573.25121.31786.28878.62541.0361.34564-.22991.55584Z" fill="#ccc" stroke-width="0.264583"/><path d="M202.91325,143.13628l-.66291.48019.0631.0871q.12388-.0897.2114-.0817.0851.005.16513.1152l.70088.96758q-.0518.23151-.12776.37331-.093.17459-.25374.291t-.2965.0769q-.11939-.0309-.2358-.19164l-.64753-.89392q-.08-.11048-.058-.19281.0196-.0857.1435-.17541l-.0631-.0871-.66291.48019.0631.0871q.12387-.0897.20805-.0792.0851.005.16512.11521l.64026.88388q.16734.23101.37333.27578t.41356-.10559q.1808-.13096.28364-.34839.0616-.12633.12534-.37666l.005-.0289.22069.30467.33489-.44677-.0488-.0463q-.13058.0946-.20078.0893-.0702-.005-.15023-.11578l-.72756-1.00441q-.08-.11049-.0613-.19039.0163-.0832.14349-.17541Z" fill="#ccc" stroke-width="0.264583"/><path d="M201.13301,145.15175l.031-.0504-.56622-.40274-.10556.15474q-.0287.039-.0814.0642-.0356.0137-.11927.0447-.0917.0263-.14449.0515-.0872.0332-.1663.0859-.23743.15812-.32353.37937-.0987.25449.0479.47471.13978.2099.37941.2341.22816.0219.67196-.10974.32912-.095.46671-.0972.18002-.006.25793.11134.0962.14452.0492.29012-.0494.14215-.21798.25443-.22366.14895-.55043.12815-.24651-.0196-.42762-.11258l-.0402.0665.53643.37291.0895-.14901q.0172-.0264.0562-.0424.0264-.0126.0906-.0355.086-.0275.13761-.0469.0883-.0389.16745-.0916.24775-.16499.32926-.37822.0712-.20635-.0411-.37495-.12145-.18237-.32782-.20885-.23504-.0322-.71324.10743-.33027.10074-.49308.0949-.16282-.006-.24531-.12968-.11228-.16861-.0618-.34631.0471-.1754.22603-.29456.26151-.17415.58026-.15794.21326.007.50788.11376Z" fill="#ccc" stroke-width="0.264583"/><path d="M199.2772,148.0744q.4023-.24549.45451-.65995.0447-.37115-.18784-.75228-.22826-.37407-.57878-.50403-.39244-.14313-.79474.10236-.39878.24333-.45452.65994-.0483.3733.18001.74738.23256.38113.58661.50894.39597.14097.79475-.10236Zm-.0538-.0882q-.28584.17443-.59754.0208-.27898-.13971-.49001-.48555-.20673-.33879-.20124-.64725.004-.35099.28961-.52542.28938-.17658.60323-.0194.27329.13834.48002.47712.21103.34584.21122.65568-.006.34746-.29529.52404Z" fill="#ccc" stroke-width="0.264583"/><path d="M196.95276,147.06704l-.72612.41247.0531.0935q.14019-.0796.23193-.0604.0881.0213.15552.13987l1.34155,2.36168.38571-.44256-.043-.0422q-.13659.0776-.21861.0671-.0764-.009-.12743-.0988l-1.11897-1.96986q-.0674-.11863-.0405-.20522t.15989-.16214Z" fill="#ccc" stroke-width="0.264583"/><path d="M194.42175,149.00108q.0481-.2544.16996-.4309.12362-.18208.343-.29783.29982-.15819.58123-.0589.32244.11501.56166.5684l-1.41867.74853q.218.41317.56085.53142.33533.11288.70463-.082.38392-.20257.48248-.60047.0915-.38479-.11883-.78334-.22379-.42414-.60036-.562-.37829-.13228-.77318.0761-.29251.15433-.43147.39592-.11225.19478-.14123.47651Zm.5381.50604l1.1737-.61928q.13778.29657.0628.58855-.0752.28273-.3165.41006-.25595.13504-.48343.0494-.235-.091-.43656-.42873Z" fill="#ccc" stroke-width="0.264583"/><path d="M193.53054,149.3688q.1003-.049.1289-.14116.0193-.083-.0261-.17589t-.12267-.12873q-.0939-.0416-.19421.007-.10401.0508-.12527.14859-.023.0848.0224.1777.0453.0929.12638.12691.0866.0359.19058-.0148Z" fill="#ccc" stroke-width="0.264583"/><path d="M192.59531,149.34686l-.75799.35047.0451.0976q.14634-.0677.23616-.0409.0861.0285.14332.15235l1.13989,2.46535.42128-.40886-.0393-.0456q-.14259.0659-.22345.0487-.0754-.0152-.11875-.10906l-.95077-2.05633q-.0573-.12383-.0232-.20788.034-.084.17285-.14824Z" fill="#ccc" stroke-width="0.264583"/><path d="M191.34103,152.15754q.43385-.18409.54603-.58647.0985-.36063-.0759-.77165-.17117-.4034-.49894-.58317-.36733-.19892-.80118-.0148-.43004.18247-.54603.58647-.10228.36225.0689.76565.1744.41102.50598.58918.37114.1973.80118.0148Zm-.0404-.0951q-.30826.1308-.59417-.0667-.25558-.17898-.41383-.55193-.15502-.36535-.10453-.6697.055-.34668.36325-.47748.31207-.13241.59959.0689.25016.17678.40518.54213.15825.37295.11318.6795-.0566.34287-.36867.47528Z" fill="#ccc" stroke-width="0.264583"/><path d="M189.01133,153.09028q.32902-.12338.46934-.36144.1529-.25161.0426-.5458-.0697-.1858-.22306-.30048-.14661-.10838-.33822-.12483.12822-.10548.1858-.17564.10016-.12145.0697-.20274t-.13596-.10355q-.12-.0256-.35274.0131.19548-.12629.32177-.28403.15241-.19403.10306-.32564-.0755-.20129-.32758-.22596-.26902-.0227-.74514.15581-.44128.16548-.64499.35225-.2366.21677-.14661.45677.0697.1858.25742.23902.16258.045.40935-.003l.37789-.0755.46741-.0958q.10403-.0169.15484.0126.0373.0169.0508.0648.0131.0348-.0319.0915-.0426.0513-.12435.10403-.09.007-.16113.0295-.0494.01-.14999.0474-.31355.11758-.45628.36096-.15145.25548-.044.54192.0406.10839.11855.19839.0764.0861.17032.14806-.0431.0735-.0948.0885-.0324.008-.10355-.005-.0368-.004-.0552-.006-.0368-.004-.0677.008-.0581.0218-.0794.0827-.0266.0585-.003.12048.0218.0581.0982.0736.0673.0145.13306-.0102.0813-.0305.1529-.11033t.11709-.19402q.10355.0406.23419.0358.16597-.005.35177-.0745Zm-.96-2.35978q.36387-.13646.59709-.12678.21628.0116.26564.14322.0421.11226-.0421.24097-.0939.14999-.35079.31257-.12049.0319-.24774.0576-.0726.0184-.19596.0426l-.0987.0194q-.19984.044-.33242-.003-.12193-.0426-.16257-.15096-.0435-.11613.11951-.26999.16161-.15774.44805-.26516Zm.92371,2.26301q-.23613.0886-.43015-.0285-.16984-.0997-.25258-.32032-.0813-.21677-.0203-.40741.0677-.21967.30387-.30822.24386-.0915.43934.0295.16984.0997.25258.32032t.0203.40741q-.0692.2158-.31305.30725Z" fill="#ccc" stroke-width="0.264583"/><path d="M186.79906,155.22148l.0237.0705q.41483-.46621.51311-1.01809.0879-.51787-.10672-1.09795-.19723-.58791-.57967-.94799-.40732-.38225-1.02068-.4948l.0224.0666q.46707.18342.79982.53837.35894.38104.53909.918.17883.53304.12363,1.05739-.0539.50212-.31461.90789Z" fill="#ccc" stroke-width="0.264583"/><path d="M184.89828,154.31661l.15621.94193q.029.13811.0862.19851.0624.0632.15336.0356.0989-.03.11169-.11598.014-.082-.0466-.21051l-.39358-.86991Zm.65274-.19807l.15621.94193q.0238.13535.0862.19851t.15336.0356q.0989-.03.11169-.11597.014-.082-.0466-.21052l-.39358-.86991Z" fill="#ccc" stroke-width="0.264583"/><path d="M183.69019,152.70018l-.94101.24154.0267.10411q.19221-.0493.28371-.009.0875.0416.12449.18572l.28471,1.10919-1.60173.41113-.2847-1.10919q-.036-.14015.0357-.22684.0647-.0806.23685-.12481l-.0267-.10411-.93701.2405.0267.10412q.1882-.0483.2797-.008.0965.0435.13251.18366l.5766,2.24642q.0319.12413-.0338.20075-.0647.0806-.24887.1279l.0257.1001.93701-.2405-.0257-.10011q-.16818.0432-.26769.005-.10248-.0334-.13435-.15759l-.2662-1.03711l1.60172-.41113.26621,1.03712q.0319.12413-.0298.19972-.0647.0806-.24887.1279l.0257.10011.94101-.24154-.0257-.10011q-.1922.0493-.28771.01-.0814-.0346-.11432-.16272l-.57661-2.24642q-.037-.14415.0237-.22375.0567-.0786.24886-.1279Z" fill="#ccc" stroke-width="0.264583"/><path d="M178.75687,154.3525q.11729-.23081.28368-.36618.1696-.14025.4126-.19003.3321-.068.57453.10595.27741.20059.3803.70279l-1.5714.32193q.0938.45765.38986.66707.2904.20214.69944.11834.42525-.0871.63115-.44158.19541-.34388.10497-.78532-.0962-.4698-.41924-.70747-.32621-.23279-.76361-.14318-.324.0664-.52498.25947-.16223.15562-.26884.418Zm.37512.63632l1.30005-.26634q.0494.32327-.1043.58262-.15125.25043-.41855.30519-.2835.0581-.47796-.0878-.20016-.15311-.29924-.53371Z" fill="#ccc" stroke-width="0.264583"/><path d="M178.12949,153.96674l-.82302.14146.0182.10594q.1589-.0273.23867.0219.0757.0499.0988.18437l.46013,2.67685.51304-.28534-.0261-.0542q-.15482.0266-.22842-.0111-.0688-.0343-.0863-.13617l-.38378-2.23275q-.0231-.13446.0316-.20678t.20544-.0982Z" fill="#ccc" stroke-width="0.264583"/><path d="M176.90657,154.17254l-.82587.12378.0159.1063q.15945-.0239.23814.027.0746.0515.0948.18644l.40258,2.68612.51905-.27427-.0249-.0548q-.15536.0233-.22813-.016-.0681-.0358-.0834-.13799l-.33578-2.24048q-.0202-.13491.036-.20605t.2075-.0938Z" fill="#ccc" stroke-width="0.264583"/><path d="M174.91358,156.5183q.46808-.0549.68874-.40955.19577-.31847.1438-.76192-.051-.43524-.31512-.69982-.29669-.29406-.76478-.23919-.46398.0544-.68875.40955-.19987.31896-.14886.75419.052.44345.32018.70755.30081.29357.76479.23919Zm-.012-.10265q-.33258.039-.55152-.23089-.19504-.24353-.2422-.64592-.0462-.39418.0877-.67211.15012-.31728.48271-.35626.33669-.0395.55611.23451.19046.23991.23665.63409.0472.40239-.0822.68394-.1506.31318-.4873.35264Z" fill="#ccc" stroke-width="0.264583"/><path d="M171.94017,156.78398l-.004-.10739q-.14044.006-.20377-.0247-.059-.0265-.1041-.11568l-.57606-1.32087-.20211-.48401-.0702.003-.46193,1.43422-.3939-.9188-.20573-.47144-.0702.003-.556,1.86015q-.0217.0754-.0945.11564-.0809.0447-.23373.0511l.004.10739.71459-.0296-.004-.1074q-.16936.007-.24129-.0314-.0594-.0348-.0418-.10999l.42096-1.42424.59516,1.38215q.0327.0897-.0197.12494-.0566.0313-.24664.0392l.004.1074.83851-.0347-.004-.1074q-.14044.006-.2036-.0205-.0471-.0394-.0883-.13289l-.097-.24424.36136-1.16524.5912,1.38645q.0408.0852-.0198.12081-.0564.0354-.22168.0423l.004.10739Z" fill="#ccc" stroke-width="0.264583"/><path d="M167.36214,156.92616q.47127.004.73476-.31975.23424-.29135.2384-.73782.004-.43819-.22467-.73386-.25739-.32901-.72866-.33341-.46714-.004-.73476.31976-.23837.29131-.24246.7295-.004.44647.22873.74218.26153.32905.72866.3334Zm.00097-.10335q-.33485-.003-.51814-.29836-.16289-.26612-.15911-.67124.004-.39686.17149-.65576.1888-.2959.52365-.29278.33899.003.52224.30254.15879.26194.15509.6588-.004.40513-.16747.66819-.18877.29178-.52775.28861Z" fill="#ccc" stroke-width="0.264583"/><path d="M165.98838,154.84781l-.81767-.0381-.005.10737q.16519.008.22069.0599.0555.0522.0497.17613l-.0506,1.0861q-.21043.16402-.30868.2298-.11948.0772-.22503.12195-.0635.0302-.11227.0113-.0287-.005-.0722-.0489-.04-.0308-.0642-.0444-.0443-.0269-.098-.0294-.0867-.004-.15568.0548-.069.0589-.0722.12907-.004.0785.0595.14349.0632.065.14991.0691.17344.008.41595-.13376.14464-.0843.41539-.29932l.0603-.051-.0242.52034.54627-.17735-.0217-.0672q-.15692-.007-.20869-.0511-.0478-.0395-.0424-.15511l.0604-1.29671q.006-.11975.0865-.16979.0725-.0463.20879-.0399Z" fill="#ccc" stroke-width="0.264583"/><path d="M164.06452,154.74868l-.83286-.061-.008.1072q.1608.0118.22636.0788.0614.0667.0515.20274l-.19846,2.70885.56668-.15331-.0123-.0589q-.15667-.0115-.21902-.0658-.0585-.0499-.051-.15296l.16554-2.25944q.01-.13606.0805-.19307t.22305-.0458Z" fill="#ccc" stroke-width="0.264583"/><path d="M161.28354,154.47818q-.1703-.001-.26984-.003-.11187-.003-.27308-.0121l-.01.0905q.14801.0156.20645.0924.0589.0727.0446.20837l-.28157,2.68069.62599-.14209-.0141-.0638q-.19324-.0203-.25925-.0646-.0656-.0485-.0543-.15536l.0842-.80174q.0952.12224.20475.18778.14889.0863.37914.11049.43582.0458.70883-.25809.23992-.26578.28656-.70983.0449-.42759-.1419-.74651-.20803-.3544-.63152-.39888-.21791-.0229-.39014.0339-.13805.0478-.23432.13334Zm-.18399,1.67251l.14079-1.34034.0268-.018q.0926-.09.17503-.12295.14388-.0639.34535-.0427.34536.0363.50058.33941.13487.25942.0947.64179t-.22686.61633q-.21481.26426-.56018.22798-.19324-.0203-.31011-.0949-.10496-.0692-.18614-.20661Z" fill="#ccc" stroke-width="0.264583"/><path d="M159.77272,155.24302q-.0721.43243-.15687.77546-.0481.19786-.13151.47015-.0477.16453-.066.23712-.0333.12061-.048.22709-.0299.21706.008.33497t.1404.13201.17086-.0891q.0644-.10381.0943-.32087.0147-.10648.0187-.22694.002-.0748-.00005-.24205-.003-.28413.005-.49172.0111-.35319.055-.79366Zm.1178-.52211q-.0942-.013-.1466-.087-.0448-.0688-.0329-.15477t.073-.13601q.0669-.0617.16522-.0482.0942.013.13784.0899.0407.0682.0294.15011-.0118.086-.0695.14067-.0664.0576-.15646.0452Z" fill="#ccc" stroke-width="0.264583"/><path d="M157.73913,155.9165l-.27627.91396q-.0351.13667-.0105.21614.028.0842.12184.0997.10198.0168.15146-.0546.0488-.0674.0513-.20943l.0315-.95428Zm.67306.11088l-.27627.91396q-.0385.13193-.0105.21615t.12184.0997q.10198.0168.15146-.0547.0488-.0674.0513-.20943l.0315-.95428Z" fill="#ccc" stroke-width="0.264583"/><path d="M156.70044,157.18193q-.30763-.36725-.42701-.85794-.12761-.51335-.0203-1.06526.1081-.55596.41798-.98004.28327-.39555.71816-.63949l.0134-.069q-.58922.19288-.94283.6253-.33592.40637-.45427,1.01509-.11678.6006.0424,1.10324.16988.53421.63826.94114Z" fill="#ccc" stroke-width="0.264583"/><path d="M151.92358,154.75924q.23923.0656.41741-.0528.16184-.10567.21866-.313.0546-.19935-.0307-.37278-.093-.19265-.33217-.25821-.23524-.0645-.4174.0528-.16185.10567-.21649.30503-.0568.20732.0285.38075.0969.19374.33217.25821Zm.0415-.15151q-.16347-.0448-.22966-.17868-.0615-.11973-.0221-.26326.0383-.13955.15328-.21519.12519-.0814.28866-.0366.16746.0459.23365.17977.0564.12262.0182.26217-.0393.14354-.14929.21628-.12519.0814-.29265.0355Z" fill="#ccc" stroke-width="0.264583"/></g></g></g></svg>
