<?xml version="1.0" encoding="UTF-8" standalone="no"?>
<!-- Created with Inkscape (http://www.inkscape.org/) -->

<svg
   xmlns:dc="http://purl.org/dc/elements/1.1/"
   xmlns:cc="http://creativecommons.org/ns#"
   xmlns:rdf="http://www.w3.org/1999/02/22-rdf-syntax-ns#"
   xmlns:svg="http://www.w3.org/2000/svg"
   xmlns="http://www.w3.org/2000/svg"
   xmlns:sodipodi="http://sodipodi.sourceforge.net/DTD/sodipodi-0.dtd"
   xmlns:inkscape="http://www.inkscape.org/namespaces/inkscape"
   width="338.66666mm"
   height="190.5mm"
   viewBox="0 0 338.66666 190.5"
   version="1.1"
   id="svg8"
   inkscape:version="0.92.4 (5da689c313, 2019-01-14)"
   sodipodi:docname="scribble-2.svg">
  <defs
     id="defs2" />
  <sodipodi:namedview
     id="base"
     pagecolor="#474747"
     bordercolor="#666666"
     borderopacity="1.0"
     inkscape:pageopacity="0"
     inkscape:pageshadow="2"
     inkscape:zoom="1"
     inkscape:cx="653.36366"
     inkscape:cy="384.99999"
     inkscape:document-units="px"
     inkscape:current-layer="layer1"
     showgrid="true"
     fit-margin-top="0"
     fit-margin-left="0"
     fit-margin-right="0"
     fit-margin-bottom="0"
     inkscape:showpageshadow="false"
     borderlayer="true"
     inkscape:window-width="1920"
     inkscape:window-height="1013"
     inkscape:window-x="415"
     inkscape:window-y="1791"
     inkscape:window-maximized="1">
    <inkscape:grid
       type="xygrid"
       id="grid814" />
  </sodipodi:namedview>
  <metadata
     id="metadata5">
    <rdf:RDF>
      <cc:Work
         rdf:about="">
        <dc:format>image/svg+xml</dc:format>
        <dc:type
           rdf:resource="http://purl.org/dc/dcmitype/StillImage" />
        <dc:title></dc:title>
      </cc:Work>
    </rdf:RDF>
  </metadata>
  <g
     inkscape:groupmode="layer"
     id="layer2"
     inkscape:label="Layer 1"
     style="display:none">
    <path
       style="fill:none;stroke:#fefefe;stroke-width:0.26458332px;stroke-linecap:butt;stroke-linejoin:miter;stroke-opacity:1"
       d="m -5.2830064,132.29166 c -0.090632,-0.17638 -0.4531617,-0.44097 -0.271897,-0.52916 0.1812648,-0.0882 0.1069858,0.41454 0.271897,0.52916 0.4947336,0.34388 1.1035072,0.50023 1.6313819,0.79375 0.1112857,0.0619 0.1652502,0.1954 0.271897,0.26459 0.1686234,0.10939 0.3751705,0.15519 0.5437939,0.26458 0.1066466,0.0692 0.1572551,0.20881 0.271897,0.26458 0.081063,0.0394 0.1812646,0 0.2718969,0 0.1812647,0.0882 0.3751706,0.1552 0.543794,0.26459 0.1066468,0.0692 0.1652502,0.1954 0.2718969,0.26458 0.1686234,0.10939 0.3625293,0.17639 0.54379406,0.26458 0.18126464,0.0882 0.35153373,0.20223 0.54379393,0.26459 0.0859814,0.0279 0.19083296,-0.0394 0.27189698,0 0.82916644,0.40343 -0.49728443,0.20975 0.81569093,0.52916 0.17585254,0.0428 0.3679414,-0.0428 0.5437939,0 0.7451612,0.18128 0.8421315,0.80233 1.631382,1.05834 0.8156909,0.26458 -0.5437941,-0.52917 0.8156909,0 0.3034071,0.1181 0.5354799,0.36556 0.8156909,0.52916 0.1737794,0.10147 0.3751705,0.1552 0.5437939,0.26459 0.6221829,0.40363 -0.1700146,0.20943 0.8156909,0.52916 0.3545102,0.115 0.7211581,0.19327 1.0875879,0.26459 0.088872,0.0173 0.1859156,-0.0279 0.2718971,0 0.1922603,0.0624 0.3556287,0.19134 0.5437939,0.26458 0.2661056,0.10358 0.5772215,0.10988 0.8156909,0.26458 0.07541,0.0489 0,0.17639 0,0.26459 0.1812648,0.0882 0.3450694,0.2259 0.5437941,0.26458 0.2666169,0.0519 0.5490738,-0.0519 0.8156909,0 0.1987246,0.0387 0.3556286,0.19134 0.5437946,0.26458 0.266104,0.10358 0.537642,0.19695 0.815691,0.26459 0.08793,0.0214 0.190832,-0.0394 0.271896,0 0.829167,0.40343 -0.497284,0.20975 0.815691,0.52916 0.351705,0.0856 0.743663,-0.11155 1.087588,0 0.121596,0.0394 0.16525,0.1954 0.271897,0.26459 0.168623,0.10939 0.362529,0.17639 0.543794,0.26458 0.181264,0.0882 0.362529,0.17639 0.543794,0.26458 0.09063,0 0.185915,-0.0279 0.271897,0 0.19226,0.0624 0.362529,0.17639 0.543794,0.26459 0.483372,0.23518 0.799511,0.42018 1.359485,0.52916 0.35549,0.0692 0.735882,-0.0856 1.087588,0 0.393218,0.0957 0.69437,0.43351 1.087588,0.52917 0.175852,0.0428 0.37183,-0.0558 0.543794,0 0.121596,0.0394 0.181265,0.17639 0.271897,0.26458 0.181264,0 0.36794,-0.0428 0.543793,0 0.492118,-0.15947 0.505681,0.42861 0.815691,0.52917 0.171963,0.0558 0.367941,-0.0428 0.543794,0 0.196609,0.0478 0.351534,0.20222 0.543794,0.26458 0.288921,0.0937 0.798668,-0.0937 1.087587,0 0.192261,0.0624 0.351534,0.20223 0.543795,0.26459 0.08599,0.0279 0.185916,-0.0279 0.271897,0 0.192261,0.0624 0.351533,0.20222 0.543794,0.26458 0.08599,0.0279 0.185916,-0.0279 0.271897,0 0.192261,0.0624 0.351533,0.20222 0.543794,0.26458 0.08599,0.0279 0.190833,-0.0394 0.271897,0 0.114641,0.0558 0.157256,0.20881 0.271897,0.26459 0.170893,0.0831 0.916695,-0.0832 1.087588,0 0.114643,0.0558 0.181266,0.17639 0.271897,0.26458 0.181265,0 0.37183,-0.0558 0.543794,0 0.121594,0.0394 0.157254,0.20881 0.271896,0.26458 0.08106,0.0395 0.185916,-0.0279 0.271898,0 0.19226,0.0624 0.351533,0.20223 0.543793,0.26459 0.08599,0.0279 0.190834,-0.0394 0.271899,0 0.114642,0.0558 0.150301,0.22514 0.271896,0.26458 0.343925,0.11156 0.735883,-0.0856 1.087587,0 0.196608,0.0478 0.351533,0.20222 0.543794,0.26458 0.08599,0.0279 0.187747,-0.0328 0.271898,0 0.376329,0.14649 0.703068,0.40445 1.087588,0.52917 0.171963,0.0558 0.371829,-0.0558 0.543793,0 0.121596,0.0394 0.150302,0.22514 0.271898,0.26458 0.407845,0.1323 0.951639,-0.13229 1.359484,0 0.121596,0.0394 0.165251,0.1954 0.271897,0.26459 0.168623,0.10939 0.355628,0.19134 0.543794,0.26458 0.141501,0.61878 0.769474,0.1614 1.087589,0.26458 0.192261,0.0624 0.347184,0.21676 0.543793,0.26459 0.20677,0.0503 1.1318,0 1.359485,0 0.181266,0 0.37183,-0.0558 0.543795,0 0.121595,0.0394 0.150302,0.22514 0.271896,0.26458 0.171964,0.0558 0.367942,-0.0428 0.543794,0 0.196609,0.0478 0.351533,0.20222 0.543794,0.26458 0.08599,0.0279 0.185914,-0.0279 0.271897,0 0.192261,0.0624 0.347185,0.21676 0.543794,0.26459 0.263778,0.0642 0.557747,-0.0837 0.815691,0 0.192261,0.0624 0.347186,0.21675 0.543794,0.26458 0.263778,0.0642 0.551912,-0.0642 0.815691,0 0.278047,0.0676 0.537644,0.19694 0.815691,0.26458 0.08792,0.0214 0.185915,-0.0279 0.271896,0 0.192262,0.0624 0.34507,0.22591 0.543795,0.26459 0.294686,0.0574 1.044837,-0.0765 1.359484,0 0.278048,0.0676 0.537644,0.19694 0.815691,0.26458 0.263778,0.0642 0.551914,-0.0642 0.815691,0 0.196609,0.0478 0.351534,0.20222 0.543794,0.26458 0.08599,0.0279 0.185914,-0.0279 0.271897,0 0.192261,0.0624 0.345069,0.22591 0.543794,0.26459 0.266616,0.0519 0.551913,-0.0642 0.815691,0 0.124347,0.0302 0.150302,0.22514 0.271896,0.26458 0.171965,0.0558 0.367942,-0.0428 0.543795,0 0.492117,-0.15947 0.505679,0.42861 0.815691,0.52917 0.171964,0.0558 0.362529,0 0.543794,0 0.271896,0 0.543794,0 0.815691,0 0.09063,0 0.185915,-0.0279 0.271896,0 0.192262,0.0624 0.347185,0.21675 0.543795,0.26458 0.175852,0.0428 0.37183,-0.0558 0.543793,0 0.121596,0.0394 0.150303,0.22514 0.271898,0.26458 0.171964,0.0558 0.366049,-0.0346 0.543793,0 0.281038,0.0547 0.537644,0.19695 0.815691,0.26459 0.08793,0.0214 0.190834,-0.0394 0.271898,0 0.114643,0.0558 0.150302,0.22514 0.271897,0.26458 0.171963,0.0558 0.367942,-0.0428 0.543794,0 0.196609,0.0478 0.347184,0.21675 0.543793,0.26458 0.426507,0.10376 0.93298,-0.10375 1.359485,0 0.196609,0.0478 0.347185,0.21676 0.543795,0.26459 0.263777,0.0642 0.557747,-0.0837 0.81569,0 0.192261,0.0624 0.351533,0.20222 0.543794,0.26458 0.08599,0.0279 0.185914,-0.0279 0.271897,0 0.192261,0.0624 0.347185,0.21675 0.543794,0.26458 0.175852,0.0428 0.37183,-0.0558 0.543794,0 0.121595,0.0395 0.150302,0.22515 0.271897,0.26459 0.171964,0.0558 0.367942,-0.0428 0.543794,0 0.196609,0.0478 0.351533,0.20222 0.543795,0.26458 0.257941,0.0837 0.551912,-0.0642 0.815691,0 0.196608,0.0478 0.351532,0.20222 0.543792,0.26458 0.08599,0.0279 0.181267,0 0.271899,0 0.151761,0 1.23502,-0.0404 1.359484,0 0.121594,0.0394 0.157255,0.20881 0.271897,0.26459 0.08106,0.0394 0.185915,-0.0279 0.271896,0 0.192261,0.0624 0.347185,0.21675 0.543794,0.26458 0.175852,0.0428 0.362529,0 0.543795,0 0.181265,0.0882 0.351533,0.20222 0.543794,0.26458 0.259012,0.084 1.094643,-0.0859 1.359483,0 0.192262,0.0624 0.347186,0.21676 0.543795,0.26459 0.175852,0.0428 0.381668,-0.0789 0.543795,0 0.08106,0.0394 -0.08106,0.22514 0,0.26458 0.543793,0.26458 0.407845,-0.13229 0.81569,0 0.192261,0.0624 0.347185,0.21675 0.543794,0.26458 0.175852,0.0428 0.37183,-0.0558 0.543794,0 0.121595,0.0395 0.157255,0.20881 0.271897,0.26459 0.08106,0.0394 0.181265,0 0.271897,0 0.181266,0 0.37183,-0.0558 0.543794,0 0.121596,0.0394 0.150302,0.22514 0.271897,0.26458 0.132096,0.0428 1.625686,0 1.903279,0 0.09063,0 0.185915,-0.0279 0.271896,0 0.192262,0.0624 0.351534,0.20222 0.543795,0.26458 0.08599,0.0279 0.190834,-0.0394 0.271896,0 0.114643,0.0558 0.147551,0.23434 0.271898,0.26459 1.928488,0 0.159275,-0.18709 1.087587,0.26458 0.08106,0.0394 0.181266,0 0.271898,0 0.181265,0 0.37183,-0.0558 0.543793,0 0.121595,0.0394 0.147551,0.23433 0.271898,0.26458 0.263777,0.0642 0.543793,0 0.81569,0 0.453162,0 0.906323,0 1.359486,0 0.181265,0 0.371829,-0.0558 0.543793,0 0.121595,0.0395 0.150302,0.22515 0.271898,0.26459 0.171963,0.0558 0.366048,-0.0346 0.543793,0 0.281038,0.0547 0.537643,0.19694 0.815692,0.26458 0.175851,0.0428 0.371829,-0.0558 0.543793,0 0.192261,0.0624 0.347185,0.21675 0.543794,0.26458 0.351705,0.0856 0.743663,-0.11155 1.087588,0 0.121595,0.0394 0.150301,0.22515 0.271897,0.26459 0.343926,0.11156 0.743663,-0.11156 1.087588,0 0.121595,0.0394 0.150302,0.22514 0.271897,0.26458 0.171964,0.0558 0.367942,-0.0428 0.543793,0 0.196609,0.0478 0.347185,0.21675 0.543795,0.26458 0.175851,0.0428 0.362528,0 0.543794,0 0.453162,0 0.906322,0 1.359485,0 0.181265,0 0.362528,0 0.543794,0 0.09063,0 0.18397,-0.0214 0.271897,0 0.278046,0.0676 0.534652,0.20989 0.815691,0.26459 0.522879,0.10176 1.108501,-0.10177 1.631381,0 0.198725,0.0387 0.351533,0.20222 0.543795,0.26458 0.08599,0.0279 0.18397,-0.0214 0.271896,0 0.278048,0.0676 0.534653,0.20989 0.815691,0.26458 0.266617,0.0519 0.551913,-0.0642 0.815692,0 0.278046,0.0677 0.534651,0.20989 0.815691,0.26459 0.334995,0.0652 1.052461,-0.0996 1.359484,0 0.121595,0.0394 0.14755,0.23433 0.271897,0.26458 0.263778,0.0642 0.543793,0 0.815693,0 0.18126,0 0.36253,0 0.54379,0 0.18127,0 0.36794,-0.0428 0.54379,0 0.19662,0.0478 0.34719,0.21675 0.5438,0.26458 0.35171,0.0856 0.73589,-0.0856 1.08758,0 0.19662,0.0478 0.3472,0.21676 0.5438,0.26459 0.47208,0.11484 1.1593,-0.11485 1.63138,0 0.19661,0.0478 0.3472,0.21675 0.5438,0.26458 0.17586,0.0428 0.36252,0 0.54379,0 0.63442,0 1.26886,0 1.90329,0 0.27189,0 0.54378,0 0.81569,0 0.0907,0 0.1859,-0.0279 0.27189,0 0.19226,0.0624 0.34507,0.22591 0.5438,0.26458 0.26661,0.0519 0.54378,0 0.81569,0 0.0907,0 0.1859,-0.0279 0.27189,0 0.19226,0.0624 0.34719,0.21676 0.5438,0.26459 0.3517,0.0856 0.73587,-0.0856 1.08758,0 0.19661,0.0478 0.3439,0.23216 0.5438,0.26458 0.35759,0.058 0.72506,0 1.08758,0 0.18127,0 0.37184,-0.0558 0.5438,0 0.12159,0.0394 0.1503,0.22514 0.27189,0.26458 0.34393,0.11156 0.74367,-0.11155 1.0876,0 0.12159,0.0394 0.1503,0.22515 0.2719,0.26459 0.17195,0.0558 0.36251,0 0.54379,0 0.54379,0 1.08759,0 1.63138,0 0.18126,0 0.36794,-0.0428 0.54379,0 0.1966,0.0478 0.34507,0.2259 0.5438,0.26458 0.0923,0.018 1.15873,-0.0651 1.35948,0 0.19226,0.0624 0.35153,0.20222 0.54379,0.26458 0.086,0.0279 0.18127,0 0.2719,0 0.45315,0 0.90633,0 1.35948,0 0.5438,0 1.08759,0 1.63138,0 0.18128,0 0.36254,0 0.5438,0 0.18126,0 0.38167,-0.0789 0.5438,0 0.0811,0.0394 -0.081,0.22515 0,0.26459 0.10204,0.0496 1.4695,0 1.63138,0 1.17821,0 2.35644,0 3.53466,0 0.0907,0 0.20781,0.0624 0.27189,0 0.0642,-0.0624 0,-0.17639 0,-0.26459 0,-0.44097 0,-0.88194 0,-1.32291 0,-0.25591 0.0403,-1.50903 0,-1.5875 -0.0574,-0.11156 -0.21458,-0.15303 -0.27189,-0.26459 -0.10876,-0.21166 0.10875,-0.58208 0,-0.79375 -0.0574,-0.11155 -0.21458,-0.15302 -0.2719,-0.26458 -0.0605,-0.11773 0.0414,-0.93731 0,-1.05833 -0.0405,-0.11833 -0.21457,-0.15303 -0.2719,-0.26459 -0.0405,-0.0789 0.0405,-0.1857 0,-0.26458 -0.62218,-1.21089 0.11269,1.12274 -0.54379,-0.79375 -0.0574,-0.16734 0.0811,-0.3714 0,-0.52917 -0.56579,-1.10113 0.0188,0.28285 -0.54379,-0.26458 -0.0642,-0.0624 0.0642,-0.20222 0,-0.26458 -0.0642,-0.0624 -0.18126,0 -0.2719,0 -0.066,0 -0.80695,-0.009 -0.81569,0 -0.0641,0.0624 0.0642,0.20222 0,0.26458 -0.0641,0.0624 -0.20782,-0.0624 -0.2719,0 -0.0642,0.0624 0.0641,0.20222 0,0.26458 -0.0642,0.0624 -0.20781,-0.0624 -0.27189,0 -0.0642,0.0624 0.0641,0.20223 0,0.26459 -0.0642,0.0624 -0.20782,-0.0624 -0.2719,0 -0.0641,0.0624 0.0641,0.20222 0,0.26458 -0.0641,0.0624 -0.19084,-0.0394 -0.2719,0 -0.11464,0.0558 -0.15726,0.20881 -0.27189,0.26458 -0.0811,0.0394 -0.20782,-0.0624 -0.2719,0 -0.0641,0.0624 0.0405,0.18571 0,0.26459 -0.0574,0.11156 -0.18128,0.17639 -0.2719,0.26458 -0.27189,0.26458 -0.54379,0.52917 -0.8157,0.79375 -0.0907,0.0882 -0.2008,0.16081 -0.27189,0.26458 -0.11242,0.16409 -0.1286,0.38972 -0.2719,0.52917 -0.0641,0.0624 -0.20781,-0.0624 -0.2719,0 -0.0641,0.0624 0.0405,0.1857 0,0.26458 -0.1205,0.23452 -0.65067,0.5529 -0.81569,0.79375 -0.1124,0.16409 -0.12859,0.38972 -0.27189,0.52917 -0.0641,0.0624 -0.20781,-0.0624 -0.2719,0 -0.0641,0.0624 0.0405,0.1857 0,0.26458 -0.0574,0.11156 -0.21458,0.15303 -0.2719,0.26459 -0.0405,0.0789 0.0405,0.1857 0,0.26458 -0.0574,0.11156 -0.18126,0.17639 -0.27189,0.26458 -0.0907,0.0882 -0.15726,0.20881 -0.2719,0.26459 -0.081,0.0394 -0.20781,-0.0624 -0.2719,0 -0.12818,0.12472 0.12817,0.40444 0,0.52916 -0.0642,0.0624 -0.19083,-0.0394 -0.27189,0 -0.54991,0.26756 -0.0872,0.61402 -0.2719,0.79375 -0.0641,0.0624 -0.20782,-0.0624 -0.2719,0 -0.0641,0.0624 0.0641,0.20223 0,0.26459 -0.0641,0.0624 -0.20781,-0.0624 -0.27189,0 -0.0641,0.0624 0.0641,0.20222 0,0.26458 -0.0641,0.0624 -0.20782,-0.0624 -0.2719,0 -0.04,0.0389 0.032,0.79375 0,0.79375 -0.0907,0 -0.0811,-0.22514 0,-0.26458 0.16212,-0.0789 0.38166,0.0789 0.54379,0 0.081,-0.0394 -0.0641,-0.20222 0,-0.26459 0.12817,-0.12472 0.38167,0.0789 0.5438,0 0.11463,-0.0558 0.16524,-0.19539 0.27189,-0.26458 0.21515,-0.13958 1.39134,-0.71589 1.63138,-0.79375 0.086,-0.0279 0.19084,0.0394 0.2719,0 1.28395,-0.6247 -1.65955,0.13915 1.08759,-0.52917 0.26378,-0.0642 0.55191,0.0642 0.8157,0 0.1966,-0.0478 0.35153,-0.20222 0.54379,-0.26458 0.086,-0.0279 0.18396,0.0214 0.2719,0 0.27804,-0.0676 0.53763,-0.19694 0.81569,-0.26458 0.0879,-0.0214 0.18249,0.0145 0.27189,0 0.45585,-0.0739 0.90091,-0.20881 1.35949,-0.26459 0.2698,-0.0328 0.5519,0.0642 0.81569,0 0.12435,-0.0302 0.15029,-0.22514 0.27189,-0.26458 0.17197,-0.0558 0.36605,0.0346 0.5438,0 0.28103,-0.0547 0.53765,-0.19694 0.81569,-0.26458 0.35312,-0.0859 1.01331,0.0842 1.35948,0 0.19661,-0.0478 0.34507,-0.22591 0.54379,-0.26459 0.28713,-0.0559 1.51006,0 1.90329,0 1.17821,0 2.35644,0 3.53465,0 0.5438,0 1.0876,0 1.63138,0 0.0907,0 0.20783,0.0624 0.27191,0 0.0641,-0.0624 -0.0642,-0.20222 0,-0.26458 0.0641,-0.0624 0.18126,0 0.27189,0 0.0907,0 0.18126,0 0.27189,0 0.0907,0 0.27191,-0.0882 0.27191,0 0,0.12473 -0.21459,0.15303 -0.27191,0.26458 -0.0405,0.0789 0.0641,0.20223 0,0.26459 -0.0642,0.0624 -0.20781,-0.0624 -0.27189,0 -0.0641,0.0624 0.0405,0.1857 0,0.26458 -0.10385,0.20211 -0.75432,0.61459 -0.81569,0.79375 -0.0574,0.16734 0.12818,0.40444 0,0.52917 -0.12817,0.12472 -0.37183,-0.0558 -0.5438,0 -0.52513,0.17033 -0.095,0.44953 -0.27189,0.79375 -0.0405,0.0789 -0.19084,-0.0394 -0.27189,0 -0.11465,0.0558 -0.18127,0.17639 -0.27191,0.26458 -0.0907,0.0882 -0.20079,0.16081 -0.27189,0.26458 -0.11242,0.16409 -0.12859,0.38972 -0.27189,0.52917 -0.0642,0.0624 -0.1965,-0.0489 -0.27191,0 -0.21329,0.13837 -0.3305,0.3908 -0.54378,0.52917 -0.0754,0.0489 -0.20782,-0.0624 -0.27191,0 -0.1433,0.13945 -0.15949,0.36508 -0.27189,0.52916 -0.45088,0.65814 -0.0624,0.0304 -0.5438,0.26459 -0.60118,0.2925 -0.0844,0.16421 -0.27189,0.52916 -0.25029,0.48711 -0.56541,0.0421 -0.81569,0.52917 -0.0405,0.0789 0.0642,0.20222 0,0.26458 -0.14331,0.13945 -0.35154,0.20223 -0.5438,0.26459 -0.086,0.0279 -0.20781,-0.0624 -0.2719,0 -0.12816,0.12472 0.0811,0.3714 0,0.52916 -0.56578,1.10114 0.0188,-0.28285 -0.54379,0.26459 -0.0641,0.0624 0.0642,0.20222 0,0.26458 -0.0641,0.0624 -0.19084,-0.0394 -0.2719,0 -0.22107,0.10757 -0.22497,0.41971 -0.54379,0.26458 -0.11464,-0.0558 -0.18126,-0.17639 -0.2719,-0.26458 -0.0907,-0.0882 -0.21457,-0.15302 -0.2719,-0.26458 -0.081,-0.15777 0.12817,-0.40444 0,-0.52917 -0.0642,-0.0624 -0.2078,0.0624 -0.27189,0 -0.0642,-0.0624 0.0641,-0.20222 0,-0.26458 -0.0642,-0.0624 -0.20781,0.0624 -0.2719,0 -0.0641,-0.0624 0.0642,-0.20222 0,-0.26459 -0.0641,-0.0624 -0.20781,0.0624 -0.2719,0 -0.12818,-0.12472 0.0811,-0.3714 0,-0.52916 -0.11464,-0.22312 -0.42915,-0.30605 -0.54379,-0.52917 -0.0405,-0.0789 0.0405,-0.1857 0,-0.26458 -0.11464,-0.22312 -0.42916,-0.30605 -0.54379,-0.52917 -0.0405,-0.0789 0.0641,-0.20222 0,-0.26458 -0.0642,-0.0624 -0.20782,0.0624 -0.2719,0 -0.0641,-0.0624 0.0405,-0.1857 0,-0.26459 -0.11464,-0.22311 -0.42916,-0.30605 -0.54379,-0.52916 -0.081,-0.15777 0.12817,-0.40444 0,-0.52917 -0.0641,-0.0624 -0.19084,0.0394 -0.2719,0 -0.11464,-0.0558 -0.15725,-0.2088 -0.2719,-0.26458 -0.081,-0.0394 -0.20781,0.0624 -0.27189,0 -0.0642,-0.0624 0.0405,-0.1857 0,-0.26459 -0.0574,-0.11155 -0.21458,-0.15302 -0.2719,-0.26458 -0.0405,-0.0789 0.0641,-0.20222 0,-0.26458 -0.0642,-0.0624 -0.20782,0.0624 -0.2719,0 -0.0641,-0.0624 -0.0641,-0.20222 0,-0.26459 0.0642,-0.0624 0.18127,0 0.2719,0 0.81569,0 1.63138,0 2.44707,0 2.44707,0 4.89415,0 7.34122,0 4.16909,0 8.33817,0 12.50725,0 1.54076,0 3.08151,0 4.62226,0 0.17496,0 1.71927,0.0448 1.90327,0 0.19661,-0.0478 0.34719,-0.21675 0.5438,-0.26458 0.26378,-0.0642 0.5438,0 0.81569,0 0.63443,0 1.26885,0 1.90327,0 0.18127,0 0.36254,0 0.5438,0 0.0907,0 0.27189,-0.0882 0.27189,0 0,0.0882 -0.36251,0 -0.27189,0 0.18127,0 0.36254,0 0.5438,0 0.0907,0 0.20781,-0.0624 0.27189,0 0.0641,0.0624 -0.0642,0.20222 0,0.26458 0.0641,0.0624 0.20781,-0.0624 0.27189,0 0.0642,0.0624 -0.081,0.22515 0,0.26459 0.21753,0.10583 0.59819,-0.10584 0.8157,0 0.82917,0.40343 -0.49728,0.20975 0.81569,0.52916 0.17586,0.0428 0.37183,-0.0558 0.5438,0 0.1216,0.0394 0.15725,0.20881 0.2719,0.26459 0.081,0.0394 0.18397,-0.0214 0.2719,0 0.27804,0.0676 0.53465,0.20989 0.81569,0.26458 0.17774,0.0346 0.37183,-0.0558 0.54379,0 0.12159,0.0394 0.15726,0.20881 0.2719,0.26458 0.0811,0.0395 0.18591,-0.0279 0.27189,0 0.19226,0.0624 0.35154,0.20223 0.5438,0.26459 0.086,0.0279 0.18591,-0.0279 0.27189,0 1.08759,0.35277 -0.0549,0.25388 1.35949,0.52916 0.17774,0.0346 0.36252,0 0.54379,0 0.45316,0 0.90633,0 1.35948,0 0.18128,0 0.37184,-0.0558 0.5438,0 0.12159,0.0394 0.14755,0.23434 0.27189,0.26459 0.90632,0.22048 0.60422,-0.14699 1.35949,0 0.28104,0.0547 0.53299,0.21873 0.8157,0.26458 0.33312,0.054 1.28625,-0.084 1.63138,0 0.1966,0.0478 0.34507,0.22591 0.54379,0.26458 0.26662,0.0519 0.54379,0 0.81569,0 0.72506,0 1.45011,0 2.17517,0 0.18127,0 0.36254,0 0.5438,0 0.18126,0 0.36794,-0.0428 0.54379,0 0.19661,0.0478 0.35153,0.20223 0.54379,0.26459 0.086,0.0279 0.18128,0 0.2719,0 0.18127,0 0.36253,0 0.54379,0 0.5438,0 1.08759,0 1.63138,0 0.0907,0 0.18128,0 0.2719,0 0.0907,0 0.19083,-0.0394 0.27191,0 0.11464,0.0558 0.15724,0.2088 0.27189,0.26458 0.0807,0.0392 1.3684,0 1.63138,0 0.99696,0 1.99392,0 2.99087,0 0.18912,0 1.26116,-0.0478 1.35948,0 0.11464,0.0558 0.15726,0.20881 0.2719,0.26458 0.16212,0.0789 0.41563,-0.12472 0.54379,0 0.0641,0.0624 -0.0642,0.20223 0,0.26459 0.0556,0.0541 0.7079,-0.0525 0.81569,0 0.11464,0.0558 0.15726,0.2088 0.2719,0.26458 0.1078,0.0524 0.76011,-0.0541 0.81569,0 0.0642,0.0624 -0.0642,0.20222 0,0.26458 0.0642,0.0624 0.18127,0 0.2719,0 0.18912,0 1.26116,-0.0478 1.35949,0 0.11464,0.0558 0.15724,0.20881 0.2719,0.26459 0.16212,0.0789 0.38165,-0.0789 0.54379,0 0.11465,0.0558 0.15725,0.2088 0.2719,0.26458 0.16212,0.0789 0.41561,-0.12472 0.54379,0 0.0642,0.0624 -0.0641,0.20222 0,0.26458 0.0556,0.0541 0.70788,-0.0524 0.81569,0 0.11465,0.0558 0.15725,0.20881 0.2719,0.26459 0.0811,0.0394 0.20781,-0.0624 0.27189,0 0.0641,0.0624 -0.0642,0.20222 0,0.26458 0.0555,0.0541 0.70789,-0.0525 0.81569,0 0.22928,0.11156 0.31452,0.41761 0.5438,0.52917 0.0811,0.0394 0.19083,-0.0394 0.27189,0 0.11464,0.0558 0.15726,0.2088 0.2719,0.26458 0.16212,0.0789 0.38167,-0.0789 0.54379,0 0.11464,0.0558 0.15726,0.20881 0.2719,0.26458 0.16212,0.0789 0.38167,-0.0789 0.54379,0 0.22929,0.11156 0.31452,0.41761 0.5438,0.52917 0.0811,0.0394 0.19083,-0.0394 0.27189,0 0.11464,0.0558 0.15726,0.20881 0.2719,0.26458 0.0811,0.0394 0.18128,0 0.2719,0 0.0907,0 0.18127,0 0.27189,0 0.2719,0 0.55776,-0.0837 0.81569,0 0.1216,0.0394 0.15031,0.22515 0.27191,0.26459 0.17197,0.0558 0.38166,-0.0789 0.54379,0 0.081,0.0394 -0.0811,0.22514 0,0.26458 0.0851,0.0414 1.46291,0 1.63138,0 0.23336,0 2.03045,-0.0469 2.17518,0 0.1216,0.0394 0.14755,0.23433 0.27189,0.26458 0.26379,0.0642 0.55191,-0.0642 0.81569,0 0.12436,0.0302 0.15726,0.20881 0.2719,0.26459 0.0811,0.0394 0.18127,0 0.2719,0 0.18126,0 0.36253,0 0.54379,0 0.27759,0 1.77119,-0.0428 1.90328,0 0.1216,0.0394 0.15726,0.2088 0.27189,0.26458 0.0948,0.0461 1.43179,0 1.63139,0 1.0876,0 2.17518,0 3.26276,0 0.22769,0 1.15272,-0.0503 1.35949,0 0.19661,0.0478 0.34718,0.21675 0.5438,0.26458 0.17584,0.0428 0.36252,0 0.54378,0 0.18126,0 0.36254,0 0.5438,0 0.99696,0 1.99391,0 2.99088,0 0.54378,0 1.08758,0 1.63138,0 0.18126,0 0.38166,-0.0789 0.54378,0 0.0811,0.0395 -0.086,0.2367 0,0.26459 0.19465,0.0631 1.50966,0 1.90329,0 1.45011,0 2.90023,0 4.35034,0 1.63139,0 3.26277,0 4.89415,0 0.63443,0 1.26885,0 1.90328,0 0.18126,0 0.36794,0.0428 0.54379,0 0.19661,-0.0478 0.35154,-0.20222 0.5438,-0.26459 0.086,-0.0279 0.19083,0.0395 0.27189,0 0.11464,-0.0558 0.15725,-0.2088 0.2719,-0.26458 0.081,-0.0394 0.18398,0.0214 0.2719,0 0.27805,-0.0676 0.53764,-0.19694 0.81569,-0.26458 0.0879,-0.0214 0.19083,0.0394 0.27189,0 0.11465,-0.0558 0.15725,-0.20881 0.2719,-0.26459 0.16886,-0.0822 1.45716,0.0848 1.63139,0 0.11464,-0.0558 0.15725,-0.2088 0.2719,-0.26458 0.0811,-0.0394 0.19082,0.0394 0.27189,0 1.24437,-0.60544 -1.15378,0.10966 0.81569,-0.52917 0.18702,-0.0607 0.65526,0.0781 0.81569,0 1.24437,-0.60544 -1.15378,0.10967 0.81569,-0.52916 0.086,-0.0279 0.18127,0 0.2719,0 0.0907,-0.0882 0.15726,-0.20881 0.2719,-0.26459 0.0811,-0.0394 0.20781,0.0624 0.27189,0 0.0642,-0.0624 -0.0405,-0.1857 0,-0.26458 0.56579,-1.10113 -0.0188,0.28285 0.5438,-0.26458 0.0642,-0.0624 -0.0405,-0.1857 0,-0.26459 0.56577,-1.10113 -0.0188,0.28285 0.54379,-0.26458 0.0642,-0.0624 -0.0641,-0.20222 0,-0.26458 0.0642,-0.0624 0.20781,0.0624 0.2719,0 0.12817,-0.12473 -0.12818,-0.40444 0,-0.52917 0.56257,-0.54743 -0.022,0.83655 0.54379,-0.26458 0,-0.70556 -0.0907,0.0882 0.2719,-0.26459 0.0642,-0.0624 -0.0642,-0.20222 0,-0.26458 0.0642,-0.0624 0.20781,0.0624 0.27189,0 0.56257,-0.54743 -0.85967,0.0214 0.2719,-0.52917 0.37505,-0.18247 0.24321,0.32043 0.54379,-0.26458 0.0405,-0.0789 -0.0642,-0.20222 0,-0.26458 0.0641,-0.0624 0.20782,0.0624 0.2719,0 0.0642,-0.0624 -0.0641,-0.20222 0,-0.26459 0.1433,-0.13944 0.37517,-0.15519 0.54379,-0.26458 0.10665,-0.0692 0.15725,-0.2088 0.2719,-0.26458 0.0811,-0.0394 0.20781,0.0624 0.2719,0 0.0642,-0.0624 -0.0405,-0.1857 0,-0.26459 0.20822,-0.40523 0.48452,-0.2069 0.8157,-0.52916 0.0642,-0.0624 -0.0641,-0.20222 0,-0.26459 0.66038,-0.64262 0.39925,0.0787 0.81569,-0.52916 0.11241,-0.16409 0.12859,-0.38972 0.27189,-0.52917 0.12816,-0.12472 0.41562,0.12473 0.5438,0 0.1433,-0.13945 0.15948,-0.36508 0.27189,-0.52917 0.0965,-0.14084 0.67048,-0.68777 0.81569,-0.79375 2.69626,-1.96779 -0.53829,0.43741 1.35949,-0.79375 0.49751,-0.32274 0.0271,-0.33732 0.81569,-0.52916 0.17585,-0.0428 0.37183,0.0558 0.54379,0 0.1216,-0.0394 0.18126,-0.17639 0.2719,-0.26459 0.18126,-0.17639 0.33872,-0.37949 0.54379,-0.52916 0.32426,-0.23665 0.75034,-0.31038 1.08759,-0.52917 0.76991,-0.49946 -0.51531,-0.16984 1.08758,-0.79375 0.16831,-0.0655 0.37184,0.0558 0.5438,0 0.1216,-0.0394 0.16936,-0.18975 0.27189,-0.26458 0.65622,-0.47892 0.72691,-0.48596 1.3595,-0.79375 0.36252,-0.17639 0.71503,-0.3738 1.08759,-0.52917 0.33822,-0.14105 2.00226,-0.7337 2.44707,-1.05833 0.20507,-0.14967 0.32397,-0.40083 0.54379,-0.52917 0.24576,-0.14349 0.54959,-0.161 0.81569,-0.26458 0.62152,-0.24192 0.72114,-0.42104 1.35948,-0.79375 0.51636,-0.30148 1.13062,-0.46889 1.63138,-0.79375 0.62219,-0.40363 -0.17001,-0.20944 0.81569,-0.52917 0.17198,-0.0558 0.38167,0.0789 0.54381,0 0.22928,-0.11156 0.31449,-0.41761 0.54379,-0.52917 0.16213,-0.0789 0.38165,0.0789 0.54379,0 0.22929,-0.11155 0.3145,-0.4176 0.5438,-0.52916 0.0811,-0.0394 0.2078,0.0624 0.27189,0 0.0642,-0.0624 0.0642,-0.20222 0,-0.26459 -0.0641,-0.0624 -0.18127,0 -0.27189,0 -0.0907,0 -0.18129,0 -0.2719,0 -0.21888,0 -0.91692,-0.0554 -1.08759,0 -0.19225,0.0624 -0.35154,0.20223 -0.54379,0.26459 -0.17198,0.0558 -0.38167,-0.0789 -0.5438,0 -0.11465,0.0558 -0.1503,0.22514 -0.2719,0.26458 -0.17196,0.0558 -0.36252,0 -0.54379,0 -0.0907,0 -0.19084,-0.0394 -0.2719,0 -0.11464,0.0558 -0.15726,0.20881 -0.2719,0.26458 -0.21751,0.10584 -0.59816,-0.10583 -0.81569,0 -0.11464,0.0558 -0.15725,0.20881 -0.27189,0.26459 -0.10781,0.0525 -0.7601,-0.0541 -0.81569,0 -0.0642,0.0624 0.0641,0.20222 0,0.26458 -0.26822,0.26101 -0.5438,-0.54215 -0.5438,0.26458 0,0.0882 0.0642,0.20223 0,0.26459 -0.0641,0.0624 -0.27189,0.0882 -0.27189,0 0,-0.0882 0.18126,0 0.27189,0 0.0907,0 0.18126,0 0.2719,0 0.21696,0 1.19636,-0.0529 1.35948,0 0.19226,0.0624 0.35153,0.20222 0.5438,0.26458 0.086,0.0279 0.18127,0 0.27189,0 0.25527,0 1.2037,-0.0505 1.35949,0 0.12159,0.0394 0.15726,0.20881 0.27189,0.26458 0.0811,0.0395 0.18128,0 0.27191,0 0.2719,0 0.54907,-0.0519 0.81569,0 0.19872,0.0387 0.34718,0.21676 0.54379,0.26459 0.3517,0.0856 0.7359,-0.0856 1.08759,0 0.19661,0.0478 0.34718,0.21675 0.54379,0.26458 0.17587,0.0428 0.36252,0 0.5438,0 0.18127,0 0.36252,0 0.54379,0 0.0907,0 0.18592,-0.0279 0.2719,0 0.19226,0.0624 0.34718,0.21675 0.54379,0.26458 0.26377,0.0642 0.55774,-0.0837 0.81569,0 0.38452,0.12473 0.69437,0.43351 1.08759,0.52917 0.17586,0.0428 0.36252,0 0.54379,0 0.0907,0 0.19085,-0.0394 0.2719,0 0.11463,0.0558 0.15726,0.20881 0.27189,0.26458 0.17345,0.0844 1.28682,-0.0707 1.35949,0 0.0642,0.0624 -0.0641,0.20223 0,0.26459 0.0642,0.0624 0.20781,-0.0624 0.27189,0 0.12818,0.12472 -0.12816,0.40444 0,0.52916 0.12818,0.12473 0.41564,-0.12472 0.54381,0 0.56254,0.54744 -0.85969,-0.0214 0.27189,0.52917 0.10098,0.0492 1.67132,0 1.90328,0 0.0907,0 0.18127,0 0.2719,0 0.0907,0 0.2078,-0.0624 0.27189,0 0.0641,0.0624 -0.0811,0.22514 0,0.26458 0.16271,0.0792 1.46192,-0.0824 1.63138,0 0.11463,0.0558 0.1503,0.22515 0.2719,0.26459 0.25795,0.0837 0.54379,0 0.81569,0 0.63442,0 1.26887,0 1.90328,0 0.72507,0 1.45011,0 2.17519,0 0.14216,0 1.01609,0.0348 1.08758,0 0.11463,-0.0558 0.15726,-0.20881 0.27189,-0.26459 0.0811,-0.0394 0.19085,0.0394 0.27191,0 0.11462,-0.0558 0.15726,-0.2088 0.27189,-0.26458 0.081,-0.0394 0.2078,0.0624 0.27189,0 0.36252,-0.35278 -0.57677,-0.25388 0.27191,-0.52917 0.17197,-0.0558 0.38165,0.0789 0.54378,0 0.0811,-0.0394 -0.0405,-0.1857 0,-0.26458 0.56579,-1.10113 -0.0187,0.28285 0.5438,-0.26458 0.0641,-0.0624 -0.0405,-0.1857 0,-0.26459 0.0574,-0.11155 0.18127,-0.17639 0.27189,-0.26458 0.0907,-0.0882 0.15727,-0.2088 0.27191,-0.26458 0.0811,-0.0394 0.19646,0.0489 0.27189,0 0.21331,-0.13837 0.36252,-0.35278 0.5438,-0.52917 0.0907,-0.0882 0.15726,-0.2088 0.27189,-0.26458 0.0811,-0.0394 0.19084,0.0394 0.27189,0 0.2293,-0.11156 0.31452,-0.41761 0.5438,-0.52917 0.66968,-0.32583 -0.24544,0.76802 0.81569,-0.26458 0.0641,-0.0624 -0.0642,-0.20222 0,-0.26459 0.68678,-0.66831 0.31344,-0.10166 0.81569,-0.26458 0.19226,-0.0624 0.37516,-0.15519 0.5438,-0.26458 0.10664,-0.0692 0.21458,-0.15303 0.27189,-0.26459 0.0405,-0.0789 -0.086,-0.23669 0,-0.26458 0.25795,-0.0837 0.55775,0.0837 0.81569,0 0.086,-0.0279 -0.0754,-0.21566 0,-0.26458 0.23849,-0.15471 0.57721,-0.10988 0.8157,-0.26459 0.0754,-0.0489 -0.0811,-0.22514 0,-0.26458 0.32426,-0.15776 0.74366,0.11156 1.08758,0 0.12159,-0.0394 0.16527,-0.1954 0.27191,-0.26458 0.16862,-0.10939 0.36251,-0.17639 0.54378,-0.26459 0.18128,-0.0882 0.35154,-0.20222 0.5438,-0.26458 0.21884,-0.071 0.91384,0.0845 1.08758,0 0.82918,-0.40343 -0.49726,-0.20975 0.81569,-0.52917 0.17587,-0.0428 0.38167,0.0789 0.5438,0 0.0811,-0.0394 -0.0811,-0.22514 0,-0.26458 0.24451,-0.11897 1.38687,0.11898 1.63138,0 0.0811,-0.0394 -0.0811,-0.22514 0,-0.26458 0.16213,-0.0789 0.36793,0.0428 0.5438,0 0.19661,-0.0478 0.34718,-0.21675 0.54378,-0.26459 0.17587,-0.0428 0.36794,0.0428 0.5438,0 0.19661,-0.0478 0.35154,-0.20222 0.5438,-0.26458 0.086,-0.0279 0.18592,0.0279 0.27189,0 0.19227,-0.0624 0.35154,-0.20222 0.54381,-0.26458 0.1631,-0.0529 1.1425,0 1.35947,0 0.0907,0 0.18592,0.0279 0.27191,0 0.19225,-0.0624 0.35563,-0.19134 0.54379,-0.26459 0.2661,-0.10357 0.54379,-0.17638 0.81569,-0.26458 0.2719,-0.0882 0.53765,-0.19694 0.81569,-0.26458 0.0879,-0.0214 0.18396,0.0214 0.2719,0 0.27803,-0.0676 0.53764,-0.19694 0.81569,-0.26459 0.0879,-0.0214 0.19084,0.0394 0.27189,0 0.11463,-0.0558 0.1503,-0.22514 0.2719,-0.26458 0.37124,-0.12042 1.26013,0.12042 1.63138,0 0.12159,-0.0394 0.15031,-0.22514 0.2719,-0.26458 0.17198,-0.0558 0.36793,0.0428 0.54379,0 0.39322,-0.0957 0.69438,-0.43351 1.08759,-0.52917 0.17587,-0.0428 0.36604,0.0346 0.54379,0 0.56237,-0.10945 1.76947,-0.68095 2.17518,-0.79375 0.41272,-0.11474 1.2042,0.10392 1.63138,0 0.19662,-0.0478 0.35154,-0.20222 0.5438,-0.26458 0.70902,-0.22999 1.46615,-0.29918 2.17517,-0.52917 0.19226,-0.0624 0.35564,-0.19134 0.54379,-0.26458 0.26611,-0.10358 0.55935,-0.13986 0.81569,-0.26459 0.11464,-0.0558 0.15031,-0.22514 0.2719,-0.26458 0.17198,-0.0558 0.36793,0.0428 0.54379,0 0.19662,-0.0478 0.35154,-0.20222 0.5438,-0.26458 0.086,-0.0279 0.18127,0 0.27189,0 0.55278,0 0.81081,0.0558 1.3595,-0.26459 0.21982,-0.12834 0.33049,-0.39079 0.54379,-0.52916 0.0754,-0.0489 0.18591,0.0279 0.2719,0 0.19225,-0.0624 0.35154,-0.20222 0.54379,-0.26459 0.086,-0.0279 0.19084,0.0394 0.2719,0 0.11462,-0.0558 0.15726,-0.2088 0.27189,-0.26458 0.16213,-0.0789 0.37183,0.0558 0.5438,0 0.19225,-0.0624 0.35154,-0.20222 0.54379,-0.26458 0.086,-0.0279 0.19084,0.0394 0.2719,0 0.11462,-0.0558 0.15726,-0.20881 0.27189,-0.26459 0.0811,-0.0394 0.20782,0.0624 0.2719,0 0.0641,-0.0624 -0.0641,-0.20222 0,-0.26458 0.0641,-0.0624 0.20781,0.0624 0.2719,0 0.0641,-0.0624 -0.0642,-0.20222 0,-0.26458 0.12817,-0.12473 0.41562,0.12472 0.54379,0 0.0641,-0.0624 -0.0642,-0.20222 0,-0.26459 0.0556,-0.0541 0.70789,0.0525 0.81569,0 0.11463,-0.0558 0.15727,-0.2088 0.2719,-0.26458 0.1078,-0.0525 0.76012,0.0541 0.81569,0 0.0641,-0.0624 -0.0641,-0.20222 0,-0.26458 0.008,-0.009 0.74975,0 0.81569,0 0.0907,0 0.18127,0 0.2719,0 0.0907,0 0.19084,0.0394 0.27189,0 0.11464,-0.0558 0.15727,-0.20881 0.2719,-0.26459 0.16214,-0.0789 0.41563,0.12473 0.54379,0 0.0641,-0.0624 -0.0641,-0.20222 0,-0.26458 0.0109,-0.0106 0.98775,0 1.0876,0 0.0998,0 1.07665,0.0106 1.08759,0 0.0642,-0.0624 -0.0642,-0.20222 0,-0.26458 0.12816,-0.12473 0.61111,0.16377 0.54379,0 -0.19629,-0.47748 -0.54379,-0.88195 -0.81569,-1.32292"
       id="path827"
       inkscape:connector-curvature="0"
       inkscape:export-xdpi="96"
       inkscape:export-ydpi="96" />
  </g>
  <g
     inkscape:groupmode="layer"
     id="layer1"
     inkscape:label="Layer 2"
     sodipodi:insensitive="true"
     style="display:inline">
    <path
       style="fill:none;stroke:#fefefe;stroke-width:0.26458332px;stroke-linecap:butt;stroke-linejoin:miter;stroke-opacity:1"
       d="m 346.60416,121.70833 c 0.44098,0 0.89051,0.0865 1.32292,0 0.008,-0.002 0,-1.24179 0,-1.85208 0,-0.44097 0,-0.88195 0,-1.32292 0,-0.17639 0.0558,-0.36183 0,-0.52916 -0.12473,-0.37418 -0.40444,-0.68416 -0.52917,-1.05834 -0.0279,-0.0837 0.0394,-0.1857 0,-0.26458 -0.0558,-0.11156 -0.20881,-0.15303 -0.26458,-0.26458 -0.0394,-0.0789 0.0489,-0.19121 0,-0.26459 -1.20446,-1.20446 -0.13986,0.10959 -0.52917,-1.05833 -0.0789,-0.23665 -0.45029,-0.29252 -0.52916,-0.52917 -0.0558,-0.16734 0.0789,-0.3714 0,-0.52916 -0.0394,-0.0789 -0.20223,0.0624 -0.26459,0 -0.13943,-0.13945 -0.14626,-0.37141 -0.26458,-0.52917 -0.14968,-0.19956 -0.37949,-0.32961 -0.52917,-0.52917 -0.11832,-0.15776 -0.14626,-0.3714 -0.26458,-0.52916 -0.14968,-0.19957 -0.37949,-0.32961 -0.52917,-0.52917 -0.11832,-0.15777 -0.14626,-0.3714 -0.26458,-0.52917 -0.14968,-0.19956 -0.37949,-0.3296 -0.52917,-0.52916 -0.11832,-0.15777 -0.14626,-0.37141 -0.26458,-0.52917 -0.14968,-0.19956 -0.37949,-0.32961 -0.52917,-0.52917 -0.11832,-0.15776 -0.10049,-0.41977 -0.26458,-0.52916 -0.14677,-0.0978 -0.3824,0.0978 -0.52917,0 -0.23685,-0.15791 -0.34462,-1.02351 -0.79375,-1.32292 -0.58557,-0.39039 -0.60058,-0.10711 -1.05833,-0.79375 -0.0489,-0.0734 0.0624,-0.20222 0,-0.26458 -0.97597,-0.97598 -0.10676,0.6336 -1.05833,-0.79375 -0.0489,-0.0734 0.0624,-0.20223 0,-0.26459 -0.13944,-0.13945 -0.3714,-0.14626 -0.52917,-0.26458 -0.1764,-0.17639 -0.35277,-0.35278 -0.52917,-0.52917 0,-0.0882 0.0489,-0.1912 0,-0.26458 -0.95157,-1.42736 -0.0824,0.18223 -1.05833,-0.79375 -0.13944,-0.13945 -0.14626,-0.3714 -0.26458,-0.52917 -0.14968,-0.19956 -0.35277,-0.35277 -0.52917,-0.52916 -0.0882,-0.0882 -0.16081,-0.1954 -0.26458,-0.26459 -0.1641,-0.10939 -0.3714,-0.14626 -0.52917,-0.26458 -0.76293,-0.5722 -0.34303,-0.38227 -0.79375,-1.05833 -0.0692,-0.10378 -0.1764,-0.17639 -0.26458,-0.26459 -0.35277,-0.35277 -0.67506,-0.73894 -1.05834,-1.05833 -0.1515,-0.126252 -0.41084,-0.106819 -0.52916,-0.264585 -0.16735,-0.223115 -0.0972,-0.570634 -0.26459,-0.79375 -0.23664,-0.315534 -0.77943,-0.250272 -1.05833,-0.529166 -0.22484,-0.224854 -0.33052,-0.545441 -0.52917,-0.79375 -0.15584,-0.194789 -0.35277,-0.352777 -0.52916,-0.529167 -0.44099,-0.440973 -0.88194,-0.881943 -1.32292,-1.322917 -0.1764,-0.176389 -0.37333,-0.334377 -0.52917,-0.529166 -0.19865,-0.248309 -0.36557,-0.521076 -0.52916,-0.79375 -0.10147,-0.169106 -0.10049,-0.419775 -0.26459,-0.529167 -0.14676,-0.09784 -0.38806,0.105833 -0.52916,0 -0.2544,-0.190794 -0.33052,-0.545441 -0.52917,-0.79375 -0.15584,-0.194789 -0.35277,-0.352777 -0.52917,-0.529166 -0.35277,-0.352777 -0.70556,-0.705557 -1.05833,-1.058334 -0.52917,-0.529166 -1.05833,-1.058333 -1.5875,-1.5875 -0.1764,-0.17639 -0.37949,-0.329604 -0.52917,-0.529166 -0.11832,-0.157766 -0.12515,-0.389718 -0.26458,-0.529167 -0.13944,-0.139449 -0.3714,-0.146259 -0.52917,-0.264583 -0.19955,-0.149673 -0.35277,-0.352777 -0.52916,-0.529167 -0.1764,-0.17639 -0.3795,-0.329605 -0.52917,-0.529167 -0.11832,-0.157766 -0.14626,-0.371401 -0.26458,-0.529166 -0.69438,-0.92582 -0.2857,-0.214271 -1.05834,-0.79375 -0.71157,-0.533681 -0.60825,-0.872842 -1.32291,-1.5875 -0.13944,-0.139449 -0.3714,-0.146259 -0.52917,-0.264584 -0.19955,-0.149672 -0.32962,-0.379494 -0.52917,-0.529166 -0.15777,-0.118325 -0.38973,-0.125135 -0.52916,-0.264584 -0.22485,-0.224853 -0.36558,-0.521075 -0.52917,-0.79375 -0.10147,-0.169105 -0.12515,-0.389718 -0.26458,-0.529166 -0.31182,-0.311814 -0.73327,-0.495774 -1.05834,-0.79375 -0.73554,-0.674243 -1.37834,-1.445469 -2.11666,-2.116667 -0.2353,-0.213902 -0.56891,-0.304313 -0.79375,-0.529167 -0.13944,-0.139448 -0.12515,-0.389718 -0.26459,-0.529166 -0.13943,-0.139449 -0.38973,-0.125135 -0.52916,-0.264584 -0.22485,-0.224853 -0.27477,-0.602956 -0.52917,-0.79375 -0.1411,-0.105833 -0.3824,0.09784 -0.52917,0 -0.16409,-0.109392 -0.16311,-0.360061 -0.26458,-0.529166 -0.16359,-0.272675 -0.30432,-0.568897 -0.52917,-0.79375 -0.13943,-0.139449 -0.38973,-0.125135 -0.52916,-0.264584 -0.13944,-0.139448 -0.10682,-0.410842 -0.26459,-0.529166 -0.22312,-0.167339 -0.57062,-0.09725 -0.79375,-0.264584 -0.15777,-0.118324 -0.14626,-0.371401 -0.26458,-0.529166 -0.7855,-1.047319 -0.28149,-0.01691 -1.32292,-1.058334 -0.13943,-0.139448 -0.12515,-0.389718 -0.26458,-0.529166 -0.13944,-0.139449 -0.3714,-0.146259 -0.52917,-0.264584 -0.19955,-0.149672 -0.35277,-0.352776 -0.52916,-0.529166 -0.31007,-0.310052 -1.63097,-1.719421 -1.85209,-1.852084 -0.15126,-0.09075 -0.3824,0.09784 -0.52916,0 -0.1641,-0.109392 -0.12515,-0.389718 -0.26459,-0.529166 -0.39931,-0.399317 -0.89416,-0.690819 -1.32291,-1.058334 -0.4735,-0.405852 -0.88194,-0.881943 -1.32292,-1.322916 -0.0882,-0.08819 -0.15304,-0.208804 -0.26458,-0.264584 -0.24945,-0.124724 -0.57598,-0.09036 -0.79375,-0.264583 -0.24832,-0.198646 -0.30433,-0.568896 -0.52917,-0.79375 -0.22484,-0.224853 -0.54544,-0.33052 -0.79375,-0.529166 -0.38957,-0.311664 -0.65921,-0.758992 -1.05833,-1.058334 -0.15777,-0.118324 -0.34608,-0.191341 -0.52917,-0.264583 -0.25895,-0.103579 -0.57597,-0.09036 -0.79375,-0.264583 -0.24831,-0.198647 -0.28086,-0.595104 -0.52917,-0.79375 -0.21778,-0.174226 -0.59653,-0.06737 -0.79375,-0.264584 -0.19722,-0.19721 -0.0904,-0.575969 -0.26458,-0.79375 -0.19865,-0.248309 -0.54544,-0.33052 -0.79375,-0.529166 -0.19479,-0.155832 -0.30604,-0.417608 -0.52917,-0.529167 -0.15777,-0.07888 -0.3779,0.09075 -0.52916,0 -0.32086,-0.192514 -0.50157,-0.560004 -0.79375,-0.79375 -0.15399,-0.123195 -0.3714,-0.146259 -0.52917,-0.264583 -0.19955,-0.149673 -0.33438,-0.373335 -0.52917,-0.529167 -0.24831,-0.198647 -0.54544,-0.33052 -0.79375,-0.529167 -0.29218,-0.233746 -0.4944,-0.569243 -0.79375,-0.79375 -0.25439,-0.190793 -0.53498,-0.344339 -0.79375,-0.529166 -0.35882,-0.25631 -0.68439,-0.560036 -1.05833,-0.79375 -0.33446,-0.209042 -0.73017,-0.310383 -1.05833,-0.529167 -0.79375,-0.529167 -0.26459,-0.396875 -0.79375,-0.79375 -0.5088,-0.381587 -1.04214,-0.731126 -1.5875,-1.058333 -0.1691,-0.101463 -0.37767,-0.138332 -0.52917,-0.264584 -0.38328,-0.319389 -0.67953,-0.733652 -1.05833,-1.058333 -1.56118,-1.338154 -0.0225,0.145235 -1.5875,-0.79375 -0.42781,-0.256683 -0.66876,-0.74667 -1.05834,-1.058333 -0.49662,-0.397293 -1.09087,-0.661041 -1.5875,-1.058334 -0.19478,-0.155831 -0.3216,-0.390795 -0.52916,-0.529166 -0.32817,-0.218784 -0.70557,-0.352777 -1.05834,-0.529167 -0.17639,-0.08819 -0.37139,-0.146259 -0.52916,-0.264583 -0.58796,-0.440973 -0.66146,-0.881944 -1.32292,-1.322917 -0.23207,-0.154704 -0.55459,-0.121092 -0.79375,-0.264583 -0.21392,-0.128342 -0.3216,-0.390795 -0.52917,-0.529167 -0.32816,-0.218784 -0.73017,-0.310383 -1.05833,-0.529167 -0.4151,-0.276741 -0.63053,-0.80165 -1.05833,-1.058333 -0.23916,-0.143491 -0.5443,-0.139859 -0.79375,-0.264583 -1.08583,-0.542909 -0.50261,-0.40208 -1.32292,-1.058334 -0.24831,-0.198646 -0.54544,-0.33052 -0.79375,-0.529166 -0.19479,-0.155832 -0.32962,-0.379495 -0.52917,-0.529167 -0.46236,-0.346779 -0.7893,-0.262366 -1.32291,-0.529167 -2.49565,-1.247822 0.0579,-0.04957 -1.05834,-0.79375 -0.42789,-0.285257 -0.87641,-0.538607 -1.32291,-0.79375 -0.17123,-0.09784 -0.3714,-0.146259 -0.52917,-0.264583 -0.19956,-0.149672 -0.30605,-0.417608 -0.52917,-0.529166 -0.15776,-0.07888 -0.35804,0.04278 -0.52916,0 -0.19132,-0.04783 -0.34607,-0.191342 -0.52917,-0.264584 -0.25895,-0.103579 -0.59654,-0.06737 -0.79375,-0.264583 -0.12472,-0.124725 0.0978,-0.382402 0,-0.529167 -0.10949,-0.164229 -1.28837,-0.52053 -1.32292,-0.529166 -0.0856,-0.02138 -0.1857,0.03944 -0.26458,0 -0.11156,-0.05578 -0.17639,-0.17639 -0.26458,-0.264584 -0.17639,-0.17639 -0.32961,-0.379494 -0.52917,-0.529166 -0.15777,-0.118325 -0.38972,-0.125135 -0.52917,-0.264584 -0.0624,-0.06236 0.0789,-0.225142 0,-0.264583 -0.83833,-0.419169 -0.24622,0.547529 -1.05833,-0.264583 -0.0624,-0.06236 0.0624,-0.202221 0,-0.264584 -0.13945,-0.139448 -0.35278,-0.17639 -0.52917,-0.264583 -0.17639,-0.08819 -0.35277,-0.17639 -0.52916,-0.264583 -1.91839,-0.959192 0.41834,0.278894 -0.79375,-0.529167 -0.16409,-0.109392 -0.36508,-0.155191 -0.52917,-0.264583 -0.10378,-0.06919 -0.2088,-0.153025 -0.26458,-0.264584 -0.0394,-0.07888 0.0789,-0.225142 0,-0.264583 -0.15777,-0.07888 -0.38241,0.09784 -0.52917,0 -0.16409,-0.109392 -0.12513,-0.389718 -0.26458,-0.529167 -0.13945,-0.139448 -0.36508,-0.155191 -0.52917,-0.264583 -0.20755,-0.138372 -0.30605,-0.417608 -0.52917,-0.529167 -0.0789,-0.03944 -0.1857,0.03944 -0.26458,0 -0.63357,-0.316785 0.16674,-0.529166 -0.52917,-0.529166 -0.0882,0 -0.20222,-0.06236 -0.26458,0 -0.009,0.0085 0,0.72958 0,0.79375 0,1.755023 -0.12472,-0.374177 0.26458,0.79375 0.0558,0.167338 -0.0789,0.3714 0,0.529166 0.0394,0.07888 0.20222,-0.06236 0.26459,0 0.12472,0.124725 -0.0789,0.371401 0,0.529167 0.0558,0.111559 0.19539,0.160806 0.26458,0.264583 0.21878,0.328176 0.31038,0.730158 0.52917,1.058334 0.13837,0.207555 0.4176,0.306051 0.52916,0.529166 0.0394,0.07888 -0.0529,0.194027 0,0.264584 0.22451,0.299341 0.52917,0.529166 0.79375,0.79375 0.0882,0.08819 0.20881,0.153024 0.26459,0.264583 0.12472,0.249452 0.13986,0.544298 0.26458,0.79375 0.0558,0.111559 0.17639,0.17639 0.26458,0.264583 0.17639,0.17639 0.3795,0.329605 0.52917,0.529167 0.11832,0.157766 0.15519,0.36508 0.26458,0.529166 0.0692,0.103778 0.1954,0.160806 0.26459,0.264584 0.10939,0.164086 0.15519,0.36508 0.26458,0.529166 -0.0264,0.524156 0.38972,0.125135 0.52917,0.264584 0.0624,0.06236 -0.0394,0.1857 0,0.264583 0.2925,0.585007 0.16421,0.08211 0.52916,0.264583 1.10114,0.550567 -0.28285,-0.01826 0.26459,0.529167 0.12472,0.124725 0.40444,-0.124724 0.52916,0 0.0624,0.06236 0.0882,0.264583 0,0.264583 -0.0882,0 0,-0.176389 0,-0.264583 0,-0.17639 0,-0.352777 0,-0.529167 0,-0.440973 0,-0.881943 0,-1.322916 0,-0.529167 0,-1.058333 0,-1.5875 0,-0.119158 0.0403,-0.71323 0,-0.79375 -0.0558,-0.111559 -0.2088,-0.153025 -0.26458,-0.264583 -0.10583,-0.211667 0.10583,-0.582084 0,-0.79375 -0.32695,-0.653892 -0.26458,0.09133 -0.26458,-0.529167 0,-0.529167 0,-1.058333 0,-1.5875 0,-0.08819 0,-0.17639 0,-0.264583 0,-0.08819 0.0394,-0.185701 0,-0.264584 -0.0558,-0.111559 -0.20881,-0.153024 -0.26459,-0.264583 -0.0394,-0.07888 0,-0.17639 0,-0.264583 0,-0.08819 0,-0.17639 0,-0.264584 0,-0.440973 0,-0.881943 0,-1.322916 0,-0.08819 0,-0.17639 0,-0.264584 0,-0.08819 0.0394,-0.1857 0,-0.264583 -0.0558,-0.111559 -0.2088,-0.153024 -0.26458,-0.264583 -0.0342,-0.06841 0,-1.399964 0,-1.5875 0,-0.08819 0,-0.17639 0,-0.264584 0,-0.08819 0.0624,-0.202221 0,-0.264583 -0.0624,-0.06236 -0.17639,0 -0.26458,0 -0.45742,0 -0.61998,-0.02765 -1.05834,0.264583 -0.20755,0.138372 -0.29251,0.450284 -0.52916,0.529167 -0.16734,0.05578 -0.36183,-0.05578 -0.52917,0 -0.23665,0.07888 -0.30605,0.417608 -0.52917,0.529167 -0.24945,0.124724 -0.54429,0.139858 -0.79375,0.264583 -0.67218,0.336092 0.27097,0.316225 -0.79375,0.529167 -0.25944,0.05189 -0.5343,-0.05189 -0.79375,0 -1.06471,0.212942 -0.12156,0.193074 -0.79375,0.529166 -2.55531,1.277657 0.49343,-0.340862 -1.32291,0.264584 -0.11833,0.03944 -0.17639,0.176389 -0.26459,0.264583 -0.26458,0.08819 -0.52027,0.209889 -0.79375,0.264583 -0.17296,0.03459 -0.36182,-0.05578 -0.52916,0 -0.11833,0.03944 -0.17639,0.17639 -0.26459,0.264584 -0.26458,0.08819 -0.52027,0.209888 -0.79375,0.264583 -0.34592,0.06919 -0.71609,-0.08556 -1.05833,0 -0.19132,0.04783 -0.33785,0.216752 -0.52917,0.264583 -0.17112,0.04278 -0.35804,-0.04278 -0.52916,0 -1.27766,0.319416 0.0131,0.125736 -0.79375,0.529167 -0.14354,0.07176 -0.98594,-0.0724 -1.05834,0 -0.009,0.0085 0,0.72958 0,0.79375 0,0.273717 -0.0624,0.365694 0.26459,0.529167 0.0789,0.03944 0.1912,-0.04892 0.26458,0 0.19568,0.130455 0.84068,0.949507 1.05833,1.058333 0.0789,0.03944 0.1857,-0.03944 0.26459,0 0.22311,0.111559 0.30605,0.417608 0.52916,0.529167 0.15777,0.07888 0.3714,-0.07888 0.52917,0 0.22312,0.111558 0.30605,0.417607 0.52917,0.529166 0.0789,0.03944 0.1857,-0.03944 0.26458,0 0.11156,0.05578 0.14626,0.225142 0.26458,0.264584 0.16734,0.05578 0.35805,-0.04278 0.52917,0 0.19132,0.04783 0.33785,0.216751 0.52917,0.264583 0.17112,0.04278 0.35804,-0.04278 0.52916,0 0.38264,0.09566 0.6757,0.433506 1.05834,0.529167 0.23342,0.05835 0.83167,-0.07555 1.05833,0 0.18709,0.06236 0.34208,0.202221 0.52917,0.264583 0.14927,0.04976 0.61989,0 0.79375,0 0.52916,0 1.05833,0 1.5875,0 0.10082,0 1.29723,0.02569 1.32291,0 0.0624,-0.06236 -0.0789,-0.225142 0,-0.264583 0.15777,-0.07888 0.36183,0.05578 0.52917,0 0.11832,-0.03944 0.15302,-0.208804 0.26458,-0.264584 0.14354,-0.07176 0.98594,0.0724 1.05834,0 0.0624,-0.06236 -0.0624,-0.202221 0,-0.264583 0.0637,-0.06367 0.99466,0.06367 1.05833,0 0.0624,-0.06236 -0.0624,-0.202221 0,-0.264583 0.0624,-0.06236 0.20222,-0.06236 0.26458,0 0.12473,0.124724 -0.0789,0.3714 0,0.529166 0.0558,0.111559 0.22515,0.146259 0.26459,0.264584 0.0454,0.136305 0,1.572201 0,1.852083 0,0.705556 0,1.41111 0,2.116666 0,0.09014 0.0477,0.915139 0,1.058334 -0.0624,0.187089 -0.21676,0.337846 -0.26459,0.529166 -0.0428,0.171122 0.0558,0.361829 0,0.529167 -0.0394,0.118324 -0.17639,0.17639 -0.26458,0.264583 -0.0882,0.17639 -0.21675,0.337847 -0.26458,0.529167 -0.0428,0.171122 0.0346,0.356203 0,0.529167 -0.0547,0.273478 -0.19695,0.523182 -0.26459,0.79375 -0.0214,0.08556 0.0279,0.180914 0,0.264583 -0.0624,0.18709 -0.17639,0.352777 -0.26458,0.529167 -0.0882,0.176389 -0.12513,0.389718 -0.26458,0.529166 -0.13945,0.139449 -0.38972,0.125135 -0.52917,0.264584 -0.084,0.08398 -0.74335,1.436298 -0.79375,1.5875 -0.0279,0.08367 0.0279,0.180914 0,0.264583 -0.0624,0.18709 -0.17639,0.352777 -0.26458,0.529167 -0.0882,0.176389 -0.12514,0.389718 -0.26459,0.529166 -0.35277,0.352777 -0.25388,-0.561266 -0.52916,0.264584 -0.0558,0.167338 0.0789,0.371401 0,0.529166 -0.0394,0.07888 -0.17639,0 -0.26459,0 -0.0882,0.08819 -0.22514,0.146259 -0.26458,0.264584 -0.0558,0.167338 0.0789,0.371401 0,0.529166 -0.0394,0.07888 -0.20222,-0.06236 -0.26458,0 -0.0624,0.06236 0.0624,0.202221 0,0.264584 -0.54744,0.547433 0.0214,-0.836549 -0.52917,0.264583 -0.0394,0.07888 0.0624,0.202221 0,0.264583 -0.0624,0.06236 -0.20222,0.06236 -0.26458,0 -0.0624,-0.06236 0,-0.176389 0,-0.264583 0,-0.08819 0,-0.17639 0,-0.264583 0,-0.238485 0.0555,-1.156388 0,-1.322917 -0.30403,-0.912074 -0.26459,-0.195993 -0.26459,-0.79375 0,-0.09014 0.0477,-0.915138 0,-1.058333 -0.0624,-0.18709 -0.20222,-0.342077 -0.26458,-0.529167 -0.0558,-0.167338 0,-0.352777 0,-0.529167 0,-0.61736 0,-1.234723 0,-1.852083 0,-0.17639 0,-0.352777 0,-0.529167 0,-0.176389 0.0428,-0.358044 0,-0.529166 -0.0478,-0.19132 -0.21675,-0.337847 -0.26458,-0.529167 -0.0642,-0.256683 0.0642,-0.537067 0,-0.79375 -0.0676,-0.270568 -0.20989,-0.520271 -0.26459,-0.79375 -0.0519,-0.259445 0.0642,-0.537067 0,-0.79375 -0.55056,-2.202265 0.0183,0.319381 -0.52916,-1.322917 -0.0279,-0.08367 0,-0.176389 0,-0.264583 0,-0.264583 0.0519,-0.534305 0,-0.79375 -0.0387,-0.193379 -0.20222,-0.342077 -0.26459,-0.529167 -0.0279,-0.08367 0,-0.176389 0,-0.264583 -0.0882,-0.264583 -0.161,-0.534802 -0.26458,-0.79375 -0.0732,-0.183105 -0.22591,-0.335788 -0.26458,-0.529166 -0.0519,-0.259446 0.0642,-0.537068 0,-0.79375 -0.0303,-0.121002 -0.22515,-0.146259 -0.26459,-0.264584 -0.0817,-0.245112 0.0845,-1.06939 0,-1.322916 -0.0624,-0.18709 -0.21675,-0.337847 -0.26458,-0.529167 -0.0428,-0.171122 0.0558,-0.361828 0,-0.529167 -0.0394,-0.118324 -0.1954,-0.160806 -0.26458,-0.264583 -0.1094,-0.164087 -0.20222,-0.342077 -0.26459,-0.529167 -0.0837,-0.251005 0.0837,-0.542745 0,-0.79375 -0.0394,-0.118324 -0.2088,-0.153024 -0.26458,-0.264583 -0.0831,-0.166296 0.0831,-0.892037 0,-1.058333 -0.0558,-0.111559 -0.2088,-0.153025 -0.26458,-0.264584 -0.0789,-0.157765 0.0789,-0.371401 0,-0.529166 -0.60545,-1.210895 0.10966,1.122738 -0.52917,-0.79375 -0.0558,-0.167339 0.0789,-0.371401 0,-0.529167 -0.0558,-0.111559 -0.2088,-0.153024 -0.26458,-0.264583 -0.0789,-0.157766 0.12472,-0.404442 0,-0.529167 -0.12473,-0.124725 -0.40445,0.124725 -0.52917,0 -0.0624,-0.06236 0.0624,-0.202221 0,-0.264583 -0.0624,-0.06236 -0.20222,0.06236 -0.26458,0 -0.0624,-0.06236 0.0624,-0.202221 0,-0.264584 -0.0724,-0.0724 -0.9148,0.07177 -1.05834,0 -0.11156,-0.05578 -0.15302,-0.208804 -0.26458,-0.264583 -0.0789,-0.03944 -0.1857,0.03944 -0.26458,0 -0.11156,-0.05578 -0.15303,-0.208804 -0.26459,-0.264583 -0.0789,-0.03944 -0.18091,0.02789 -0.26458,0 -0.18709,-0.06236 -0.34208,-0.202221 -0.52917,-0.264584 -0.0837,-0.02789 -0.18091,0.02789 -0.26458,0 -0.18709,-0.06236 -0.33785,-0.216752 -0.52917,-0.264583 -0.17112,-0.04278 -0.35804,0.04278 -0.52916,0 -0.19132,-0.04783 -0.33579,-0.225907 -0.52917,-0.264583 -0.43241,-0.08648 -0.89511,0.106952 -1.32292,0 -0.19132,-0.04783 -0.33784,-0.216752 -0.52916,-0.264584 -0.17112,-0.04278 -0.35621,0.03459 -0.52917,0 -0.27348,-0.05469 -0.52558,-0.187965 -0.79375,-0.264583 -0.34964,-0.0999 -0.72071,-0.129532 -1.05833,-0.264583 -0.11581,-0.04632 -0.14358,-0.234334 -0.26459,-0.264584 -0.25668,-0.06417 -0.52916,0 -0.79375,0 -0.35277,-0.08819 -0.70869,-0.164684 -1.05833,-0.264583 -0.47839,0.02405 -0.89958,-0.388056 -1.32292,-0.529167 -0.34497,-0.114991 -0.70869,-0.164685 -1.05833,-0.264583 -0.26817,-0.07662 -0.51865,-0.218733 -0.79375,-0.264583 -2.31399,-0.385665 1.28525,0.707392 -2.11667,-0.264584 -0.18962,-0.05418 -0.35277,-0.176389 -0.52916,-0.264583 -0.26459,-0.08819 -0.52318,-0.196941 -0.79375,-0.264583 -0.43628,-0.10907 -0.88392,-0.167029 -1.32292,-0.264584 -0.35498,-0.07888 -0.69835,-0.213157 -1.05833,-0.264583 -0.26193,-0.03742 -0.52917,0 -0.79375,0 -0.44098,-0.08819 -0.88392,-0.167029 -1.32292,-0.264583 -0.63774,-0.03571 -1.24346,-0.37701 -1.85208,-0.529167 -0.43628,-0.109069 -0.88392,-0.167029 -1.32292,-0.264583 -0.35498,-0.07888 -0.69835,-0.213158 -1.05833,-0.264584 -0.26193,-0.03742 -0.53547,0.0574 -0.79375,0 -0.54451,-0.121002 -1.043,-0.408164 -1.5875,-0.529166 -0.25829,-0.0574 -0.53183,0.03742 -0.79375,0 -0.71996,-0.102852 -1.39502,-0.43896 -2.11667,-0.529167 -0.35005,-0.04376 -0.70828,0.04376 -1.05833,0 -0.36083,-0.0451 -0.70556,-0.176389 -1.05834,-0.264583 -0.44097,-0.08819 -0.87596,-0.214922 -1.32291,-0.264584 -0.35062,-0.03896 -0.70828,0.04376 -1.05834,0 -0.36082,-0.0451 -0.70555,-0.176389 -1.05833,-0.264583 -0.44097,-0.08819 -0.87596,-0.214921 -1.32292,-0.264583 -0.35062,-0.03896 -0.70827,0.04376 -1.05833,0 -0.36083,-0.0451 -0.70336,-0.1857 -1.05833,-0.264584 -0.439,-0.09755 -0.88392,-0.167028 -1.32292,-0.264583 -0.35497,-0.07888 -0.6975,-0.21948 -1.05833,-0.264583 -3.14771,-0.393464 1.37777,0.570755 -2.38125,-0.264584 -0.35498,-0.07888 -0.71336,-0.149592 -1.05834,-0.264583 -0.18709,-0.06236 -0.33394,-0.236694 -0.52916,-0.264583 -0.43654,-0.06236 -0.88464,0.0487 -1.32292,0 -0.36141,-0.04016 -0.69835,-0.213158 -1.05833,-0.264584 -0.26193,-0.03742 -0.53121,0.03282 -0.79375,0 -0.82658,-0.01601 -1.57631,-0.414175 -2.38125,-0.529166 -0.26193,-0.03742 -0.53121,0.03282 -0.79375,0 -1.37781,-0.172226 -1.50663,-0.372614 -2.91042,-0.79375 -0.3483,-0.10449 -0.70869,-0.164685 -1.05833,-0.264584 -0.26817,-0.07662 -0.52318,-0.196941 -0.79375,-0.264583 -0.43628,-0.109069 -0.88664,-0.155514 -1.32292,-0.264583 -0.54114,-0.135284 -1.04636,-0.393883 -1.5875,-0.529167 -0.55931,-0.61099 -1.24056,-0.14228 -1.85208,-0.264583 -0.27348,-0.0547 -0.52559,-0.187965 -0.79375,-0.264584 -0.34965,-0.0999 -0.70869,-0.164685 -1.05834,-0.264583 -0.53632,-0.153237 -1.05833,-0.352778 -1.5875,-0.529167 -0.26458,-0.08819 -0.51865,-0.218733 -0.79375,-0.264583 -0.26098,-0.0435 -0.53276,0.0435 -0.79375,0 -0.2751,-0.04585 -0.52558,-0.187965 -0.79375,-0.264583 -0.34964,-0.0999 -0.69964,-0.204802 -1.05833,-0.264584 -0.17399,-0.029 -0.3562,0.03459 -0.52917,0 -0.27347,-0.0547 -0.51865,-0.218733 -0.79375,-0.264583 -0.26098,-0.0435 -0.53276,0.0435 -0.79375,0 -0.2751,-0.04585 -0.52027,-0.209887 -0.79375,-0.264583 -0.17296,-0.03459 -0.35517,0.029 -0.52916,0 -0.58856,0.246726 -1.09162,-0.405197 -1.5875,-0.529167 -0.17112,-0.04278 -0.35621,0.03459 -0.52917,0 -0.54696,-0.109392 -1.0373,-0.437466 -1.5875,-0.529166 -0.26098,-0.0435 -0.5343,0.05189 -0.79375,0 -0.19338,-0.03868 -0.34606,-0.191342 -0.52917,-0.264584 -2.66336,-1.065347 0.56177,0.206587 -1.32291,-0.264583 -0.19132,-0.04783 -0.35278,-0.176389 -0.52917,-0.264583 -0.26458,-0.0882 -0.52027,-0.209888 -0.79375,-0.264584 -0.17296,-0.03459 -0.35278,0 -0.52917,0 -0.26458,-0.08819 -0.52318,-0.196941 -0.79375,-0.264583 -0.25668,-0.06417 -0.5343,0.05189 -0.79375,0 -0.27347,-0.0547 -0.52318,-0.196941 -0.79375,-0.264583 -0.0856,-0.02139 -0.18091,0.02789 -0.26458,0 -0.18709,-0.06236 -0.33579,-0.225908 -0.52917,-0.264584 -0.25944,-0.05189 -0.54274,0.08367 -0.79375,0 -0.0837,-0.02789 0.0624,-0.20222 0,-0.264583 -0.49968,-0.4996822 -0.49944,-0.12486 -1.05833,-0.264583 -0.19132,-0.04783 -0.34208,-0.202221 -0.52917,-0.2645838 -0.25352,-0.084509 -1.0778,0.081704 -1.32291,0 -0.11833,-0.039442 -0.17639,-0.176389 -0.26459,-0.2645833 -0.17639,-0.088194 -0.33784,-0.2167533 -0.52916,-0.2645833 -0.17112,-0.04278 -0.3714,0.078883 -0.52917,0 -0.0789,-0.039442 0.0837,-0.2366939 0,-0.2645834 -0.251,-0.083669 -0.52917,0 -0.79375,0 -0.0882,0 -0.18091,0.02789 -0.26458,0 -0.18709,-0.062363 -0.33785,-0.2167533 -0.52917,-0.2645833 -0.17112,-0.04278 -0.36183,0.055779 -0.52917,0 -0.11832,-0.039442 -0.17639,-0.176389 -0.26458,-0.2645833 -0.17639,-0.088194 -0.33785,-0.2167533 -0.52917,-0.2645834 -0.17112,-0.04278 -0.36182,0.055779 -0.52916,0 -0.11833,-0.039442 -0.14626,-0.2251416 -0.26459,-0.2645833 -0.16733,-0.055779 -0.3562,0.034593 -0.52916,0 -0.27348,-0.054696 -0.52318,-0.1969413 -0.79375,-0.2645833 -0.0856,-0.021392 -0.18092,0.027889 -0.26459,0 -1.64229,-0.5474325 0.87935,0.0214 -1.32291,-0.5291667 -0.0856,-0.021392 -0.17639,0 -0.26459,0 -0.44097,0 -0.8905,0.086482 -1.32291,0 -0.19338,-0.038676 -0.33785,-0.2167533 -0.52917,-0.2645833 -0.17112,-0.04278 -0.3562,0.034593 -0.52917,0 -0.53132,0.060716 -0.86215,-0.4139764 -1.32291,-0.5291667 -0.17112,-0.042781 -0.35621,0.034593 -0.52917,0 -0.27348,-0.054696 -0.51865,-0.2187331 -0.79375,-0.2645833 -0.26098,-0.043497 -0.53707,0.064171 -0.79375,0 -0.121,-0.03025 -0.14228,-0.2401226 -0.26458,-0.2645833 -0.34593,-0.069185 -0.71036,0.057996 -1.05834,0 -0.19452,-0.032421 -0.34606,-0.1913419 -0.52916,-0.2645834 -0.25895,-0.1035791 -0.52027,-0.2098873 -0.79375,-0.2645833 -0.17297,-0.034593 -0.35278,0 -0.52917,0 -0.26458,0 -0.52917,0 -0.79375,0 -0.26458,0 -0.53277,0.043497 -0.79375,0 -0.2751,-0.04585 -0.52318,-0.1969413 -0.79375,-0.2645833 -0.0856,-0.021392 -0.17639,0 -0.26458,0 -0.52917,-0.176389 -1.05117,-0.3759298 -1.5875,-0.5291667 -0.0848,-0.024228 -0.17902,0.021392 -0.26459,0 -0.54113,-0.1352841 -1.04054,-0.4197749 -1.5875,-0.5291666 -0.17296,-0.034593 -0.35804,0.04278 -0.52916,0 -0.19132,-0.04783 -0.33579,-0.2259076 -0.52917,-0.2645834 -0.25944,-0.051889 -0.53707,0.064171 -0.79375,0 -0.121,-0.03025 -0.17639,-0.176389 -0.26458,-0.2645833 C 132.29166,3.3513889 132.0376,3.2208501 131.7625,3.175 c -2.01841,0 0.20871,0.1183253 -1.32292,-0.2645834 -0.4278,-0.1069514 -0.88794,0.072495 -1.32291,0 -0.27511,-0.04585 -0.52319,-0.1969412 -0.79375,-0.2645833 -0.0856,-0.02139 -0.17639,0 -0.26459,0 C 127.70555,2.5576389 127.34497,2.4962415 127,2.38125 c -0.18709,-0.062363 -0.34208,-0.2022205 -0.52917,-0.2645834 -0.0837,-0.027889 -0.17902,0.02139 -0.26458,0 -0.27057,-0.067642 -0.51865,-0.2187332 -0.79375,-0.2645833 -0.26098,-0.043497 -0.53431,0.051889 -0.79375,0 -0.19338,-0.038676 -0.33785,-0.2167532 -0.52917,-0.2645833 -0.17112,-0.042781 -0.3562,0.034593 -0.52916,0 -0.27348,-0.054696 -0.52028,-0.2098875 -0.79375,-0.2645834 -0.17297,-0.034593 -0.35805,0.042781 -0.52917,0 -0.19132,-0.04783 -0.33579,-0.2259075 -0.52917,-0.2645833 -0.25944,-0.051889 -0.5343,0.051889 -0.79375,0 -0.19338,-0.038676 -0.33784,-0.21675315 -0.52916,-0.26458331 -0.20813,-0.0520314 -1.31236,0 -1.5875,0 -0.17639,0 -0.35805,0.0427806 -0.52917,0 -0.19132,-0.0478302 -0.33785,-0.21675317 -0.52917,-0.26458333 -0.34224,-0.0855612 -0.71609,0.0855612 -1.05833,0 -0.19132,-0.0478302 -0.33785,-0.21675317 -0.52917,-0.26458333 -0.17112,-0.0427806 -0.35278,0 -0.52916,0 C 115.44653,0.17638889 115.28084,0.06236289 115.09375,0 c -0.25353,-0.08450888 -1.07781,0.08170434 -1.32292,0 -0.11832,-0.03944175 -0.14626,-0.22514158 -0.26458,-0.26458333 -0.25101,-0.0836686 -0.54275,0.0836686 -0.79375,0 -0.18709,-0.0623629 -0.34208,-0.20222043 -0.52917,-0.26458333 -0.0837,-0.0278895 -0.17639,0 -0.26458,0 -0.44097,0 -0.88194,0 -1.32292,0 -0.17639,0 -0.35804,0.0427806 -0.52916,0 -0.19132,-0.0478302 -0.34208,-0.20222043 -0.52917,-0.26458333 -0.25101,-0.0836686 -0.54275,0.0836686 -0.79375,0 -0.11833,-0.0394417 -0.15303,-0.20880431 -0.26458,-0.26458331 -0.15777,-0.078884 -0.36183,0.055779 -0.52917,0 -0.18709,-0.062363 -0.34208,-0.2022205 -0.52917,-0.2645833 -0.24926,-0.083089 -1.41596,0.085771 -1.5875,0 -0.11156,-0.055779 -0.15302,-0.2088043 -0.26458,-0.2645834 -0.21167,-0.1058333 -0.58208,0.1058334 -0.79375,0 -0.11156,-0.055779 -0.15303,-0.2088042 -0.26458,-0.2645833 -0.0684,-0.034204 -1.39997,0 -1.5875,0 -0.0882,0 -0.20223,0.062363 -0.26459,0 -0.0624,-0.062363 0.0624,-0.2022204 0,-0.2645833 -0.001,-0.00141 -0.7849,0.00221 -0.79375,0 -0.19132,-0.04783 -0.34208,-0.2022205 -0.52916,-0.2645834 -0.18199,-0.060663 -0.63765,0.078055 -0.79375,0 -0.11156,-0.055779 -0.14626,-0.2251415 -0.26459,-0.2645833 -0.334672,-0.1115581 -0.723657,0.1115581 -1.058331,0 -0.118325,-0.039442 -0.153025,-0.2088041 -0.264584,-0.2645833 -0.07888,-0.039442 -0.176389,0 -0.264583,0 -0.17639,0 -0.355177,0.028998 -0.529167,0 -0.358687,-0.059781 -0.699645,-0.2048021 -1.058333,-0.2645834 -0.409998,-0.068333 -0.919953,0.1007412 -1.322917,0 -0.19132,-0.04783 -0.337846,-0.2167532 -0.529166,-0.2645833 -0.171122,-0.042781 -0.358045,0.04278 -0.529167,0 -0.19132,-0.04783 -0.337846,-0.2167533 -0.529167,-0.2645833 -0.171121,-0.04278 -0.356203,0.034593 -0.529166,0 -0.273479,-0.054696 -0.520272,-0.2098874 -0.79375,-0.2645834 -0.345927,-0.069185 -0.71609,0.085561 -1.058333,0 -0.191321,-0.04783 -0.337847,-0.2167532 -0.529167,-0.2645833 -0.342244,-0.085561 -0.71609,0.085561 -1.058333,0 -0.191321,-0.04783 -0.337847,-0.2167533 -0.529167,-0.2645833 -0.171122,-0.042781 -0.361828,0.055779 -0.529167,0 -0.118324,-0.039442 -0.146259,-0.2251416 -0.264583,-0.2645833 -0.167338,-0.055779 -0.352777,0 -0.529167,0 -0.221559,0 -1.121709,0.050302 -1.322916,0 -0.191321,-0.04783 -0.342078,-0.2022205 -0.529167,-0.2645834 -0.251005,-0.083669 -0.537067,0.064171 -0.79375,0 -0.19132,-0.04783 -0.337847,-0.2167532 -0.529167,-0.2645833 -0.171122,-0.042781 -0.352777,0 -0.529166,0 -0.08819,0 -0.185701,0.039442 -0.264584,0 -1.210894,-0.6054471 1.122738,0.1096624 -0.79375,-0.5291667 -0.157763,-0.052588 -1.331153,0 -1.5875,0 -0.08819,0 -0.176389,0 -0.264583,0 -0.08819,0 -0.1857,0.039442 -0.264583,0 -0.111559,-0.055779 -0.153025,-0.2088041 -0.264584,-0.2645833 -0.157765,-0.078883 -0.371401,0.078883 -0.529166,0 -0.111559,-0.055779 -0.153025,-0.2088041 -0.264584,-0.2645833 -0.157765,-0.078883 -0.371401,0.078883 -0.529166,0 -0.111559,-0.055779 -0.153025,-0.2088042 -0.264584,-0.2645833 -0.166917,-0.083459 -1.155999,0.083459 -1.322916,0 -0.653892,-0.3269462 0.09133,-0.2645834 -0.529167,-0.2645834 -0.17639,0 -0.352777,0 -0.529167,0 -0.08819,0 -0.1857,0.039442 -0.264583,0 -0.111559,-0.055779 -0.153024,-0.2088041 -0.264583,-0.2645833 -0.157766,-0.078883 -0.361829,0.055779 -0.529167,0 -0.187089,-0.062363 -0.337846,-0.2167533 -0.529167,-0.2645833 -0.171122,-0.04278 -0.352777,0 -0.529166,0 -0.08819,0 -0.185701,0.039442 -0.264584,0 -0.111559,-0.055779 -0.146259,-0.2251417 -0.264583,-0.2645834 -0.311489,-0.1038293 -1.236432,0.087767 -1.5875,0 -0.19132,-0.04783 -0.337846,-0.2167532 -0.529167,-0.2645833 -0.256682,-0.064171 -0.542745,0.083669 -0.79375,0 -0.187089,-0.062363 -0.342077,-0.2022205 -0.529166,-0.2645833 -0.08367,-0.027889 -0.180914,0.027889 -0.264584,0 -0.187089,-0.062363 -0.342077,-0.2022205 -0.529166,-0.2645834 -0.08367,-0.027889 -0.185701,0.039442 -0.264584,0 -0.111558,-0.055779 -0.146259,-0.2251416 -0.264583,-0.2645833 -0.135437,-0.045146 -1.398347,0 -1.5875,0 -0.17639,0 -0.352777,0 -0.529167,0 -0.08819,0 -0.1857,0.039442 -0.264583,0 -0.111559,-0.055779 -0.153024,-0.2088041 -0.264583,-0.2645833 -0.163886,-0.081943 -0.980049,0.078285 -1.058334,0 -0.06236,-0.062363 0.07888,-0.2251416 0,-0.2645834 -0.211666,-0.1058333 -0.582083,0.1058334 -0.793749,0 -0.111559,-0.055779 -0.14626,-0.2251416 -0.264584,-0.2645833 -0.14632,-0.048773 -1.321051,0 -1.5875,0 -0.08819,0 -0.17639,0 -0.264583,0 -0.08819,0 -0.185701,0.039442 -0.264583,0 -0.111559,-0.055779 -0.153025,-0.2088041 -0.264584,-0.2645833 -0.157766,-0.078883 -0.371401,0.078883 -0.529166,0 -0.111559,-0.055779 -0.153025,-0.2088041 -0.264584,-0.2645838 -0.07888,-0.03944 -0.17639,0 -0.264583,0 -0.187537,0 -1.519092,0.0342 -1.5875,0 -0.111559,-0.05578 -0.153025,-0.208804 -0.264583,-0.264583 -0.182756,-0.09138 -1.230043,0.09287 -1.322917,0 -0.06236,-0.06236 0.06236,-0.20222 0,-0.264583 -0.06236,-0.06236 -0.17639,0 -0.264583,0 -0.124751,0 -1.310926,0.01199 -1.322917,0 -0.06236,-0.06236 0.06236,-0.202221 0,-0.264584 -0.06236,-0.06236 -0.17639,0 -0.264583,0 -0.08819,0 -0.17639,0 -0.264584,0 -0.79375,0 -1.5875,0 -2.38125,0 -0.620495,0 0.124725,0.06236 -0.529166,-0.264583 -0.160661,-0.08033 -1.42684,0.08033 -1.5875,0 -0.111559,-0.05578 -0.153025,-0.208804 -0.264584,-0.264583 -0.06957,-0.03478 -0.919977,0 -1.058333,0 -0.08819,0 -0.202221,-0.06236 -0.264583,0 -0.06236,0.06236 0.06236,0.20222 0,0.264583 -0.124725,0.124726 -0.371401,-0.07888 -0.529167,0 -0.111559,0.05578 -0.153024,0.208804 -0.264583,0.264583 -0.07888,0.03944 -0.202221,-0.06236 -0.264584,0 -0.06236,0.06236 0.06236,0.202221 0,0.264584 -0.06236,0.06236 -0.1857,-0.03944 -0.264583,0 -0.111559,0.05578 -0.153024,0.208804 -0.264583,0.264583 -0.07888,0.03944 -0.202221,-0.06236 -0.264584,0 -0.06236,0.06236 0.06236,0.202221 0,0.264583 -0.06236,0.062363 -0.1857,-0.03944 -0.264583,0 -0.111559,0.05578 -0.153024,0.2088046 -0.264583,0.2645838 -0.07888,0.039442 -0.202221,-0.062363 -0.264584,0 -0.06236,0.062363 0.06236,0.2022205 0,0.2645833 -0.06236,0.062363 -0.202221,-0.062363 -0.264583,0 -0.06236,0.062363 0.06236,0.2022205 0,0.2645833 -0.06236,0.062363 -0.202221,-0.062363 -0.264583,0 -0.06236,0.062363 0.06236,0.2022206 0,0.2645834 -0.06236,0.062363 -0.185701,-0.039442 -0.264584,0 -0.223115,0.1115581 -0.306051,0.4176085 -0.529166,0.5291666 -0.07888,0.039442 -0.202221,-0.062363 -0.264584,0 -0.06236,0.062363 0.06236,0.2022205 0,0.2645834 -0.06236,0.062363 -0.202221,-0.062363 -0.264583,0 -0.547433,0.5474324 0.836549,-0.021399 -0.264583,0.5291666 -0.157766,0.078883 -0.404442,-0.1247259 -0.529167,0 -0.124724,0.1247259 0.124725,0.4044408 0,0.5291667 -0.124724,0.1247259 -0.404442,-0.1247259 -0.529167,0 -0.547433,0.5474324 0.836549,-0.021399 -0.264583,0.5291667 -0.157766,0.078883 -0.404442,-0.124726 -0.529167,0 -0.06236,0.062363 0.03944,0.1856999 0,0.2645833 -0.05578,0.1115581 -0.176389,0.176389 -0.264583,0.2645833 -0.08819,0.088194 -0.153024,0.2088041 -0.264583,0.2645833 -0.07888,0.039442 -0.202221,-0.062363 -0.264584,0 -0.06236,0.062363 0.06236,0.2022205 0,0.2645834 -0.06236,0.062363 -0.202221,-0.062363 -0.264583,0 -0.06236,0.062363 0.06236,0.2022205 0,0.2645833 -0.06236,0.062363 -0.1857,-0.039442 -0.264583,0 -0.111559,0.055779 -0.153025,0.2088041 -0.264584,0.2645833 -0.07888,0.039442 -0.202221,-0.062363 -0.264583,0 -0.124724,0.1247259 0.124725,0.4044408 0,0.5291667 -0.124724,0.1247259 -0.404442,-0.1247259 -0.529167,0 -0.124724,0.1247259 0.124725,0.4044407 0,0.5291666 -0.06236,0.062363 -0.1857,-0.039442 -0.264583,0 -0.111559,0.055779 -0.17639,0.176389 -0.264583,0.2645834 -0.08819,0.088194 -0.208804,0.1530252 -0.264584,0.2645833 -0.03944,0.078883 0.06236,0.2022205 0,0.2645833 -0.06236,0.062363 -0.202221,-0.062363 -0.264583,0 -0.06236,0.062363 0.06236,0.2022205 0,0.2645834 -0.06236,0.062363 -0.202221,-0.062363 -0.264583,0 -0.06236,0.062363 0.06236,0.2022205 0,0.2645833 -0.06236,0.062363 -0.202221,-0.062363 -0.264583,0 -0.06236,0.062363 0.06236,0.2022204 0,0.2645833 -0.06236,0.062363 -0.202222,-0.062363 -0.264584,0 -0.06236,0.062363 0.03944,0.1856999 0,0.2645834 -0.05578,0.1115581 -0.208804,0.1530252 -0.264583,0.2645833 -0.03944,0.078884 0.06236,0.2022204 0,0.2645833 -0.06236,0.062363 -0.202221,-0.062363 -0.264583,0 -0.06236,0.062363 0.06236,0.2022205 0,0.2645834 -0.06236,0.062363 -0.202222,-0.062363 -0.264584,0 -0.124724,0.1247257 0.124725,0.40444084 0,0.52916661 -0.06236,0.0623629 -0.202221,-0.0623629 -0.264583,0 -0.06236,0.0623629 0.06236,0.20222043 0,0.26458333 -0.06236,0.0623629 -0.185701,-0.0394417 -0.264583,0 C 36.998867,0.02139956 38.38285,-0.54743243 37.835416,0 c -0.06236,0.06236289 -0.202221,-0.06236289 -0.264583,0 -0.06236,0.06236289 0.06236,0.20222044 0,0.26458333 -0.06236,0.0623629 -0.202221,-0.0623629 -0.264583,0 -0.124725,0.12472577 0.07888,0.37139964 0,0.52916666 -0.550567,1.10113241 0.01826,-0.282849 -0.529167,0.26458331 -0.06236,0.062363 0.06236,0.2022205 0,0.2645833 -0.06236,0.062363 -0.202221,-0.062363 -0.264583,0 -0.124725,0.1247258 0.124724,0.4044409 0,0.5291667 -0.547434,0.5474323 0.0214,-0.8365491 -0.529167,0.2645833 -0.03944,0.078884 0.03944,0.1856999 0,0.2645834 -0.15875,0.3175 -0.635,0.47625 -0.79375,0.79375 -0.03944,0.078883 0.03944,0.1856999 0,0.2645833 -0.111559,0.2231162 -0.417608,0.3060504 -0.529167,0.5291667 -0.03944,0.078883 0.03944,0.1856999 0,0.2645833 -0.111559,0.2231162 -0.417608,0.3060504 -0.529166,0.5291666 -0.03944,0.078883 0.03944,0.1857 0,0.2645834 -0.15875,0.3175 -0.635,0.47625 -0.79375,0.79375 -0.03944,0.078883 0.03944,0.1856999 0,0.2645833 -0.111559,0.2231162 -0.417608,0.3060504 -0.529167,0.5291666 -0.03944,0.078883 0.03944,0.1857 0,0.2645834 -0.243552,0.4871019 -0.550198,0.042065 -0.79375,0.5291666 -0.07888,0.1577671 0.124725,0.4044408 0,0.5291667 -0.124725,0.1247259 -0.404442,-0.1247259 -0.529167,0 -0.124724,0.1247259 0.124725,0.4044408 0,0.5291667 -0.06236,0.062363 -0.202221,-0.062363 -0.264583,0 -0.06236,0.062363 0.03944,0.1856999 0,0.2645833 -0.111559,0.2231162 -0.417608,0.3060504 -0.529167,0.5291667 -0.03944,0.078883 0.03944,0.1856999 0,0.2645833 -0.550566,1.1011321 0.01826,-0.2828491 -0.529166,0.2645833 -0.124725,0.1247259 0.124724,0.4044408 0,0.5291668 -0.06236,0.06236 -0.185701,-0.03944 -0.264584,0 -0.111559,0.05578 -0.176389,0.176389 -0.264583,0.264583 -0.08819,0.0882 -0.208804,0.153025 -0.264583,0.264584 -0.03944,0.07888 0.03944,0.185699 0,0.264583 -0.111559,0.223116 -0.417608,0.30605 -0.529167,0.529167 -0.03944,0.07888 0.03944,0.185699 0,0.264583 -0.02532,0.05065 -1.007687,1.03301 -1.058333,1.058333 -0.07888,0.03944 -0.225142,-0.07888 -0.264584,0 -0.07888,0.157767 0.05578,0.36183 0,0.529167 -0.07888,0.23665 -0.417607,0.30605 -0.529166,0.529166 -0.03944,0.07888 0.03944,0.1857 0,0.264584 -0.08427,0.168532 -1.115016,1.115016 -1.322917,1.322916 -0.08819,0.08819 -0.208804,0.153026 -0.264583,0.264584 -0.03944,0.07888 0.06236,0.20222 0,0.264583 -0.139448,0.139448 -0.389719,0.125136 -0.529167,0.264583 -0.06236,0.06236 0.03944,0.1857 0,0.264584 -0.111558,0.223116 -0.417609,0.30605 -0.529167,0.529166 -0.03944,0.07888 0.03944,0.1857 0,0.264584 -0.292504,0.585008 -0.164211,0.08211 -0.529166,0.264583 -1.101133,0.550566 0.282849,-0.01827 -0.264584,0.529167 -0.06236,0.06236 -0.20222,-0.06236 -0.264583,0 -0.06236,0.06236 0.03944,0.1857 0,0.264583 -0.05578,0.111558 -0.208804,0.153025 -0.264583,0.264583 -0.03944,0.07888 0.06236,0.202221 0,0.264584 -0.06236,0.06236 -0.202221,-0.06236 -0.264584,0 -0.547432,0.547432 0.836549,-0.0214 -0.264583,0.529166 -0.07888,0.03944 -0.20222,-0.06236 -0.264583,0 -0.06236,0.06236 0.03944,0.1857 0,0.264584 -0.111558,0.223116 -0.417609,0.30605 -0.529167,0.529166 -0.03944,0.07888 0.03944,0.1857 0,0.264584 -0.05578,0.111558 -0.176389,0.176389 -0.264583,0.264583 -0.08819,0.08819 -0.153025,0.208804 -0.264584,0.264583 -0.07888,0.03944 -0.20222,-0.06236 -0.264583,0 -0.124726,0.124726 0.07888,0.3714 0,0.529167 -0.550566,1.101132 0.01827,-0.282849 -0.529167,0.264583 -0.06236,0.06236 0.06236,0.202221 0,0.264584 -0.06236,0.06236 -0.20222,-0.06236 -0.264583,0 -0.06236,0.06236 0.03944,0.1857 0,0.264583 -0.111558,0.223116 -0.417608,0.30605 -0.529167,0.529167 -0.03944,0.07888 0.03944,0.1857 0,0.264583 -0.550566,1.101132 0.01827,-0.282849 -0.529166,0.264583 -0.124726,0.124726 0.124726,0.404441 0,0.529167 -0.547433,0.547432 0.0214,-0.836549 -0.529167,0.264583 -0.03944,0.07888 0.03944,0.1857 0,0.264584 -0.117255,0.23451 -0.63318,0.552896 -0.79375,0.79375 -0.109392,0.164087 -0.155192,0.365079 -0.264583,0.529166 -0.07476,0.112147 -0.684279,0.739013 -0.79375,0.79375 -0.07888,0.03944 -0.202221,-0.06236 -0.264584,0 -0.124725,0.124725 0.07888,0.371401 0,0.529167 -0.550566,1.101132 0.01827,-0.28285 -0.529166,0.264583 -0.547433,0.547434 0.836549,-0.0214 -0.264584,0.529167 -0.364954,0.182478 -0.236662,-0.320424 -0.529166,0.264583 -0.03944,0.07888 0.03944,0.185701 0,0.264584 -0.15875,0.3175 -0.635,0.47625 -0.79375,0.79375 -0.03944,0.07888 0.03944,0.1857 0,0.264583 -0.15875,0.3175 -0.635,0.47625 -0.79375,0.79375 -0.03944,0.07888 0.06236,0.202221 0,0.264583 -0.06236,0.06236 -0.202221,-0.06236 -0.264583,0 -0.06236,0.06236 0.06236,0.202221 0,0.264584 -0.06236,0.06236 -0.202221,-0.06236 -0.264584,0 -0.06236,0.06236 0.03944,0.1857 0,0.264583 -0.111558,0.223115 -0.417608,0.306051 -0.529166,0.529167 -0.07888,0.157765 0.124725,0.404442 0,0.529166 -0.06236,0.06236 -0.1857,-0.03944 -0.264584,0 -0.111558,0.05578 -0.176389,0.17639 -0.264583,0.264584 -0.877512,0.877511 0.124726,-0.249452 -0.264583,0.529166 -0.15875,0.3175 -0.635,0.47625 -0.79375,0.79375 -0.03944,0.07888 0.06236,0.202221 0,0.264584 -0.352778,0.352776 -0.253884,-0.561266 -0.529167,0.264583 -0.05578,0.167338 0.07888,0.371401 0,0.529167 -0.03944,0.07888 -0.1857,-0.03944 -0.264583,0 -0.1115586,0.05578 -0.2088046,0.153024 -0.2645838,0.264583 -0.078883,0.157766 0.1247259,0.404442 0,0.529167 -0.062363,0.06236 -0.2022205,-0.06236 -0.2645833,0 -0.062363,0.06236 -0.062363,0.202221 0,0.264583 0.062363,0.06236 0.176389,0 0.2645833,0 0.088194,0 0.2022205,0.06236 0.2645838,0 0.06236,-0.06236 -0.062363,-0.202221 0,-0.264583 0.01199,-0.01199 1.198166,0 1.322916,0 0.119157,0 0.713228,0.04026 0.79375,0 0.111558,-0.05578 0.146258,-0.225142 0.264584,-0.264584 0.167337,-0.05578 0.358044,0.04278 0.529166,0 0.191321,-0.04783 0.337846,-0.216752 0.529167,-0.264583 0.171122,-0.04278 0.352778,0 0.529166,0 0.176389,-0.08819 0.342078,-0.202221 0.529167,-0.264583 0.221754,-0.07392 0.882987,0.08767 1.058333,0 0.111559,-0.05578 0.146258,-0.225142 0.264584,-0.264584 0.167337,-0.05578 0.361829,0.05578 0.529166,0 0.118326,-0.03944 0.153026,-0.208804 0.264584,-0.264583 0.07888,-0.03944 0.180914,0.02789 0.264583,0 0.374178,-0.124725 0.684156,-0.404442 1.058333,-0.529167 0.08367,-0.02789 0.179023,0.02138 0.264584,0 0.270568,-0.06764 0.52027,-0.209888 0.79375,-0.264583 0.172963,-0.03459 0.361829,0.05578 0.529166,0 0.118326,-0.03944 0.153026,-0.208804 0.264584,-0.264583 0.584946,-0.292473 0.607343,-0.264584 1.058333,-0.264584 0.08819,0 0.180915,0.02789 0.264583,0 1.916488,-0.638828 -0.417144,0.07628 0.79375,-0.529166 0.651656,-0.325829 -0.238848,0.768014 0.79375,-0.264584 0.06236,-0.06236 -0.06236,-0.202221 0,-0.264583 0.124726,-0.124725 0.3714,0.07888 0.529167,0 0.111558,-0.05578 0.153025,-0.208804 0.264583,-0.264583 0.07888,-0.03944 0.1857,0.03944 0.264584,0 0.111558,-0.05578 0.153025,-0.208804 0.264583,-0.264584 0.07888,-0.03944 0.1857,0.03944 0.264583,0 0.111558,-0.05578 0.153026,-0.208804 0.264584,-0.264583 0.07888,-0.03944 0.20222,0.06236 0.264583,0 0.06236,-0.06236 -0.06236,-0.202221 0,-0.264583 0.06236,-0.06236 0.1857,0.03944 0.264583,0 0.111558,-0.05578 0.153026,-0.208804 0.264584,-0.264584 0.07888,-0.03944 0.1857,0.03944 0.264583,0 0.111558,-0.05578 0.153025,-0.208804 0.264583,-0.264583 0.07888,-0.03944 0.202221,0.06236 0.264584,0 0.06236,-0.06236 -0.06236,-0.202221 0,-0.264583 0.124726,-0.124725 0.404442,0.124724 0.529166,0 0.06236,-0.06236 -0.03944,-0.185701 0,-0.264584 0.05578,-0.111559 0.208804,-0.153024 0.264584,-0.264583 0.03944,-0.07888 -0.06236,-0.202221 0,-0.264583 0.02646,-0.02646 0.917223,0.123473 0.529166,-0.264584 -0.06236,-0.06236 -0.176389,0 -0.264583,0 -0.440973,0 -0.881944,0 -1.322917,0 -0.79375,0 -1.5875,0 -2.38125,0 -0.176389,0 -0.352777,0 -0.529166,0 -0.264584,0 -0.537067,-0.06417 -0.79375,0 -0.121002,0.03025 -0.143582,0.234334 -0.264584,0.264584 -0.4515,0.112876 -1.117371,-0.09402 -1.5875,0 -0.356573,0.07132 -0.699645,0.204803 -1.058333,0.264583 -0.173989,0.029 -0.352778,0 -0.529167,0 -0.176389,0.08819 -0.335787,0.225906 -0.529166,0.264583 -0.259446,0.05189 -0.529167,0 -0.79375,0 -0.881945,0 -1.763889,0 -2.645834,0 -0.06911,0 -1.45448,-0.04434 -1.587499,0 -0.187089,0.06236 -0.342078,0.202221 -0.529167,0.264584 -0.08367,0.02789 -0.176389,0 -0.264583,0 -0.248396,0 -1.171313,-0.05054 -1.322917,0 -0.118326,0.03944 -0.153025,0.208803 -0.264583,0.264583 -0.157768,0.07888 -0.404441,-0.124725 -0.529167,0 -0.06236,0.06236 0.06236,0.202221 0,0.264583 -0.06236,0.06236 -0.202221,-0.06236 -0.264583,0 -0.062363,0.06236 0,0.17639 0,0.264584 0,0.61736 0,1.234723 0,1.852083 0,0.529167 0,1.058333 0,1.5875 0,0.17639 0,0.352777 0,0.529167 0,0.176389 -0.05578,0.361828 0,0.529166 0.03944,0.118325 0.225141,0.146259 0.264583,0.264584 0.0817,0.245112 -0.08451,1.06939 0,1.322916 0.06236,0.18709 0.176389,0.352777 0.264583,0.529167 0.0882,0.17639 0.155192,0.36508 0.264584,0.529167 0.06918,0.103777 0.225141,0.146259 0.264583,0.264583 0.05578,0.167338 -0.05578,0.361828 0,0.529167 0.03944,0.118324 0.195398,0.160805 0.264583,0.264583 0.109392,0.164086 0.202221,0.342077 0.264584,0.529167 0.02789,0.08367 -0.03944,0.1857 0,0.264583 0.05578,0.111559 0.195397,0.160806 0.264583,0.264583 0.109392,0.164087 0.155191,0.36508 0.264583,0.529167 0.06919,0.103777 0.195398,0.160806 0.264584,0.264583 0.109391,0.164087 0.20222,0.342077 0.264583,0.529167 0.02789,0.08367 -0.06236,0.202221 0,0.264583 0.06236,0.06236 0.1857,-0.03944 0.264583,0 0.585008,0.292505 0.08211,0.164211 0.264584,0.529167 0.550566,1.101132 -0.01827,-0.28285 0.529166,0.264583 0.06236,0.06236 -0.06236,0.202221 0,0.264583 0.06236,0.06236 0.176389,0 0.264583,0 0.119158,0 0.713229,0.04026 0.79375,0 0.535115,-0.267557 0.08484,-0.61401 0.264584,-0.79375 0.06236,-0.06236 0.20222,0.06236 0.264583,0 0.124726,-0.124724 -0.124726,-0.404442 0,-0.529166 0.06236,-0.06236 0.202221,0.06236 0.264583,0 0.124726,-0.124725 -0.07888,-0.371401 0,-0.529167 0.05578,-0.111559 0.208805,-0.153024 0.264584,-0.264583 0.08315,-0.166296 -0.08315,-0.892038 0,-1.058333 0.05578,-0.111559 0.208804,-0.153025 0.264583,-0.264584 0.08315,-0.166296 -0.08315,-0.892037 0,-1.058333 0.05578,-0.111559 0.225142,-0.146259 0.264583,-0.264583 0.08151,-0.244539 -0.08227,-1.076116 0,-1.322917 0.06236,-0.18709 0.216754,-0.337847 0.264584,-0.529167 0.0563,-0.225216 -0.07595,-1.171027 0,-1.322916 0.05578,-0.111559 0.225141,-0.146259 0.264583,-0.264584 0.05578,-0.167338 -0.04278,-0.358045 0,-0.529166 0.09566,-0.382641 0.404441,-0.684157 0.529167,-1.058334 0.05578,-0.167338 -0.05578,-0.361828 0,-0.529166 0.06236,-0.18709 0.216753,-0.337847 0.264583,-0.529167 0.03223,-0.128902 -0.06995,-0.91843 0,-1.058333 0.05578,-0.111559 0.208804,-0.153025 0.264583,-0.264584 0.03944,-0.07888 0,-0.176389 0,-0.264583 0,-0.17639 -0.05578,-0.361828 0,-0.529167 0.03944,-0.118324 0.225142,-0.146259 0.264584,-0.264583 0,-1.204457 -0.124726,-0.01513 0.264583,-0.79375 0.08346,-0.166918 -0.08346,-1.155999 0,-1.322917 0.05578,-0.111559 0.225142,-0.146259 0.264583,-0.264583 0.04034,-0.121018 -0.05887,-0.9406 0,-1.058333 0.05578,-0.111558 0.208805,-0.153026 0.264584,-0.264584 0.0342,-0.06841 0,-1.399962 0,-1.5875 0,-0.705555 -0.0882,0.08819 0.264583,-0.264583 0.06367,-0.06367 -0.06367,-0.994666 0,-1.058333 0.06236,-0.06236 0.202221,0.06236 0.264583,0 0.01199,-0.01199 0,-1.198166 0,-1.322917 0,-0.08819 -0.06236,-0.20222 0,-0.264583 0.06236,-0.06236 0.202221,0.06236 0.264584,0 0.06367,-0.06367 -0.06367,-0.994667 0,-1.058334 0.06236,-0.06236 0.20222,0.06236 0.264583,0 0.132292,-0.132291 -0.132292,-0.661458 0,-0.79375 0.06236,-0.06236 0.202221,0.06236 0.264583,0 0.01199,-0.01199 0,-1.198166 0,-1.322916 0,-0.0882 -0.06236,-0.202221 0,-0.264584 0.06236,-0.06236 0.202221,0.06236 0.264584,0 0.06236,-0.06236 0,-0.176389 0,-0.264583 0,-0.08819 0.06236,-0.326946 0,-0.264583 -0.139448,0.139447 -0.155192,0.365079 -0.264584,0.529166 -0.13837,0.207557 -0.417608,0.306051 -0.529166,0.529167 -0.03944,0.07888 0.03944,0.1857 0,0.264583 -0.05474,0.109472 -0.681603,0.718986 -0.79375,0.79375 -0.164088,0.109392 -0.389719,0.125136 -0.529167,0.264584 -0.311814,0.311814 -0.511446,0.719569 -0.79375,1.058333 -0.159695,0.191634 -0.390796,0.32161 -0.529167,0.529167 -0.04892,0.07338 0.06236,0.20222 0,0.264583 -0.224852,0.224853 -0.545441,0.33052 -0.79375,0.529167 -0.292183,0.233746 -0.482415,0.586193 -0.79375,0.79375 -0.164087,0.109391 -0.371399,0.146258 -0.529166,0.264583 -0.199561,0.149671 -0.352778,0.352778 -0.529167,0.529167 -0.176389,0.176389 -0.379496,0.329605 -0.529167,0.529166 -0.118325,0.157767 -0.125135,0.389719 -0.264583,0.529167 -0.139447,0.139448 -0.365079,0.155192 -0.529166,0.264583 -0.366911,0.244608 -0.713992,0.518277 -1.058334,0.79375 -0.194789,0.155831 -0.329605,0.379496 -0.529166,0.529167 -0.254392,0.190794 -0.568898,0.304313 -0.79375,0.529167 -0.06236,0.06236 0.06236,0.202221 0,0.264583 -0.01696,0.01696 -1.0090496,0.496311 -1.0583338,0.529167 C 9.3849527,28.051003 9.5817268,28.146586 9.2604166,28.575 8.6882167,29.337934 8.8781439,28.918043 8.2020832,29.36875 7.6779283,29.34234 8.0769475,29.758468 7.9374999,29.897916 7.7980523,30.037365 7.5477808,30.023051 7.4083332,30.1625 c -0.1394475,0.139448 -0.1251357,0.389718 -0.2645833,0.529166 -0.062363,0.06236 -0.2022205,-0.06236 -0.2645833,0 -0.1394476,0.139449 -0.1251358,0.389718 -0.2645834,0.529167 -0.1394475,0.139449 -0.3650789,0.155191 -0.5291666,0.264583 -0.3893272,0.259551 -0.6690061,0.798783 -1.0583333,1.058334 -0.1640877,0.109392 -0.3897191,0.125134 -0.5291667,0.264583 -0.062363,0.06236 0.048922,0.191201 0,0.264583 -0.1383707,0.207555 -0.3794958,0.329605 -0.5291666,0.529167 -0.1183254,0.157766 -0.1551917,0.36508 -0.2645834,0.529167 0.026411,0.524155 -0.3897191,0.125134 -0.5291666,0.264583 -0.062363,0.06236 0,0.17639 0,0.264583 -0.176389,0.17639 -0.3216103,0.390795 -0.5291667,0.529167 -0.073382,0.04892 -0.2022204,-0.06236 -0.2645833,0 -0.1394477,0.139449 -0.2022205,0.342077 -0.2645834,0.529167 -0.027889,0.08367 0.078884,0.225141 0,0.264583 -0.157767,0.07888 -0.3824022,-0.09784 -0.5291666,0 -0.77444892,0.5163 -0.054203,0.372991 -0.2645834,0.79375 -0.2838936,0.567788 -0.2889375,0.01217 -0.79374994,0.264583 -0.0788835,0.03944 0.0278895,0.180914 0,0.264584 -0.0623629,0.187089 -0.12513566,0.389718 -0.26458333,0.529166 -0.22485259,0.224854 -0.56889739,0.304313 -0.79374999,0.529167 -0.0623629,0.06236 0.0623629,0.202221 0,0.264583 -0.0623629,0.06236 -0.18569982,-0.03944 -0.26458333,0 -1.10113241,0.550566 0.282849,-0.01826 -0.26458331,0.529167 -0.1394477,0.139448 -0.3650791,0.155191 -0.5291667,0.264583 -0.5086686,0.339111 -0.020498,0.454639 -0.5291666,0.79375 -0.1640877,0.109392 -0.389719,0.125135 -0.5291667,0.264583 -0.1394476,0.139449 -0.1251357,0.389719 -0.2645833,0.529167 -0.1394476,0.139449 -0.342078,0.202221 -0.5291667,0.264583 -0.083669,0.02789 -0.2022205,-0.06236 -0.2645833,0 -0.062363,0.06236 0.039442,0.185701 0,0.264584 -0.061261,0.122523 -0.9027202,0.902721 -1.0583333,1.058333 -0.2645834,0.264583 -0.5291667,0.529167 -0.79375,0.79375 -0.088194,0.08819 -0.1530252,0.208804 -0.2645834,0.264583 -0.078883,0.03944 -0.2022205,-0.06236 -0.2645833,0 -0.1394476,0.139449 -0.1551916,0.36508 -0.2645833,0.529167 -0.069185,0.103778 -0.176389,0.17639 -0.2645833,0.264583 -0.176389,0.17639 -0.3216103,0.390795 -0.5291667,0.529167 -0.1640877,0.109392 -0.3897191,0.125135 -0.5291667,0.264583 -0.1394476,0.139449 -0.1551916,0.36508 -0.2645833,0.529167 -0.1383707,0.207555 -0.3527777,0.352777 -0.5291667,0.529167 -0.2645833,0.264583 -0.5291666,0.529166 -0.79375,0.79375 -0.155613,0.155612 -0.9358104,0.997071 -1.0583334,1.058333 -0.07888,0.03944 -0.20222,-0.06236 -0.264583,0 -0.06236,0.06236 0,0.17639 0,0.264583 -0.0882,0.17639 -0.100496,0.419775 -0.264584,0.529167 -0.146764,0.09784 -0.371399,-0.07888 -0.529166,0 -0.07888,0.03944 0.03944,0.185701 0,0.264583 -0.05578,0.111559 -0.176389,0.17639 -0.264584,0.264584 -0.08819,0.08819 -0.160805,0.195397 -0.264583,0.264583 -0.164088,0.109392 -0.389719,0.125135 -0.529167,0.264583 -0.124725,0.124725 0.157768,0.450284 0,0.529167 -0.157767,0.07888 -0.371399,-0.07888 -0.529166,0 -0.07888,0.03944 0.06236,0.202221 0,0.264583 -0.06236,0.06236 -0.202221,-0.06236 -0.264584,0 -0.06236,0.06236 0.06236,0.202221 0,0.264584 -0.06236,0.06236 -0.20222,-0.06236 -0.264583,0 -0.06236,0.06236 0.03944,0.1857 0,0.264583 -0.316785,0.633569 -0.529166,-0.166738 -0.529166,0.529167 0,0.08819 0.06236,0.202221 0,0.264583 -0.06236,0.06236 -0.202221,-0.06236 -0.264584,0 -0.06236,0.06236 0.06236,0.202221 0,0.264583 -0.06236,0.06236 -0.20222,-0.06236 -0.264583,0 -0.06236,0.06236 0,0.17639 0,0.264584 0,0.08819 -0.08648,0.247287 0,0.264583 0.432409,0.08648 0.881944,0 1.322916,0"
       id="path841"
       inkscape:connector-curvature="0"
       inkscape:export-xdpi="96"
       inkscape:export-ydpi="96" />
  </g>
</svg>
