<?xml version="1.0" encoding="UTF-8" standalone="no"?>
<!-- Created with Inkscape (http://www.inkscape.org/) -->

<svg
   xmlns:dc="http://purl.org/dc/elements/1.1/"
   xmlns:cc="http://creativecommons.org/ns#"
   xmlns:rdf="http://www.w3.org/1999/02/22-rdf-syntax-ns#"
   xmlns:svg="http://www.w3.org/2000/svg"
   xmlns="http://www.w3.org/2000/svg"
   xmlns:xlink="http://www.w3.org/1999/xlink"
   xmlns:sodipodi="http://sodipodi.sourceforge.net/DTD/sodipodi-0.dtd"
   xmlns:inkscape="http://www.inkscape.org/namespaces/inkscape"
   width="30.594492mm"
   height="34.1712mm"
   viewBox="0 0 30.594492 34.1712"
   version="1.1"
   id="svg8"
   inkscape:version="0.92.4 (5da689c313, 2019-01-14)"
   sodipodi:docname="clam.svg"
   inkscape:export-filename="D:\Projects\WebDev\airada.github.io\src\assets\fish3.png"
   inkscape:export-xdpi="300"
   inkscape:export-ydpi="300">
  <defs
     id="defs2">
    <linearGradient
       inkscape:collect="always"
       id="linearGradient1101">
      <stop
         style="stop-color:#0b2228;stop-opacity:1;"
         offset="0"
         id="stop1097" />
      <stop
         style="stop-color:#0b2228;stop-opacity:0;"
         offset="1"
         id="stop1099" />
    </linearGradient>
    <linearGradient
       inkscape:collect="always"
       id="linearGradient3321">
      <stop
         style="stop-color:#dbe3e2;stop-opacity:1;"
         offset="0"
         id="stop3317" />
      <stop
         style="stop-color:#dbe3e2;stop-opacity:0;"
         offset="1"
         id="stop3319" />
    </linearGradient>
    <linearGradient
       inkscape:collect="always"
       id="linearGradient2818">
      <stop
         style="stop-color:#aa4400;stop-opacity:1;"
         offset="0"
         id="stop2814" />
      <stop
         style="stop-color:#aa4400;stop-opacity:0;"
         offset="1"
         id="stop2816" />
    </linearGradient>
    <linearGradient
       inkscape:collect="always"
       id="linearGradient2597">
      <stop
         style="stop-color:#164450;stop-opacity:1;"
         offset="0"
         id="stop2593" />
      <stop
         style="stop-color:#164450;stop-opacity:0;"
         offset="1"
         id="stop2595" />
    </linearGradient>
    <linearGradient
       inkscape:collect="always"
       id="linearGradient1469">
      <stop
         style="stop-color:#164450;stop-opacity:1;"
         offset="0"
         id="stop1465" />
      <stop
         style="stop-color:#164450;stop-opacity:0;"
         offset="1"
         id="stop1467" />
    </linearGradient>
    <filter
       height="1.3"
       width="1.3"
       y="-0.15000001"
       x="-0.15000001"
       inkscape:menu-tooltip="Van Gogh painting effect for bitmaps"
       inkscape:menu="Distort"
       inkscape:label="Pixel Smear"
       style="color-interpolation-filters:sRGB"
       id="filter1332">
      <feTurbulence
         type="fractalNoise"
         numOctaves="3"
         baseFrequency="0.25 0.4"
         seed="5"
         id="feTurbulence1314" />
      <feColorMatrix
         result="result5"
         values="1 0 0 0 0 0 1 0 0 0 0 0 1 0 0 0 0 0 1 0 "
         id="feColorMatrix1316" />
      <feComposite
         in="SourceGraphic"
         operator="in"
         in2="result5"
         id="feComposite1318" />
      <feMorphology
         operator="dilate"
         radius="1.5"
         result="result3"
         id="feMorphology1320" />
      <feTurbulence
         numOctaves="5"
         baseFrequency="0.03"
         type="fractalNoise"
         seed="7"
         id="feTurbulence1322" />
      <feGaussianBlur
         stdDeviation="0.5"
         result="result91"
         id="feGaussianBlur1324" />
      <feDisplacementMap
         in="result3"
         xChannelSelector="R"
         yChannelSelector="G"
         scale="27"
         result="result4"
         in2="result91"
         id="feDisplacementMap1326" />
      <feComposite
         in="result4"
         k3="0.8"
         k1="1.3"
         result="result2"
         operator="arithmetic"
         in2="result4"
         id="feComposite1328"
         k2="0"
         k4="0" />
      <feBlend
         in2="result2"
         mode="screen"
         in="result2"
         id="feBlend1330" />
    </filter>
    <filter
       height="1.3"
       width="1.3"
       y="-0.15000001"
       x="-0.15000001"
       inkscape:menu-tooltip="Van Gogh painting effect for bitmaps"
       inkscape:menu="Distort"
       inkscape:label="Pixel Smear"
       style="color-interpolation-filters:sRGB"
       id="filter1332-3">
      <feTurbulence
         type="fractalNoise"
         numOctaves="3"
         baseFrequency="0.25 0.4"
         seed="5"
         id="feTurbulence1314-6" />
      <feColorMatrix
         result="result5"
         values="1 0 0 0 0 0 1 0 0 0 0 0 1 0 0 0 0 0 1 0 "
         id="feColorMatrix1316-6" />
      <feComposite
         in="SourceGraphic"
         operator="in"
         in2="result5"
         id="feComposite1318-1" />
      <feMorphology
         operator="dilate"
         radius="1.5"
         result="result3"
         id="feMorphology1320-4" />
      <feTurbulence
         numOctaves="5"
         baseFrequency="0.03"
         type="fractalNoise"
         seed="7"
         id="feTurbulence1322-7" />
      <feGaussianBlur
         stdDeviation="0.5"
         result="result91"
         id="feGaussianBlur1324-2" />
      <feDisplacementMap
         in="result3"
         xChannelSelector="R"
         yChannelSelector="G"
         scale="27"
         result="result4"
         in2="result91"
         id="feDisplacementMap1326-6" />
      <feComposite
         k4="0"
         k2="0"
         in="result4"
         k3="0.8"
         k1="1.3"
         result="result2"
         operator="arithmetic"
         in2="result4"
         id="feComposite1328-6" />
      <feBlend
         in2="result2"
         mode="screen"
         in="result2"
         id="feBlend1330-3" />
    </filter>
    <linearGradient
       inkscape:collect="always"
       xlink:href="#linearGradient1469"
       id="linearGradient1471"
       x1="245.85652"
       y1="157.26425"
       x2="244.9761"
       y2="100.03712"
       gradientUnits="userSpaceOnUse"
       gradientTransform="matrix(1,0,0,1.0016025,0,-0.04602855)" />
    <linearGradient
       inkscape:collect="always"
       xlink:href="#linearGradient2597"
       id="linearGradient2599"
       x1="169.95589"
       y1="158.43872"
       x2="169.95589"
       y2="79.063728"
       gradientUnits="userSpaceOnUse"
       gradientTransform="matrix(0.99765263,0,0,0.94866071,-5.2792451,-1.5591513)" />
    <linearGradient
       inkscape:collect="always"
       xlink:href="#linearGradient2818"
       id="linearGradient2820-2"
       x1="163.65257"
       y1="74.238968"
       x2="153.98824"
       y2="66.939041"
       gradientUnits="userSpaceOnUse"
       gradientTransform="matrix(0.84073962,-0.53621651,-0.52842501,-0.84281377,48.599487,215.77069)" />
    <linearGradient
       inkscape:collect="always"
       xlink:href="#linearGradient3321"
       id="linearGradient3323"
       x1="173.53554"
       y1="116.10539"
       x2="171.59007"
       y2="110.11336"
       gradientUnits="userSpaceOnUse"
       gradientTransform="translate(0.00272358,0.0937939)" />
    <linearGradient
       inkscape:collect="always"
       xlink:href="#linearGradient3171"
       id="linearGradient3173"
       x1="169.17769"
       y1="112.21446"
       x2="168.86642"
       y2="106.61152"
       gradientUnits="userSpaceOnUse"
       gradientTransform="matrix(0.97841188,0,0,1.3698252,3.7155298,-42.370412)" />
    <linearGradient
       inkscape:collect="always"
       id="linearGradient3171">
      <stop
         style="stop-color:#e9c6af;stop-opacity:1;"
         offset="0"
         id="stop3167" />
      <stop
         style="stop-color:#e9c6af;stop-opacity:0;"
         offset="1"
         id="stop3169" />
    </linearGradient>
    <linearGradient
       inkscape:collect="always"
       xlink:href="#linearGradient1101"
       id="linearGradient1103"
       x1="169.42529"
       y1="109.22648"
       x2="169.48033"
       y2="129.42105"
       gradientUnits="userSpaceOnUse" />
    <linearGradient
       inkscape:collect="always"
       xlink:href="#linearGradient1101"
       id="linearGradient1105"
       x1="169.42529"
       y1="109.22648"
       x2="169.48033"
       y2="129.42105"
       gradientUnits="userSpaceOnUse" />
    <linearGradient
       inkscape:collect="always"
       xlink:href="#linearGradient1101"
       id="linearGradient1107"
       x1="169.42529"
       y1="109.22648"
       x2="169.48033"
       y2="129.42105"
       gradientUnits="userSpaceOnUse" />
    <linearGradient
       inkscape:collect="always"
       xlink:href="#linearGradient1101"
       id="linearGradient1109"
       x1="169.42529"
       y1="109.22648"
       x2="169.48033"
       y2="129.42105"
       gradientUnits="userSpaceOnUse" />
    <linearGradient
       inkscape:collect="always"
       xlink:href="#linearGradient1101"
       id="linearGradient1111"
       x1="169.42529"
       y1="109.22648"
       x2="169.48033"
       y2="129.42105"
       gradientUnits="userSpaceOnUse" />
  </defs>
  <sodipodi:namedview
     id="base"
     pagecolor="#474747"
     bordercolor="#666666"
     borderopacity="1.0"
     inkscape:pageopacity="0"
     inkscape:pageshadow="2"
     inkscape:zoom="0.85"
     inkscape:cx="-108.11111"
     inkscape:cy="-14.38814"
     inkscape:document-units="px"
     inkscape:current-layer="layer47"
     showgrid="true"
     fit-margin-top="0"
     fit-margin-left="0"
     fit-margin-right="0"
     fit-margin-bottom="0"
     inkscape:showpageshadow="false"
     borderlayer="true"
     inkscape:window-width="1920"
     inkscape:window-height="1013"
     inkscape:window-x="-9"
     inkscape:window-y="951"
     inkscape:window-maximized="1"
     showguides="false">
    <inkscape:grid
       type="xygrid"
       id="grid814"
       originx="-154.69973"
       originy="-66.000571" />
  </sodipodi:namedview>
  <metadata
     id="metadata5">
    <rdf:RDF>
      <cc:Work
         rdf:about="">
        <dc:format>image/svg+xml</dc:format>
        <dc:type
           rdf:resource="http://purl.org/dc/dcmitype/StillImage" />
        <dc:title></dc:title>
      </cc:Work>
    </rdf:RDF>
  </metadata>
  <g
     inkscape:groupmode="layer"
     id="layer47"
     inkscape:label="Layer 6"
     style="display:inline"
     transform="translate(-154.69973,-90.32823)">
    <g
       inkscape:groupmode="layer"
       id="layer44"
       inkscape:label="Layer 3"
       style="display:inline" />
    <g
       inkscape:groupmode="layer"
       id="layer45"
       inkscape:label="Layer 4"
       style="display:inline" />
    <g
       inkscape:groupmode="layer"
       id="layer46"
       inkscape:label="Layer 5"
       style="display:inline" />
    <flowRoot
       xml:space="preserve"
       id="flowRoot3325"
       style="font-style:normal;font-variant:normal;font-weight:bold;font-stretch:normal;font-size:20px;line-height:1.25;font-family:'Courier New';-inkscape-font-specification:'Courier New Bold';letter-spacing:-5px;word-spacing:0px;fill:#000000;fill-opacity:1;stroke:none"
       transform="scale(0.26458333)"><flowRegion
         id="flowRegion3327"
         style="letter-spacing:-5px"><rect
           id="rect3329"
           width="42.218433"
           height="22.461039"
           x="619.34235"
           y="408.04114"
           style="letter-spacing:-5px" /></flowRegion><flowPara
         id="flowPara3331">&lt;</flowPara></flowRoot>    <g
       id="g1440"
       transform="translate(1.2870281,-3.7660758)"
       inkscape:export-xdpi="300"
       inkscape:export-ydpi="300">
      <path
         id="path3095-6-1"
         d="m 164.08651,120.79162 a 3.9618776,3.9618776 0 0 1 -3.85439,4.06085 3.9618776,3.9618776 0 0 1 -4.06651,-3.84842 3.9618776,3.9618776 0 0 1 3.84243,-4.07216 3.9618776,3.9618776 0 0 1 4.07781,3.83644"
         style="display:inline;opacity:1;fill:url(#linearGradient1103);fill-opacity:1;fill-rule:evenodd;stroke:none;stroke-width:0.26458332;stroke-miterlimit:4;stroke-dasharray:none;stroke-opacity:1;paint-order:markers stroke fill"
         inkscape:connector-curvature="0" />
      <path
         id="path3095-8-1"
         d="m 168.59865,123.10272 a 3.9618776,3.9618776 0 0 1 -3.85439,4.06084 3.9618776,3.9618776 0 0 1 -4.06651,-3.84841 3.9618776,3.9618776 0 0 1 3.84243,-4.07216 3.9618776,3.9618776 0 0 1 4.07781,3.83643"
         style="display:inline;opacity:1;fill:url(#linearGradient1105);fill-opacity:1;fill-rule:evenodd;stroke:none;stroke-width:0.26458332;stroke-miterlimit:4;stroke-dasharray:none;stroke-opacity:1;paint-order:markers stroke fill"
         inkscape:connector-curvature="0" />
      <path
         id="path3095-07-6"
         d="m 173.66104,124.20324 a 3.9618776,3.9618776 0 0 1 -3.85438,4.06084 3.9618776,3.9618776 0 0 1 -4.06651,-3.84841 3.9618776,3.9618776 0 0 1 3.84243,-4.07217 3.9618776,3.9618776 0 0 1 4.07781,3.83644"
         style="display:inline;opacity:1;fill:url(#linearGradient1107);fill-opacity:1;fill-rule:evenodd;stroke:none;stroke-width:0.26458332;stroke-miterlimit:4;stroke-dasharray:none;stroke-opacity:1;paint-order:markers stroke fill"
         inkscape:connector-curvature="0" />
      <path
         id="path3095-7-3"
         d="m 178.50333,123.10272 a 3.9618776,3.9618776 0 0 1 -3.85439,4.06084 3.9618776,3.9618776 0 0 1 -4.06651,-3.84841 3.9618776,3.9618776 0 0 1 3.84243,-4.07216 3.9618776,3.9618776 0 0 1 4.07781,3.83643"
         style="display:inline;opacity:1;fill:url(#linearGradient1109);fill-opacity:1;fill-rule:evenodd;stroke:none;stroke-width:0.26458332;stroke-miterlimit:4;stroke-dasharray:none;stroke-opacity:1;paint-order:markers stroke fill"
         inkscape:connector-curvature="0" />
      <path
         id="path3095-70-5"
         d="m 183.34563,120.13131 a 3.9618776,3.9618776 0 0 1 -3.85439,4.06084 3.9618776,3.9618776 0 0 1 -4.06651,-3.84841 3.9618776,3.9618776 0 0 1 3.84243,-4.07217 3.9618776,3.9618776 0 0 1 4.07781,3.83644"
         style="display:inline;opacity:1;fill:url(#linearGradient1111);fill-opacity:1;fill-rule:evenodd;stroke:none;stroke-width:0.26458332;stroke-miterlimit:4;stroke-dasharray:none;stroke-opacity:1;paint-order:markers stroke fill"
         inkscape:connector-curvature="0" />
      <path
         id="path3095"
         d="m 166.61769,99.936725 a 3.9618776,3.9618776 0 0 1 -3.85439,4.060845 3.9618776,3.9618776 0 0 1 -4.0665,-3.84841 3.9618776,3.9618776 0 0 1 3.84243,-4.072167 3.9618776,3.9618776 0 0 1 4.07781,3.836439"
         style="display:inline;opacity:1;fill:#ffe6d5;fill-opacity:1;fill-rule:evenodd;stroke:none;stroke-width:0.26458332;stroke-miterlimit:4;stroke-dasharray:none;stroke-opacity:1;paint-order:markers stroke fill"
         inkscape:connector-curvature="0" />
      <path
         id="path3095-5"
         d="m 173.00072,97.955791 a 3.9618776,3.9618776 0 0 1 -3.85439,4.060849 3.9618776,3.9618776 0 0 1 -4.06651,-3.848418 3.9618776,3.9618776 0 0 1 3.84243,-4.072163 3.9618776,3.9618776 0 0 1 4.07781,3.836439"
         style="display:inline;opacity:1;fill:#ffe6d5;fill-opacity:1;fill-rule:evenodd;stroke:none;stroke-width:0.26458332;stroke-miterlimit:4;stroke-dasharray:none;stroke-opacity:1;paint-order:markers stroke fill"
         inkscape:connector-curvature="0" />
      <path
         id="path3095-0"
         d="m 179.16364,100.15684 a 3.9618776,3.9618776 0 0 1 -3.85439,4.06085 3.9618776,3.9618776 0 0 1 -4.06651,-3.84842 3.9618776,3.9618776 0 0 1 3.84243,-4.072161 3.9618776,3.9618776 0 0 1 4.07781,3.836441"
         style="display:inline;opacity:1;fill:#ffe6d5;fill-opacity:1;fill-rule:evenodd;stroke:none;stroke-width:0.26458332;stroke-miterlimit:4;stroke-dasharray:none;stroke-opacity:1;paint-order:markers stroke fill"
         inkscape:connector-curvature="0" />
      <path
         id="path3095-1"
         d="m 161.33519,103.45841 a 3.9618776,3.9618776 0 0 1 -3.85439,4.06084 3.9618776,3.9618776 0 0 1 -4.06651,-3.84841 3.9618776,3.9618776 0 0 1 3.84244,-4.072164 3.9618776,3.9618776 0 0 1 4.0778,3.836434"
         style="display:inline;opacity:1;fill:#ffe6d5;fill-opacity:1;fill-rule:evenodd;stroke:none;stroke-width:0.26458332;stroke-miterlimit:4;stroke-dasharray:none;stroke-opacity:1;paint-order:markers stroke fill"
         inkscape:connector-curvature="0" />
      <path
         id="path3095-52"
         d="m 184.00592,103.01819 a 3.9618776,3.9618776 0 0 1 -3.85439,4.06085 3.9618776,3.9618776 0 0 1 -4.0665,-3.84842 3.9618776,3.9618776 0 0 1 3.84243,-4.07216 3.9618776,3.9618776 0 0 1 4.07781,3.83644"
         style="display:inline;opacity:1;fill:#ffe6d5;fill-opacity:1;fill-rule:evenodd;stroke:none;stroke-width:0.26458332;stroke-miterlimit:4;stroke-dasharray:none;stroke-opacity:1;paint-order:markers stroke fill"
         inkscape:connector-curvature="0" />
      <path
         sodipodi:nodetypes="cscc"
         inkscape:connector-curvature="0"
         id="path3132"
         d="m 153.4127,104.16408 c 0,0 3.15336,14.2043 15.1872,13.92159 13.85857,-0.32557 15.40537,-15.09077 15.40537,-15.09077 0,0 -10.78445,-5.314241 -30.59257,1.16918 z"
         style="display:inline;opacity:1;fill:#ffe6d5;fill-opacity:1;fill-rule:evenodd;stroke:none;stroke-width:0.26458332;stroke-miterlimit:4;stroke-dasharray:none;stroke-opacity:1;paint-order:markers stroke fill" />
      <path
         id="path3095-6"
         d="m 163.75634,117.54509 a 3.9618776,3.9618776 0 0 1 -3.85439,4.06084 3.9618776,3.9618776 0 0 1 -4.06651,-3.84841 3.9618776,3.9618776 0 0 1 3.84243,-4.07217 3.9618776,3.9618776 0 0 1 4.07781,3.83644"
         style="display:inline;opacity:1;fill:#ffe6d5;fill-opacity:1;fill-rule:evenodd;stroke:none;stroke-width:0.26458332;stroke-miterlimit:4;stroke-dasharray:none;stroke-opacity:1;paint-order:markers stroke fill"
         inkscape:connector-curvature="0" />
      <path
         id="path3095-8"
         d="m 168.26848,119.85618 a 3.9618776,3.9618776 0 0 1 -3.85439,4.06085 3.9618776,3.9618776 0 0 1 -4.06651,-3.84842 3.9618776,3.9618776 0 0 1 3.84243,-4.07216 3.9618776,3.9618776 0 0 1 4.07781,3.83644"
         style="display:inline;opacity:1;fill:#ffe6d5;fill-opacity:1;fill-rule:evenodd;stroke:none;stroke-width:0.26458332;stroke-miterlimit:4;stroke-dasharray:none;stroke-opacity:1;paint-order:markers stroke fill"
         inkscape:connector-curvature="0" />
      <path
         id="path3095-07"
         d="m 173.33088,120.9567 a 3.9618776,3.9618776 0 0 1 -3.85439,4.06084 3.9618776,3.9618776 0 0 1 -4.06651,-3.84841 3.9618776,3.9618776 0 0 1 3.84243,-4.07216 3.9618776,3.9618776 0 0 1 4.07781,3.83644"
         style="display:inline;opacity:1;fill:#ffe6d5;fill-opacity:1;fill-rule:evenodd;stroke:none;stroke-width:0.26458332;stroke-miterlimit:4;stroke-dasharray:none;stroke-opacity:1;paint-order:markers stroke fill"
         inkscape:connector-curvature="0" />
      <path
         id="path3095-7"
         d="m 178.17316,119.85618 a 3.9618776,3.9618776 0 0 1 -3.85439,4.06085 3.9618776,3.9618776 0 0 1 -4.06651,-3.84842 3.9618776,3.9618776 0 0 1 3.84243,-4.07216 3.9618776,3.9618776 0 0 1 4.07781,3.83644"
         style="display:inline;opacity:1;fill:#ffe6d5;fill-opacity:1;fill-rule:evenodd;stroke:none;stroke-width:0.26458332;stroke-miterlimit:4;stroke-dasharray:none;stroke-opacity:1;paint-order:markers stroke fill"
         inkscape:connector-curvature="0" />
      <path
         id="path3095-70"
         d="m 183.01546,116.88477 a 3.9618776,3.9618776 0 0 1 -3.85439,4.06084 3.9618776,3.9618776 0 0 1 -4.06651,-3.84841 3.9618776,3.9618776 0 0 1 3.84243,-4.07216 3.9618776,3.9618776 0 0 1 4.07781,3.83644"
         style="display:inline;opacity:1;fill:#ffe6d5;fill-opacity:1;fill-rule:evenodd;stroke:none;stroke-width:0.26458332;stroke-miterlimit:4;stroke-dasharray:none;stroke-opacity:1;paint-order:markers stroke fill"
         inkscape:connector-curvature="0" />
      <path
         sodipodi:nodetypes="csccc"
         inkscape:connector-curvature="0"
         id="path3165"
         d="m 157.97247,100.25759 c 0,0 1.67505,10.44659 5.63426,12.79174 3.95921,2.34516 9.13664,2.55834 12.1822,-2.34515 1.5989,-2.98474 3.37471,-10.54734 3.37471,-10.54734 z"
         style="display:inline;opacity:1;fill:url(#linearGradient3173);fill-opacity:1;fill-rule:evenodd;stroke:none;stroke-width:0.30630627;stroke-miterlimit:4;stroke-dasharray:none;stroke-opacity:1;paint-order:markers stroke fill" />
      <path
         id="path3248"
         d="m 177.50165,110.41706 a 8.2098656,7.9764094 0 0 1 -7.98713,8.17566 8.2098656,7.9764094 0 0 1 -8.42668,-7.74797 8.2098656,7.9764094 0 0 1 7.96234,-8.19845 8.2098656,7.9764094 0 0 1 8.4501,7.72386"
         style="display:inline;opacity:1;fill:#ffffff;fill-opacity:1;fill-rule:evenodd;stroke:none;stroke-width:0.40033045;stroke-miterlimit:4;stroke-dasharray:none;stroke-opacity:1;paint-order:markers stroke fill"
         inkscape:connector-curvature="0" />
      <path
         id="path3248-7"
         d="m 177.50301,110.46396 a 8.2098656,7.9764094 0 0 1 -7.98713,8.17566 8.2098656,7.9764094 0 0 1 -8.42669,-7.74798 8.2098656,7.9764094 0 0 1 7.96235,-8.19844 8.2098656,7.9764094 0 0 1 8.4501,7.72386"
         style="display:inline;opacity:1;fill:url(#linearGradient3323);fill-opacity:1;fill-rule:evenodd;stroke:none;stroke-width:0.40033045;stroke-miterlimit:4;stroke-dasharray:none;stroke-opacity:1;paint-order:markers stroke fill"
         inkscape:connector-curvature="0" />
      <g
         id="text3335"
         style="font-style:normal;font-variant:normal;font-weight:bold;font-stretch:normal;font-size:5.29166651px;line-height:1.25;font-family:'Courier New';-inkscape-font-specification:'Courier New Bold';letter-spacing:0px;word-spacing:0px;fill:#53676c;fill-opacity:1;stroke:none;stroke-width:0.26458332"
         aria-label="&lt;/&gt;">
        <path
           id="path1129"
           style="letter-spacing:0px;fill:#53676c;stroke-width:0.26458332"
           d="m 165.39643,110.90902 1.71566,0.95085 q 0.12919,0.0724 0.17053,0.12919 0.0439,0.0569 0.0439,0.1447 0,0.1111 -0.0801,0.19378 -0.0801,0.0801 -0.18603,0.0801 -0.0698,0 -0.20929,-0.0775 l -2.5554,-1.42111 2.5554,-1.4211 q 0.13953,-0.0749 0.20671,-0.0749 0.10852,0 0.18861,0.0801 0.0801,0.0801 0.0801,0.1912 0,0.0878 -0.0439,0.1447 -0.0413,0.0568 -0.17053,0.12919 z"
           inkscape:connector-curvature="0" />
        <path
           id="path1131"
           style="letter-spacing:0px;fill:#53676c;stroke-width:0.26458332"
           d="m 170.21526,109.13652 -1.69758,3.65869 q -0.0646,0.13695 -0.11627,0.17829 -0.0672,0.0543 -0.16278,0.0543 -0.10852,0 -0.18862,-0.0775 -0.0775,-0.0775 -0.0775,-0.1757 0,-0.0698 0.062,-0.20412 l 1.70274,-3.65611 q 0.0646,-0.13694 0.11369,-0.17828 0.0698,-0.0543 0.16278,-0.0543 0.10852,0 0.18603,0.0775 0.0775,0.0749 0.0775,0.17311 0,0.0698 -0.062,0.20412 z"
           inkscape:connector-curvature="0" />
        <path
           id="path1133"
           style="letter-spacing:0px;fill:#53676c;stroke-width:0.26458332"
           d="m 172.85592,110.90902 -1.71566,-0.95084 q -0.12919,-0.0724 -0.17311,-0.12919 -0.0413,-0.0569 -0.0413,-0.1447 0,-0.1111 0.0801,-0.1912 0.0801,-0.0801 0.18862,-0.0801 0.0672,0 0.20671,0.0749 l 2.5554,1.4211 -2.5554,1.42111 q -0.13953,0.0775 -0.20671,0.0775 -0.10852,0 -0.18862,-0.0801 -0.0801,-0.0801 -0.0801,-0.19378 0,-0.0878 0.0413,-0.1447 0.0439,-0.0568 0.17311,-0.12919 z"
           inkscape:connector-curvature="0" />
      </g>
    </g>
  </g>
</svg>
